<?xml version="1.0" encoding="utf-8"?>
<!-- Generator: Adobe Illustrator 16.0.0, SVG Export Plug-In . SVG Version: 6.00 Build 0)  -->
<!DOCTYPE svg PUBLIC "-//W3C//DTD SVG 1.1//EN" "http://www.w3.org/Graphics/SVG/1.1/DTD/svg11.dtd">
<svg version="1.1" id="Layer_1" xmlns="http://www.w3.org/2000/svg" xmlns:xlink="http://www.w3.org/1999/xlink" x="0px" y="0px"
	 width="50px" height="50px" viewBox="0 0 50 50" enable-background="new 0 0 50 50" xml:space="preserve">
<g>
	<path fill="#FFFFFF" d="M44.894,25.086c0.009,0.019,0.021,0.031,0.029,0.049v-0.051C44.914,25.085,44.903,25.085,44.894,25.086z"/>
	<path fill="#FFFFFF" d="M44.252,20.891v0.284c0,0.29-0.229,0.528-0.52,0.539c-0.101,0.004-0.164,0.013-0.201,0.022
		c-0.025,0.211-0.053,0.494-0.067,0.896l0.469-0.082c0.246-0.16,0.515-0.28,0.803-0.348l-0.268-1.527l-0.246,0.043
		C44.239,20.773,44.252,20.83,44.252,20.891z"/>
	<path fill="#FFFFFF" d="M7.629,23.605v1.827c0,0.125,0.023,0.18,0.031,0.196c0.001,0,0.001,0,0.002,0
		c0.005,0,0.018,0.002,0.036,0.002c0.065,0,0.142-0.026,0.227-0.075V23.69l-0.103-0.016C7.753,23.664,7.688,23.64,7.629,23.605z"/>
	<polygon fill="#FFFFFF" points="10.106,25.71 10.147,25.71 10.147,23.781 10.11,23.781 10.106,23.781 	"/>
	<path fill="#FFFFFF" d="M5.447,25.312v-1.188H5.05v0.123C5.178,24.593,5.31,24.946,5.447,25.312z"/>
	<path fill="#FFFFFF" d="M43.217,27.256c-0.088,0.061-0.192,0.097-0.306,0.097h-0.55c-0.162,0-0.315-0.073-0.418-0.199l-2.645-3.246
		v0.374c0,0.812,0.041,1.284,0.078,1.604c0.055,0.014,0.163,0.033,0.365,0.042c0.289,0.012,0.518,0.25,0.518,0.539v0.28
		c0,0.299-0.242,0.541-0.541,0.541h-2.237c-0.135,0-0.256-0.051-0.35-0.131c-0.203,0.146-0.453,0.232-0.731,0.232
		c-0.027,0-0.053-0.003-0.078-0.005c-1.085,5.381-5.839,9.434-11.539,9.434c-5.733,0-10.508-4.103-11.555-9.53h-0.273
		c-0.149,0-0.285-0.062-0.383-0.159l-0.217,0.109c-0.203,0.098-0.418,0.151-0.583,0.151c-0.55,0-0.966-0.164-1.24-0.47
		c-0.079,0.073-0.173,0.127-0.285,0.143c-0.457,0.066-1.003,0.179-1.579,0.324c-0.043,0.012-0.088,0.017-0.132,0.017
		c-0.129,0-0.255-0.046-0.354-0.131L8.11,27.209c-0.021-0.019-0.042-0.04-0.061-0.062c-0.251,0.136-0.536,0.242-0.896,0.242
		c-0.305,0-0.573-0.067-0.808-0.183c0.007,0.062,0.012,0.125,0.02,0.188l-1.165,0.205l0.305,1.727l1.162-0.204
		c0.111,0.498,0.238,0.989,0.39,1.471l-1.104,0.402l0.6,1.648l1.106-0.403c0.198,0.47,0.418,0.928,0.651,1.376l-1.027,0.594
		l0.877,1.518l1.034-0.596c0.275,0.425,0.568,0.839,0.877,1.239L9.15,37.144l1.128,1.343l0.928-0.778
		c0.345,0.37,0.702,0.729,1.076,1.068L11.5,39.709l1.344,1.128l0.79-0.942c0.402,0.304,0.819,0.587,1.247,0.856l-0.622,1.075
		l1.52,0.877l0.627-1.087c0.447,0.228,0.904,0.437,1.373,0.627l-0.435,1.191l1.648,0.601l0.439-1.207
		c0.477,0.145,0.962,0.269,1.455,0.375l-0.226,1.278l1.727,0.305l0.23-1.301c0.491,0.057,0.988,0.095,1.491,0.113v1.338h1.755
		v-1.354c0.499-0.028,0.994-0.08,1.482-0.146l0.238,1.351l1.728-0.304l-0.241-1.369c0.484-0.115,0.961-0.247,1.429-0.398l0.48,1.32
		l1.648-0.601l-0.487-1.338c0.455-0.196,0.899-0.41,1.333-0.641l0.722,1.247l1.518-0.877l-0.731-1.265
		c0.411-0.271,0.809-0.558,1.196-0.858l0.951,1.134l1.343-1.128l-0.962-1.147c0.355-0.335,0.701-0.682,1.03-1.043l1.154,0.968
		l1.127-1.343l-1.165-0.979c0.291-0.389,0.564-0.793,0.825-1.206l1.331,0.769l0.876-1.519l-1.341-0.775
		c0.219-0.432,0.424-0.873,0.61-1.323l1.462,0.532l0.6-1.648l-1.471-0.535c0.14-0.461,0.26-0.931,0.365-1.407l1.553,0.273
		l0.304-1.727l-1.562-0.275C43.212,27.301,43.213,27.278,43.217,27.256z M11.593,36.244l-0.303-0.429l2.819-1.989l-3.51,1.01
		l-0.284-0.402l2.18-2.997L9.629,33.46l-0.304-0.43l3.368-2.376l0.474,0.671l-1.822,2.479c-0.171,0.23-0.299,0.4-0.385,0.512
		c0.149-0.048,0.371-0.115,0.666-0.201l2.912-0.847l0.423,0.6L11.593,36.244z M16.167,37.664l-1.788-1.415l-0.87,1.102l1.985,1.569
		l-0.302,0.381l-2.413-1.907l2.557-3.233l2.337,1.849l-0.301,0.382l-1.909-1.511l-0.783,0.99l1.787,1.414L16.167,37.664z
		 M20.659,38.581c-0.114,0.269-0.298,0.459-0.551,0.57c-0.253,0.109-0.571,0.113-0.956,0.009c0.105,0.12,0.18,0.226,0.223,0.316
		c0.09,0.198,0.157,0.425,0.202,0.683l0.223,1.312l-0.632-0.268l-0.167-1.003c-0.051-0.289-0.097-0.515-0.141-0.677
		c-0.044-0.161-0.093-0.281-0.147-0.361s-0.117-0.146-0.187-0.198c-0.052-0.036-0.143-0.081-0.272-0.136l-0.582-0.247l-0.714,1.686
		l-0.502-0.214l1.608-3.795l1.683,0.713c0.338,0.144,0.58,0.287,0.728,0.43s0.237,0.322,0.269,0.54
		C20.775,38.158,20.747,38.371,20.659,38.581z M21.733,40.646c0.07,0.272,0.204,0.485,0.403,0.639
		c0.198,0.155,0.422,0.247,0.671,0.277c0.304,0.036,0.571-0.021,0.803-0.169c0.231-0.15,0.405-0.393,0.521-0.729l0.525,0.203
		c-0.167,0.431-0.412,0.745-0.735,0.943c-0.323,0.197-0.697,0.271-1.124,0.221c-0.44-0.055-0.789-0.188-1.043-0.4
		c-0.255-0.214-0.434-0.498-0.537-0.856c-0.103-0.358-0.131-0.732-0.084-1.123c0.052-0.426,0.178-0.787,0.379-1.086
		c0.201-0.297,0.462-0.511,0.783-0.639c0.32-0.128,0.66-0.171,1.021-0.128c0.409,0.05,0.741,0.196,0.995,0.438
		s0.413,0.559,0.477,0.95l-0.548,0.061c-0.059-0.311-0.171-0.542-0.335-0.7c-0.163-0.158-0.383-0.254-0.656-0.286
		c-0.314-0.038-0.586,0.006-0.816,0.131c-0.229,0.125-0.401,0.31-0.518,0.554c-0.116,0.243-0.191,0.5-0.224,0.77
		C21.649,40.064,21.664,40.374,21.733,40.646z M28.567,41.693l-0.3-1.919l-2.117,0.331l0.302,1.919l-0.539,0.085l-0.638-4.072
		l0.539-0.084l0.262,1.672l2.116-0.332l-0.262-1.671l0.539-0.085l0.637,4.072L28.567,41.693z M33.193,39.978L32.24,39.04
		l-1.569,0.711l0.102,1.324l-0.527,0.238l-0.258-4.408l0.534-0.241l3.238,3.058L33.193,39.978z M36.77,37.367l-3.734-1.108
		l2.068,2.492l-0.402,0.334l-2.633-3.171l0.431-0.357l3.732,1.107l-2.066-2.49l0.401-0.334l2.634,3.171L36.77,37.367z
		 M38.864,34.975l-2.953-2.119l-0.791,1.103l-0.396-0.284l1.904-2.654l0.396,0.284l-0.795,1.108l2.953,2.12L38.864,34.975z
		 M20.134,37.835c0.081,0.171,0.084,0.347,0.007,0.526c-0.052,0.122-0.133,0.222-0.245,0.297c-0.11,0.075-0.242,0.11-0.391,0.104
		c-0.15-0.008-0.34-0.06-0.569-0.157l-1.079-0.458l0.532-1.256l1.2,0.51C19.871,37.52,20.053,37.665,20.134,37.835z M30.42,37.185
		c0.151,0.177,0.357,0.396,0.619,0.657l0.864,0.863l-1.272,0.576l-0.087-1.288C30.522,37.716,30.482,37.446,30.42,37.185z"/>
	<path fill="#FFFFFF" d="M12.842,23.732c-0.07,0.032-0.146,0.049-0.223,0.049H12.33v1.637c0,0.142,0.019,0.224,0.034,0.269
		c0.032-0.011,0.076-0.029,0.132-0.061c0.132-0.075,0.289-0.093,0.433-0.046c0.036,0.012,0.067,0.031,0.099,0.051
		c-0.01-0.194-0.015-0.39-0.015-0.585c0-0.363,0.02-0.721,0.051-1.075v-0.403C12.999,23.635,12.927,23.694,12.842,23.732z"/>
	<path fill="#FFFFFF" d="M33.591,14.754l2.232-2.22l0.61,0.614c0.229,0.23,0.375,0.417,0.438,0.56
		c0.086,0.199,0.098,0.431,0.033,0.695c-0.064,0.263-0.249,0.546-0.556,0.851c-0.22,0.219-0.435,0.38-0.64,0.483
		c-0.205,0.103-0.399,0.154-0.582,0.153c-0.13-0.001-0.268-0.038-0.412-0.112c-0.146-0.074-0.313-0.207-0.505-0.4L33.591,14.754z
		 M21.464,9.994c0.122-0.086,0.204-0.193,0.246-0.321c0.041-0.129,0.044-0.257,0.01-0.387c-0.05-0.188-0.159-0.324-0.328-0.409
		c-0.17-0.085-0.401-0.088-0.697-0.01l-1.26,0.336l0.351,1.317l1.133-0.301C21.159,10.155,21.341,10.08,21.464,9.994z M5.214,22.404
		l-0.013-0.003l0.305-1.727l1.183,0.208c0.113-0.495,0.244-0.985,0.396-1.465l-1.131-0.413l0.6-1.647l1.141,0.416
		c0.198-0.467,0.419-0.922,0.653-1.367l-1.063-0.615l0.877-1.52l1.077,0.623c0.275-0.422,0.568-0.832,0.877-1.229L9.15,12.856
		l1.128-1.344l0.976,0.82c0.344-0.366,0.699-0.721,1.072-1.058L11.5,10.291l1.344-1.127l0.836,0.996
		c0.399-0.299,0.815-0.578,1.239-0.845l-0.66-1.143l1.52-0.877l0.668,1.158c0.443-0.224,0.897-0.431,1.36-0.618l-0.463-1.271
		l1.648-0.6l0.469,1.288c0.473-0.142,0.953-0.265,1.44-0.368l-0.24-1.367l1.727-0.305l0.246,1.39
		c0.486-0.056,0.979-0.093,1.476-0.11v-1.43h1.755V6.51c0.493,0.028,0.982,0.078,1.466,0.145l0.255-1.441l1.727,0.306l-0.258,1.456
		c0.48,0.113,0.953,0.242,1.417,0.393l0.51-1.401l1.648,0.6L32.114,7.98c0.449,0.194,0.889,0.406,1.32,0.634l0.762-1.318
		l1.517,0.877l-0.769,1.332c0.407,0.268,0.804,0.55,1.188,0.847l0.997-1.188l1.343,1.127l-1.005,1.198
		c0.354,0.331,0.698,0.675,1.026,1.032l1.201-1.009l1.127,1.344l-1.208,1.014c0.291,0.387,0.564,0.787,0.825,1.195l1.374-0.794
		l0.876,1.52l-1.377,0.795c0.221,0.43,0.428,0.867,0.614,1.315l1.494-0.544l0.6,1.647l-1.495,0.544
		c0.082,0.265,0.155,0.532,0.225,0.803h-1.277c-0.298,0-0.539,0.241-0.539,0.539v0.284c0,0.288,0.225,0.524,0.512,0.539
		c0.205,0.01,0.313,0.029,0.37,0.043c0.034,0.281,0.077,0.749,0.077,1.604v0.156l-2.56-2.977c-0.104-0.12-0.253-0.188-0.411-0.188
		h-1.567c-0.298,0-0.539,0.241-0.539,0.539v0.284c0,0.281,0.215,0.515,0.496,0.538c0.324,0.026,0.356,0.066,0.38,0.096
		c0.049,0.064,0.053,0.22,0.053,0.683v1.79c0,0.672-0.026,1.197-0.085,1.622c-0.012,0.005-0.032,0.008-0.05,0.011
		c-0.096-0.536-0.518-0.938-1.06-1.002c-0.071-6.439-5.311-11.638-11.767-11.638c-4.658,0-8.684,2.706-10.592,6.633
		c-0.458,0.091-0.943,0.18-1.26,0.23c-0.263,0.041-0.456,0.267-0.456,0.533v0.259c0,0.286,0.222,0.521,0.507,0.539
		c0.024,0.001,0.052,0.003,0.081,0.005c0,0.014,0,0.026,0,0.037v0.896c-0.012-0.011-0.02-0.025-0.031-0.036
		c-0.099-0.084-0.222-0.129-0.351-0.129H12.33v-0.646c0-0.205-0.118-0.395-0.304-0.484l-0.156-0.077
		c-0.182-0.088-0.399-0.067-0.562,0.054l-0.945,0.712c-0.136,0.104-0.216,0.263-0.216,0.432v0.045
		c-0.06,0.022-0.112,0.058-0.161,0.1c-0.02-0.024-0.04-0.049-0.064-0.069c-0.117-0.103-0.273-0.148-0.428-0.128
		c-0.389,0.053-1.172,0.141-1.614,0.164c-0.119,0.006-0.227,0.049-0.312,0.119c-0.03-0.058-0.07-0.108-0.12-0.152
		c-0.115-0.103-0.269-0.149-0.423-0.132c-0.495,0.061-1.2,0.143-1.59,0.165C5.354,22.346,5.28,22.368,5.214,22.404z M32.86,14.71
		l1.049,1.056c0.176,0.177,0.348,0.317,0.517,0.42c0.17,0.104,0.334,0.17,0.494,0.203c0.16,0.032,0.336,0.033,0.529,0.002
		c0.193-0.029,0.401-0.104,0.624-0.223c0.224-0.119,0.445-0.288,0.667-0.51c0.261-0.258,0.454-0.527,0.582-0.805
		c0.126-0.278,0.178-0.559,0.154-0.843c-0.017-0.22-0.089-0.432-0.217-0.637c-0.09-0.148-0.249-0.334-0.475-0.562l-1.002-1.007
		L32.86,14.71z M29.772,12.932l2.693,1.484L32.7,13.99l-2.215-1.221l0.677-1.229l1.997,1.102l0.234-0.425l-1.998-1.1l0.609-1.106
		l2.132,1.176l0.236-0.427l-2.61-1.438L29.772,12.932z M28.498,12.565l0.519,0.166l1.256-3.926l-0.52-0.167L28.498,12.565z
		 M25.154,11.972l0.541,0.069l0.234-1.858l1.919,0.243l0.062-0.483L25.99,9.7l0.16-1.266l2.218,0.279l0.062-0.482l-2.759-0.349
		L25.154,11.972z M23.574,7.948l0.224,4.115l0.545-0.028l-0.225-4.116L23.574,7.948z M18.79,8.904l1.062,3.982l0.527-0.141
		l-0.472-1.769l0.611-0.163c0.136-0.036,0.235-0.056,0.298-0.059c0.087-0.002,0.177,0.012,0.269,0.042
		c0.093,0.029,0.206,0.094,0.339,0.194c0.134,0.101,0.309,0.25,0.527,0.448l0.747,0.688l0.663-0.176l-0.982-0.9
		c-0.193-0.175-0.387-0.312-0.578-0.413c-0.09-0.047-0.213-0.084-0.37-0.114c0.368-0.154,0.617-0.353,0.749-0.595
		s0.159-0.505,0.084-0.788c-0.059-0.219-0.167-0.404-0.326-0.556c-0.158-0.151-0.34-0.239-0.544-0.261
		c-0.203-0.022-0.482,0.014-0.838,0.108L18.79,8.904z M14.631,11.16l2.143,3.521l2.628-1.6l-0.253-0.416l-2.161,1.316l-0.729-1.199
		l1.948-1.185l-0.252-0.414l-1.948,1.186l-0.656-1.078l2.08-1.266L17.177,9.61L14.631,11.16z M10.962,14.737l4.102,1.646
		l0.383-0.408l-1.911-3.993l-0.381,0.406l1.43,2.858c0.106,0.215,0.22,0.422,0.341,0.622c-0.192-0.101-0.406-0.201-0.641-0.302
		l-2.92-1.261L10.962,14.737z"/>
	<g>
		<path fill="#FFFFFF" d="M2.622,22.479h0.024l0.652,1.858H1.978L2.622,22.479 M3.414,26.746h2.468v-0.28
			c-0.477-0.06-0.623-0.096-0.934-0.947c-0.343-0.912-0.74-1.989-1.118-3.053L3.235,20.79l-0.442,0.121l-1.821,4.636
			C0.656,26.358,0.539,26.401,0,26.466v0.28h2.031v-0.28l-0.223-0.024c-0.418-0.047-0.433-0.144-0.301-0.598
			c0.117-0.391,0.235-0.786,0.346-1.049H3.45c0.137,0.33,0.309,0.802,0.425,1.102c0.153,0.389,0.106,0.486-0.226,0.536l-0.235,0.033
			V26.746z"/>
		<path fill="#FFFFFF" d="M8.464,23.613c0-0.33-0.043-0.387-0.277-0.427l-0.279-0.045V22.88c0.452-0.023,1.235-0.11,1.659-0.167
			v3.062c0,0.374,0.036,0.475,0.323,0.475h0.281v0.277c-0.541,0.078-1.119,0.204-1.635,0.335l-0.072-0.062v-0.578
			c-0.169,0.127-0.321,0.24-0.521,0.362c-0.279,0.17-0.506,0.265-0.789,0.265c-0.753,0-1.168-0.5-1.168-1.192v-2.044
			c0-0.33-0.044-0.387-0.276-0.427l-0.245-0.045V22.88c0.415-0.023,1.154-0.11,1.625-0.167v2.72c0,0.53,0.27,0.737,0.608,0.737
			c0.253,0,0.504-0.118,0.766-0.346V23.613"/>
		<path fill="#FFFFFF" d="M11.79,25.418c0,0.692,0.342,0.821,0.504,0.821c0.144,0,0.298-0.047,0.47-0.146l0.125,0.27l-0.775,0.392
			c-0.144,0.067-0.278,0.095-0.341,0.095c-0.697,0-1.085-0.302-1.085-1.104v-2.505H10.11l-0.063-0.115l0.289-0.345h0.352v-0.55
			l0.946-0.713l0.156,0.076v1.187h0.892c0.116,0.099,0.1,0.387-0.062,0.46H11.79V25.418"/>
		<path fill="#FFFFFF" d="M14.707,23.252c0.305-0.3,0.76-0.576,1.231-0.576c0.819,0,1.272,0.515,1.272,1.363v1.828
			c0,0.504,0.045,0.539,0.544,0.599v0.28h-2.118v-0.28c0.436-0.06,0.471-0.095,0.471-0.599v-1.729c0-0.557-0.312-0.794-0.688-0.794
			c-0.248,0-0.511,0.091-0.713,0.296v2.228c0,0.504,0.043,0.539,0.419,0.599v0.28h-2.171v-0.28c0.603-0.06,0.648-0.095,0.648-0.599
			v-4.356c0-0.533-0.018-0.547-0.589-0.581v-0.259c0.4-0.063,1.095-0.192,1.692-0.318V23.252"/>
		<path fill="#FFFFFF" d="M19.147,24.503c0-0.978,0.382-1.455,0.749-1.455c0.577,0,0.923,0.695,0.923,1.899
			c0,1.305-0.404,1.528-0.731,1.528C19.509,26.476,19.147,25.636,19.147,24.503 M20.034,22.676c-1.014,0-2.132,0.759-2.132,2.188
			c0,0.964,0.695,1.985,2.085,1.985c1.038,0,2.077-0.706,2.077-2.176C22.064,23.625,21.288,22.676,20.034,22.676z"/>
		<path fill="#FFFFFF" d="M23.994,25.867c0,0.503,0.044,0.539,0.738,0.599v0.28h-2.455v-0.28c0.566-0.06,0.613-0.096,0.613-0.599v-2
			c0-0.551-0.017-0.558-0.597-0.623V23c0.527-0.074,1.104-0.194,1.7-0.324v0.896h0.018c0.116-0.183,0.253-0.397,0.422-0.576
			c0.172-0.184,0.37-0.319,0.597-0.319c0.343,0,0.604,0.25,0.604,0.552c0,0.298-0.2,0.56-0.427,0.64
			c-0.117,0.049-0.205,0.016-0.278-0.037c-0.151-0.121-0.307-0.19-0.45-0.19c-0.152,0-0.334,0.069-0.485,0.445V25.867"/>
		<path fill="#FFFFFF" d="M26.345,23.867c0-0.551-0.017-0.558-0.594-0.623V23c0.53-0.074,1.127-0.194,1.697-0.324v3.179
			c0,0.516,0.046,0.552,0.619,0.611v0.28h-2.343v-0.28c0.577-0.06,0.62-0.096,0.62-0.611V23.867 M27.476,21.252
			c0,0.367-0.289,0.652-0.654,0.652c-0.35,0-0.656-0.285-0.656-0.652s0.307-0.655,0.656-0.655
			C27.187,20.597,27.476,20.885,27.476,21.252z"/>
		<path fill="#FFFFFF" d="M31.653,22.78l0.08,0.129l-2.073,3.454h0.713c0.621,0,0.863-0.111,1.165-0.625l0.133-0.224l0.325,0.121
			c-0.162,0.447-0.278,0.781-0.416,1.11h-3.255l-0.09-0.132l2.138-3.453H29.74c-0.597,0-0.756,0.137-0.963,0.582l-0.129,0.275
			l-0.323-0.121c0.106-0.341,0.249-0.912,0.333-1.307h0.2c0.045,0.133,0.142,0.189,0.486,0.189H31.653"/>
		<path fill="#FFFFFF" d="M33.038,24.169c0.053-0.612,0.388-1.08,0.721-1.08c0.342,0,0.63,0.474,0.63,0.839
			c0,0.176-0.035,0.214-0.169,0.214L33.038,24.169 M35.275,25.703c-0.364,0.244-0.645,0.349-0.976,0.349
			c-0.688,0-1.301-0.466-1.301-1.477c0.896-0.036,2.096-0.119,2.221-0.145c0.18-0.034,0.206-0.056,0.206-0.394
			c0-0.696-0.623-1.358-1.405-1.358c-1.1,0-2.071,0.968-2.071,2.269c0,1.011,0.7,1.902,1.916,1.902c0.315,0,1.021-0.181,1.534-0.967
			L35.275,25.703z"/>
		<path fill="#FFFFFF" d="M35.718,26.143c0-0.406,0.296-0.705,0.683-0.705c0.393,0,0.691,0.299,0.691,0.705
			c0,0.423-0.299,0.707-0.691,0.707C36.014,26.85,35.718,26.565,35.718,26.143"/>
		<path fill="#FFFFFF" d="M42.911,26.812h-0.55l-3.583-4.399h-0.02v1.868c0,0.948,0.055,1.447,0.09,1.729
			c0.046,0.312,0.271,0.432,0.87,0.456v0.28h-2.237v-0.28c0.45-0.017,0.667-0.144,0.709-0.456c0.04-0.281,0.095-0.78,0.095-1.729
			v-1.79c0-0.574,0-0.796-0.165-1.011c-0.172-0.219-0.397-0.276-0.766-0.306v-0.284h1.567l3.493,4.062h0.018V23.36
			c0-0.947-0.052-1.443-0.089-1.728c-0.046-0.317-0.272-0.429-0.871-0.458v-0.284h2.239v0.284c-0.453,0.017-0.667,0.141-0.713,0.458
			c-0.036,0.284-0.088,0.78-0.088,1.728V26.812"/>
		<path fill="#FFFFFF" d="M44.305,24.169c0.052-0.612,0.386-1.08,0.719-1.08c0.342,0,0.629,0.474,0.629,0.839
			c0,0.176-0.032,0.214-0.17,0.214L44.305,24.169 M46.541,25.703c-0.363,0.244-0.642,0.349-0.979,0.349
			c-0.684,0-1.295-0.466-1.295-1.477c0.892-0.036,2.092-0.119,2.218-0.145c0.181-0.034,0.206-0.056,0.206-0.394
			c0-0.696-0.621-1.358-1.405-1.358c-1.099,0-2.074,0.968-2.074,2.269c0,1.011,0.705,1.902,1.918,1.902
			c0.318,0,1.022-0.181,1.536-0.967L46.541,25.703z"/>
		<path fill="#FFFFFF" d="M48.447,25.418c0,0.692,0.341,0.821,0.506,0.821c0.142,0,0.297-0.047,0.467-0.146l0.126,0.27l-0.774,0.392
			c-0.145,0.067-0.276,0.095-0.343,0.095c-0.693,0-1.087-0.302-1.087-1.104v-2.505H46.77l-0.062-0.115l0.288-0.345h0.347v-0.55
			l0.951-0.713l0.154,0.076v1.187h0.893c0.118,0.099,0.098,0.387-0.062,0.46h-0.83V25.418"/>
		<path fill="#FFFFFF" d="M49.52,22.451c-0.079,0-0.153-0.019-0.224-0.058c-0.068-0.039-0.123-0.093-0.167-0.164
			c-0.041-0.071-0.062-0.148-0.062-0.23c0-0.081,0.021-0.156,0.061-0.228c0.04-0.069,0.096-0.126,0.168-0.166
			c0.068-0.04,0.145-0.06,0.224-0.06c0.081,0,0.157,0.02,0.227,0.06c0.071,0.04,0.126,0.097,0.166,0.166
			c0.042,0.071,0.062,0.146,0.062,0.228c0,0.082-0.02,0.159-0.063,0.23c-0.042,0.071-0.097,0.125-0.167,0.164
			C49.675,22.433,49.6,22.451,49.52,22.451 M49.52,22.383c0.067,0,0.132-0.017,0.189-0.05c0.061-0.031,0.108-0.079,0.143-0.139
			c0.035-0.061,0.054-0.125,0.052-0.195c0-0.068-0.017-0.133-0.049-0.192c-0.035-0.06-0.081-0.105-0.143-0.141
			c-0.061-0.034-0.125-0.051-0.192-0.051s-0.131,0.017-0.189,0.051c-0.062,0.035-0.109,0.081-0.143,0.141
			c-0.034,0.06-0.051,0.124-0.051,0.192c0,0.07,0.017,0.135,0.052,0.195c0.037,0.06,0.084,0.107,0.144,0.139
			C49.389,22.366,49.454,22.383,49.52,22.383z M49.436,22.27h-0.089v-0.549h0.177c0.042,0,0.075,0.006,0.098,0.02
			c0.021,0.013,0.039,0.029,0.053,0.054c0.012,0.024,0.018,0.049,0.018,0.076c0,0.032-0.009,0.062-0.025,0.092
			c-0.019,0.029-0.045,0.051-0.08,0.067c0.018,0.012,0.038,0.038,0.062,0.079l0.085,0.161h-0.099l-0.07-0.136l-0.02-0.033
			c-0.02-0.037-0.034-0.056-0.044-0.056h-0.064V22.27z M49.436,21.979h0.06c0.039,0,0.068-0.012,0.082-0.032
			c0.015-0.022,0.023-0.045,0.023-0.071c0-0.016-0.003-0.03-0.009-0.043c-0.006-0.012-0.017-0.023-0.027-0.031
			c-0.014-0.009-0.034-0.013-0.064-0.013h-0.064V21.979z"/>
	</g>
	<g>
		<polygon fill-rule="evenodd" clip-rule="evenodd" fill="#FFFFFF" points="31.235,30.666 31.235,30.057 30.627,30.057 
			30.627,29.447 30.016,29.447 30.016,28.838 29.406,28.838 29.406,33.105 30.016,33.105 30.016,32.495 30.627,32.495 
			30.627,31.887 31.235,31.887 31.235,31.275 31.846,31.275 31.846,30.666 		"/>
		<rect x="18.737" y="28.989" fill-rule="evenodd" clip-rule="evenodd" fill="#FFFFFF" width="1.524" height="0.611"/>
		<rect x="24.225" y="30.057" fill-rule="evenodd" clip-rule="evenodd" fill="#FFFFFF" width="1.219" height="0.609"/>
		<rect x="25.443" y="30.666" fill-rule="evenodd" clip-rule="evenodd" fill="#FFFFFF" width="0.61" height="0.609"/>
		<rect x="25.443" y="31.733" fill-rule="evenodd" clip-rule="evenodd" fill="#FFFFFF" width="0.61" height="0.609"/>
		<rect x="24.225" y="32.343" fill-rule="evenodd" clip-rule="evenodd" fill="#FFFFFF" width="1.219" height="0.609"/>
		<rect x="23.615" y="30.666" fill-rule="evenodd" clip-rule="evenodd" fill="#FFFFFF" width="0.609" height="1.677"/>
		<rect x="20.262" y="29.601" fill-rule="evenodd" clip-rule="evenodd" fill="#FFFFFF" width="0.61" height="0.608"/>
		<rect x="28.34" y="30.209" fill-rule="evenodd" clip-rule="evenodd" fill="#FFFFFF" width="0.61" height="0.61"/>
		<rect x="28.34" y="32.343" fill-rule="evenodd" clip-rule="evenodd" fill="#FFFFFF" width="0.61" height="0.609"/>
		<polygon fill-rule="evenodd" clip-rule="evenodd" fill="#FFFFFF" points="27.729,31.275 27.121,31.275 27.121,28.989 
			26.511,28.989 26.511,32.952 27.121,32.952 27.121,31.887 27.729,31.887 27.729,32.343 28.34,32.343 28.34,30.819 27.729,30.819 
					"/>
		<rect x="20.262" y="31.733" fill-rule="evenodd" clip-rule="evenodd" fill="#FFFFFF" width="0.61" height="0.609"/>
		<rect x="18.737" y="32.343" fill-rule="evenodd" clip-rule="evenodd" fill="#FFFFFF" width="1.524" height="0.609"/>
		<rect x="18.128" y="29.601" fill-rule="evenodd" clip-rule="evenodd" fill="#FFFFFF" width="0.609" height="2.742"/>
		<rect x="21.48" y="28.989" fill-rule="evenodd" clip-rule="evenodd" fill="#FFFFFF" width="0.61" height="3.963"/>
		<rect x="22.548" y="30.057" fill-rule="evenodd" clip-rule="evenodd" fill="#FFFFFF" width="0.61" height="2.896"/>
		<rect x="22.548" y="28.989" fill-rule="evenodd" clip-rule="evenodd" fill="#FFFFFF" width="0.61" height="0.611"/>
	</g>
</g>
</svg>
