<?xml version="1.0" encoding="utf-8"?>
<!-- Generator: Adobe Illustrator 16.0.0, SVG Export Plug-In . SVG Version: 6.00 Build 0)  -->
<!DOCTYPE svg PUBLIC "-//W3C//DTD SVG 1.1//EN" "http://www.w3.org/Graphics/SVG/1.1/DTD/svg11.dtd">
<svg version="1.1" id="Capa_1" xmlns="http://www.w3.org/2000/svg" xmlns:xlink="http://www.w3.org/1999/xlink" x="0px" y="0px"
	 width="7.519px" height="11px" viewBox="0 0 7.519 11" enable-background="new 0 0 7.519 11" xml:space="preserve">
<path fill="#B2B2B2" d="M7.104,4.7V3.325c0-1.845-1.5-3.347-3.345-3.347c-1.845,0-3.346,1.501-3.346,3.347v1.361
	C0.206,4.766,0,4.944,0,5.299v1.874c0,2.072,1.687,3.759,3.759,3.759c2.072,0,3.759-1.687,3.759-3.759V5.299
	C7.519,4.963,7.318,4.784,7.104,4.7z M4.475,8.724C4.486,8.786,4.443,8.837,4.38,8.837H3.153c-0.063,0-0.106-0.051-0.093-0.113
	l0.196-1.042c-0.15-0.137-0.244-0.333-0.244-0.553c0-0.412,0.335-0.748,0.748-0.748c0.412,0,0.747,0.336,0.747,0.748
	c0,0.214-0.087,0.405-0.231,0.541L4.475,8.724z M5.951,4.633H1.567V3.325c0-1.209,0.983-2.192,2.192-2.192s2.192,0.983,2.192,2.192
	V4.633z"/>
</svg>
