<?xml version="1.0" encoding="utf-8"?>
<!-- Generator: Adobe Illustrator 16.0.0, SVG Export Plug-In . SVG Version: 6.00 Build 0)  -->
<!DOCTYPE svg PUBLIC "-//W3C//DTD SVG 1.1//EN" "http://www.w3.org/Graphics/SVG/1.1/DTD/svg11.dtd">
<svg version="1.1" id="Capa_1" xmlns="http://www.w3.org/2000/svg" xmlns:xlink="http://www.w3.org/1999/xlink" x="0px" y="0px"
	 width="335.271px" height="56px" viewBox="0 0 335.271 56" enable-background="new 0 0 335.271 56" xml:space="preserve">
<g>
	<g>
		<path fill="#FFFFFF" d="M34.481,36.529c-0.172,0.139-0.184,1.211,0.061,1.34c-0.138,0.371-0.138,0.371-0.191,0.623
			c-0.027-0.227-0.034-0.234-0.152-0.371c0.311-0.562,0.095-1.303-0.132-1.275c-0.216,0.025-0.264,0.475-0.292,0.744
			c-0.052-0.158-0.173-0.521-0.435-0.426c-0.351,0.191-0.579,1.002-0.046,1.355c-0.19,0.252-0.19,0.252-0.336,0.547
			c-0.133-0.229-0.133-0.229-0.367-0.34c0.657-0.541,0.323-1.254-0.025-1.293c-0.464-0.055-0.79,0.713-0.483,1.141
			c0.104,0.146,0.247,0.18,0.352,0.201c-0.294,0.182-0.411,0.34-0.522,0.705c-0.263-0.879-0.97-0.312-1.113-0.07
			c-0.284,0.479,0.039,0.973,0.54,0.824c0.362-0.104,0.491-0.441,0.56-0.621c0.032,0.287,0.102,0.395,0.311,0.479
			c-0.226,0.146-0.331,0.266-0.477,0.516c-0.219-0.643-0.931-0.188-1.104,0.104c-0.253,0.418-0.007,0.789,0.445,0.674
			c0.29-0.072,0.466-0.301,0.582-0.455c0.019,0.188,0.063,0.258,0.2,0.322c-0.242,0.191-0.242,0.191-0.458,0.422
			c-0.208-0.594-0.943-0.047-1.081,0.205c-0.179,0.322,0.034,0.561,0.408,0.453c0.291-0.088,0.471-0.293,0.558-0.393
			c-0.017,0.182,0.017,0.24,0.152,0.279c-0.646,0.352-0.76,0.711-0.603,0.752c0.013,0.002,0.03,0.004,0.043,0.006
			c-0.172,0.078-0.614,0.283-0.741,0.488c-0.01,0.016,0.001,0.035,0.021,0.039c0.209,0.012,0.771-0.305,0.896-0.482
			c0.007-0.012,0.008-0.023,0.004-0.035c-0.007-0.018-0.022-0.027-0.038-0.033c-0.006,0-0.013-0.004-0.018-0.004
			c0.194-0.08,0.327-0.162,0.546-0.342c-0.042,0.064-0.059,0.09-0.067,0.117c-0.012,0.029-0.006,0.062,0.011,0.084
			c-0.216,0.129-0.652,0.393-0.807,0.539c-0.008,0.008-0.001,0.023,0.01,0.021c0.014-0.002,0.028-0.006,0.041-0.01
			c0.188-0.086,0.37-0.182,0.548-0.285c0.221-0.156,0.489-0.371,0.841-0.65c-0.094,0.109-0.162,0.188-0.273,0.277
			c0.733-0.533,1.352-1.217,1.815-2.002c0.008-0.033,0.014-0.064,0.021-0.102c0.076-0.113,0.138-0.207,0.207-0.318
			c0.14-0.283,0.26-0.576,0.359-0.883c-0.042,0.086-0.081,0.164-0.114,0.242c-0.005-0.09-0.013-0.162-0.032-0.258
			c0.098-0.189,0.113-0.221,0.196-0.471c-0.002,0.125,0.002,0.209,0.021,0.256c0.137-0.477,0.223-0.975,0.248-1.488
			c0.02-0.383,0.007-0.76-0.038-1.129C34.508,36.537,34.493,36.533,34.481,36.529z M32.097,42.076
			c-0.145,0.102-0.27,0.219-0.375,0.316c0.065-0.135,0.056-0.197-0.032-0.223c0.146-0.105,0.26-0.191,0.394-0.297
			c0.021,0.068,0.029,0.123,0.037,0.184C32.113,42.062,32.104,42.07,32.097,42.076z M32.248,41.164
			c0.112-0.104,0.205-0.191,0.319-0.305c0.031,0.068,0.054,0.127,0.077,0.195c-0.005,0.006-0.011,0.012-0.016,0.02
			c-0.122,0.133-0.219,0.23-0.259,0.27C32.333,41.285,32.298,41.232,32.248,41.164z M32.747,41.799
			c-0.007,0.006-0.016,0.014-0.021,0.02c-0.149,0.146-0.271,0.252-0.324,0.299c0.06-0.107,0.06-0.111,0.059-0.184
			c0.112-0.1,0.202-0.18,0.307-0.275C32.764,41.709,32.759,41.748,32.747,41.799z M33.03,39.877
			c-0.107,0.127-0.107,0.127-0.274,0.354c-0.076-0.135-0.076-0.135-0.219-0.225c0.167-0.125,0.27-0.256,0.351-0.449
			c0.062,0.107,0.108,0.197,0.159,0.303C33.041,39.863,33.033,39.871,33.03,39.877z M33.331,40.803
			c-0.09,0.111-0.162,0.193-0.193,0.23c-0.001-0.051-0.005-0.096-0.01-0.145c0.069-0.082,0.127-0.152,0.193-0.238
			c0.012,0.051,0.017,0.092,0.02,0.143C33.338,40.793,33.333,40.799,33.331,40.803z M33.784,39.584
			c-0.093,0.148-0.167,0.256-0.199,0.303c-0.03-0.066-0.06-0.119-0.099-0.188c0.083-0.137,0.146-0.25,0.221-0.387
			c0.037,0.09,0.062,0.164,0.088,0.25C33.792,39.568,33.787,39.578,33.784,39.584z M34.015,38.244
			c-0.104,0.189-0.104,0.189-0.242,0.516c-0.042-0.195-0.109-0.281-0.25-0.309c0.167-0.186,0.241-0.371,0.266-0.66
			c0.062,0.266,0.13,0.381,0.244,0.422C34.027,38.223,34.02,38.234,34.015,38.244z"/>
	</g>
	<g>
		<path fill="#FFFFFF" d="M29.999,42.709c-0.188,0.209-0.162,0.418,0.146,0.387h0.001c0,0,0-0.002,0.001-0.002l0,0h0.001l0,0l0,0
			c0.296-0.053,0.557-0.252,0.658-0.377c0.134-0.158,0.166-0.381-0.195-0.342c0,0.002,0,0.002,0,0.002l0,0l0,0h-0.001
			C30.253,42.439,30.039,42.664,29.999,42.709z"/>
	</g>
	<g>
		<path fill="#FFFFFF" d="M29.938,40.469c-0.556,0.066-0.769,0.535-0.635,0.805c0.206,0.414,0.978,0.242,1.148-0.252
			C30.561,40.703,30.316,40.441,29.938,40.469z"/>
	</g>
	<g>
		<path fill="#FFFFFF" d="M31.305,37.68L31.305,37.68L31.305,37.68c-0.076,0.016-0.25,0.051-0.402,0.24
			c-0.328,0.412-0.125,1.07,0.446,1.018c0,0,0,0,0.001,0h0.001c0.001,0,0.001,0,0.001,0s0,0,0.002,0h0.001h0.001
			c0.402-0.086,0.528-0.451,0.539-0.652C31.909,38.029,31.759,37.639,31.305,37.68z"/>
	</g>
	<g>
		<path fill="#FFFFFF" d="M33.03,35.895c-0.37,0.17-0.27,0.965,0.061,1.174c0.292,0.186,0.547-0.174,0.459-0.639
			C33.498,36.164,33.303,35.824,33.03,35.895z"/>
	</g>
	<g>
		<path fill="#FFFFFF" d="M30.196,42.025c0.103-0.225-0.03-0.461-0.426-0.445c-0.46,0.041-0.759,0.434-0.638,0.684
			C29.294,42.6,30.009,42.438,30.196,42.025z"/>
	</g>
	<g>
		<path fill="#FFFFFF" d="M33.673,35.613c-0.026,0.018-0.065,0.045-0.096,0.135c-0.119,0.344,0.11,1.189,0.428,1.053
			c0-0.002,0-0.002,0-0.002l0,0l0,0c0.182-0.133,0.145-0.512,0.101-0.693C34.042,35.852,33.867,35.529,33.673,35.613z"/>
	</g>
	<g>
		<path fill="#FFFFFF" d="M30.286,43.262c0.021-0.027,0.112-0.166-0.165-0.135H30.12c-0.3,0.055-0.557,0.23-0.644,0.34
			c-0.022,0.029-0.131,0.178,0.113,0.148h0.001l0,0l0,0c0,0,0,0,0.002,0c0.222-0.039,0.459-0.156,0.586-0.254
			C30.238,43.316,30.269,43.283,30.286,43.262z"/>
	</g>
	<g>
		<path fill="#FFFFFF" d="M30.65,43.396c-0.188,0.066-0.369,0.146-0.555,0.223c0.197-0.07,0.389-0.146,0.578-0.23
			C30.668,43.389,30.662,43.393,30.65,43.396L30.65,43.396z"/>
	</g>
	<g>
		<path fill="#FFFFFF" d="M32.178,36.15L32.178,36.15L32.178,36.15L32.178,36.15c-0.456,0.139-0.444,0.867-0.083,1.133
			c0.347,0.25,0.736-0.1,0.659-0.594C32.715,36.436,32.51,36.098,32.178,36.15z"/>
	</g>
	<g>
		<path fill="#FFFFFF" d="M30.018,39.199L30.018,39.199c-0.002,0-0.002,0-0.002,0h-0.001l0,0c0,0,0,0-0.001,0s-0.001,0-0.002,0
			c-0.08,0.01-0.268,0.039-0.441,0.209c-0.37,0.371-0.218,0.977,0.379,0.959l0,0l0,0h0.001c0.446-0.059,0.621-0.396,0.651-0.568
			C30.653,39.502,30.445,39.186,30.018,39.199z"/>
	</g>
	<g>
		<path fill="#FFFFFF" d="M34.093,35.312L34.093,35.312c-0.016,0.021-0.038,0.049-0.043,0.139c-0.032,0.342,0.212,1.152,0.389,1.008
			c0.03-0.043,0.044-0.109,0.048-0.186c-0.043-0.27-0.104-0.533-0.179-0.793C34.239,35.348,34.159,35.256,34.093,35.312z"/>
	</g>
	<g>
		<path fill="#FFFFFF" d="M29.829,42.857c0.118-0.18,0.034-0.354-0.309-0.34c-0.429,0.049-0.667,0.336-0.618,0.508
			C28.982,43.301,29.613,43.188,29.829,42.857z"/>
	</g>
	<g>
		<path fill="#FFFFFF" d="M30.217,43.535c-0.01-0.006-0.025-0.004-0.072,0.006c-0.177,0.043-0.554,0.199-0.72,0.268
			c0.213-0.049,0.422-0.105,0.627-0.176C30.136,43.596,30.217,43.557,30.217,43.535z"/>
	</g>
	<g>
		<path fill="#FFFFFF" d="M30.006,37.859L30.006,37.859C30.005,37.859,30.005,37.859,30.006,37.859L30.006,37.859
			c-0.001,0-0.001,0-0.002,0h-0.001c-0.001,0-0.001,0-0.001,0c-0.083,0.01-0.257,0.031-0.411,0.195c-0.318,0.338-0.199,1.01,0.424,1
			l0,0c0,0,0,0,0.001,0l0,0c0,0,0,0,0.001,0c0,0,0,0,0.001,0l0,0h0.001c0,0,0.001,0,0.001-0.002
			c0.436-0.059,0.578-0.414,0.592-0.594C30.632,38.205,30.456,37.85,30.006,37.859z"/>
	</g>
	<g>
		<path fill="#FFFFFF" d="M30.889,37.42c0.376,0.311,0.883,0.008,0.839-0.494c-0.02-0.234-0.204-0.59-0.604-0.557h-0.001H31.12
			C30.614,36.475,30.538,37.131,30.889,37.42z"/>
	</g>
	<g>
		<path fill="#FFFFFF" d="M29.199,43.246c-0.341,0.035-0.54,0.217-0.549,0.326c-0.015,0.213,0.515,0.111,0.735-0.096
			c0.007-0.006,0.017-0.018,0.024-0.023C29.494,43.357,29.486,43.23,29.199,43.246z"/>
	</g>
	<g>
		<path fill="#FFFFFF" d="M29.631,43.688c0.015-0.02,0.009-0.043-0.103-0.027c-0.225,0.033-0.608,0.201-0.635,0.25
			c0.137-0.02,0.271-0.045,0.407-0.072c0.053-0.018,0.106-0.035,0.153-0.053C29.55,43.75,29.613,43.713,29.631,43.688z"/>
	</g>
	<g>
		<path fill="#FFFFFF" d="M33.086,35.156c-0.086-0.227-0.317-0.516-0.549-0.453l0,0c-0.301,0.121-0.106,0.881,0.266,1.041
			C33.084,35.865,33.238,35.547,33.086,35.156z"/>
	</g>
	<g>
		<path fill="#FFFFFF" d="M28.578,40.576c-0.077,0.006-0.256,0.018-0.419,0.152c-0.342,0.287-0.199,0.789,0.349,0.803h0.001l0,0
			h0.001l0,0c0.399-0.025,0.565-0.279,0.599-0.428C29.177,40.816,28.929,40.568,28.578,40.576z"/>
	</g>
	<g>
		<path fill="#FFFFFF" d="M33.118,34.445c-0.018,0.012-0.035,0.025-0.05,0.059c-0.124,0.26,0.259,1.088,0.55,0.967l0,0
			c0.153-0.109,0.068-0.42-0.007-0.586C33.51,34.662,33.292,34.377,33.118,34.445z"/>
	</g>
	<g>
		<path fill="#FFFFFF" d="M27.973,42.271c0.188,0.326,0.853,0.23,0.985-0.141c0.087-0.24-0.133-0.455-0.462-0.447
			C28.011,41.711,27.846,42.055,27.973,42.271z"/>
	</g>
	<g>
		<path fill="#FFFFFF" d="M28.632,39.316L28.632,39.316H28.63l0,0h-0.001c-0.001,0-0.001,0-0.001,0h-0.001
			c-0.582,0.039-0.73,0.602-0.484,0.891c0.311,0.361,0.978,0.17,1.05-0.305C29.229,39.666,29.08,39.332,28.632,39.316z"/>
	</g>
	<g>
		<path fill="#FFFFFF" d="M31.763,34.932c-0.354,0.111-0.285,0.791,0.105,1.01c0.324,0.184,0.599-0.1,0.487-0.504
			C32.268,35.119,31.99,34.883,31.763,34.932z"/>
	</g>
	<g>
		<path fill="#FFFFFF" d="M28.761,42.938c0.066-0.158-0.06-0.33-0.377-0.334c-0.32,0.006-0.566,0.217-0.491,0.418
			C28.004,43.311,28.628,43.25,28.761,42.938z"/>
	</g>
	<g>
		<path fill="#FFFFFF" d="M34.023,35.15L34.023,35.15c0.082-0.115-0.04-0.43-0.114-0.576c-0.126-0.248-0.317-0.473-0.408-0.404l0,0
			c-0.008,0.014-0.019,0.027-0.021,0.061C33.447,34.49,33.855,35.281,34.023,35.15z"/>
	</g>
	<g>
		<path fill="#FFFFFF" d="M29.983,37.65L29.983,37.65L29.983,37.65c0.002,0,0.002,0,0.002,0c0.001,0,0.001,0,0.001,0h0.001h0.001
			c0.404-0.053,0.507-0.385,0.502-0.553c-0.002-0.236-0.188-0.566-0.594-0.561c0,0,0,0-0.001,0h-0.001c0,0,0,0-0.001,0
			c0,0,0,0-0.001,0s-0.001,0-0.001,0H29.89c-0.065,0.008-0.199,0.025-0.323,0.15C29.263,36.992,29.393,37.664,29.983,37.65z"/>
	</g>
	<g>
		<path fill="#FFFFFF" d="M28.949,43.82c0.03-0.031,0.042-0.084-0.137-0.072c-0.199,0.016-0.432,0.119-0.461,0.184
			c-0.007,0.018,0.004,0.027,0.027,0.031c0.079-0.006,0.158-0.012,0.234-0.02c0.098-0.02,0.199-0.049,0.264-0.076
			C28.91,43.852,28.934,43.836,28.949,43.82z"/>
	</g>
	<g>
		<path fill="#FFFFFF" d="M28.63,37.969L28.63,37.969L28.63,37.969L28.63,37.969c-0.002,0-0.002,0-0.002,0
			c-0.521,0.039-0.709,0.586-0.437,0.914c0.314,0.377,0.963,0.168,1.006-0.328C29.22,38.277,29.03,37.979,28.63,37.969z"/>
	</g>
	<g>
		<path fill="#FFFFFF" d="M31.079,36.164L31.079,36.164h0.002h0.001c0.322-0.068,0.353-0.369,0.318-0.537
			c-0.045-0.221-0.254-0.521-0.583-0.496h-0.001l0,0h-0.001l0,0h-0.001h-0.001c-0.053,0.012-0.136,0.029-0.215,0.117
			C30.32,35.559,30.579,36.211,31.079,36.164z"/>
	</g>
	<g>
		<path fill="#FFFFFF" d="M28.242,43.309c-0.205,0.012-0.311,0.084-0.354,0.125c-0.118,0.109-0.078,0.275,0.22,0.279l0,0h0.001l0,0
			l0,0h0.001h0.001c0.232-0.012,0.362-0.113,0.401-0.172C28.601,43.418,28.468,43.305,28.242,43.309z"/>
	</g>
	<g>
		<path fill="#FFFFFF" d="M33.715,34.08c0.06,0.146,0.16,0.338,0.252,0.49C33.891,34.4,33.806,34.24,33.715,34.08z"/>
	</g>
	<g>
		<path fill="#FFFFFF" d="M32.387,33.406c-0.019,0.012-0.025,0.021-0.028,0.027c-0.095,0.18,0.392,0.918,0.644,0.818
			c0.116-0.088,0-0.346-0.106-0.498C32.75,33.547,32.513,33.354,32.387,33.406z"/>
	</g>
	<g>
		<path fill="#FFFFFF" d="M32.431,34.01c-0.11-0.186-0.351-0.43-0.542-0.383c0,0,0,0-0.001,0h-0.001h-0.001
			c-0.005,0.004-0.015,0.008-0.021,0.01c-0.216,0.131,0.111,0.771,0.443,0.867C32.548,34.57,32.613,34.314,32.431,34.01z"/>
	</g>
	<g>
		<path fill="#FFFFFF" d="M27.239,41.711c-0.41,0.004-0.573,0.303-0.397,0.533c0.229,0.303,0.809,0.234,0.874-0.098
			C27.758,41.926,27.536,41.723,27.239,41.711z"/>
	</g>
	<g>
		<path fill="#FFFFFF" d="M27.231,40.617L27.231,40.617h-0.002h-0.001l0,0l0,0c0,0,0,0-0.001,0c-0.47,0.008-0.637,0.396-0.415,0.672
			c0.275,0.338,0.889,0.223,0.937-0.178C27.77,40.936,27.647,40.646,27.231,40.617z"/>
	</g>
	<g>
		<path fill="#FFFFFF" d="M29.859,36.277L29.859,36.277C29.86,36.277,29.86,36.277,29.859,36.277c0.342-0.047,0.41-0.342,0.4-0.486
			c-0.015-0.215-0.198-0.518-0.555-0.512c-0.056,0.008-0.169,0.023-0.269,0.131C29.184,35.684,29.335,36.291,29.859,36.277z"/>
	</g>
	<g>
		<path fill="#FFFFFF" d="M28.628,37.684L28.628,37.684c0.383-0.027,0.497-0.32,0.503-0.492c0.01-0.223-0.147-0.539-0.528-0.551
			c-0.151,0.004-0.26,0.072-0.326,0.129C27.936,37.07,28.088,37.666,28.628,37.684z"/>
	</g>
	<g>
		<path fill="#FFFFFF" d="M31.225,33.824C31.224,33.824,31.224,33.824,31.225,33.824l-0.001,0.002
			c-0.008,0.002-0.02,0.004-0.028,0.008c-0.272,0.109-0.063,0.715,0.299,0.861c0.278,0.111,0.438-0.137,0.288-0.461
			C31.697,34.049,31.459,33.791,31.225,33.824z"/>
	</g>
	<g>
		<path fill="#FFFFFF" d="M27.243,39.355L27.243,39.355L27.243,39.355l-0.001-0.002l0,0l0,0c-0.066,0.002-0.203,0.004-0.342,0.111
			c-0.35,0.262-0.212,0.832,0.325,0.881h0.001h0.001c0,0,0,0,0.001,0h0.001h0.001c0.378-0.006,0.515-0.268,0.535-0.418
			C27.795,39.709,27.652,39.387,27.243,39.355z"/>
	</g>
	<g>
		<path fill="#FFFFFF" d="M27.266,42.625L27.266,42.625L27.266,42.625L27.266,42.625h-0.002c-0.001,0-0.001,0-0.001,0
			c-0.34,0.004-0.475,0.215-0.345,0.387c0.19,0.252,0.709,0.215,0.761-0.057C27.702,42.832,27.589,42.646,27.266,42.625z"/>
	</g>
	<g>
		<path fill="#FFFFFF" d="M33.362,33.969L33.362,33.969v-0.002l0,0c0.058-0.09-0.087-0.336-0.198-0.479
			c-0.154-0.197-0.37-0.379-0.447-0.32l0,0c-0.005,0.006-0.011,0.018-0.012,0.027C32.68,33.375,33.205,34.078,33.362,33.969z"/>
	</g>
	<g>
		<path fill="#FFFFFF" d="M28.252,43.902c0.043-0.043,0.019-0.107-0.178-0.107h-0.002c-0.192,0.008-0.268,0.07-0.285,0.09
			c-0.034,0.031-0.039,0.074,0.044,0.094c0.07,0.002,0.141,0.002,0.212,0c0.098-0.014,0.166-0.041,0.197-0.064
			C28.243,43.91,28.249,43.908,28.252,43.902z"/>
	</g>
	<g>
		<path fill="#FFFFFF" d="M27.273,38.008L27.273,38.008L27.273,38.008h-0.002l0,0l0,0c-0.063,0.002-0.192,0.002-0.326,0.104
			c-0.351,0.27-0.229,0.869,0.301,0.918l0,0h0.001h0.001l0,0c0.371-0.008,0.505-0.281,0.526-0.443
			C27.806,38.33,27.625,38.039,27.273,38.008z"/>
	</g>
	<g>
		<path fill="#FFFFFF" d="M30.404,33.99L30.404,33.99L30.404,33.99h-0.002l0,0l0,0c-0.035,0.006-0.093,0.021-0.143,0.076
			c-0.201,0.225,0.018,0.844,0.474,0.807l0,0l0,0c0-0.004,0-0.004,0-0.004h0.001c0.267-0.059,0.251-0.324,0.206-0.461
			C30.878,34.229,30.666,33.969,30.404,33.99z"/>
	</g>
	<g>
		<path fill="#FFFFFF" d="M32.865,32.924c0,0.016,0,0.027,0.02,0.066c0.082,0.172,0.453,0.623,0.578,0.678
			c-0.177-0.268-0.373-0.52-0.584-0.754C32.872,32.914,32.867,32.918,32.865,32.924z"/>
	</g>
	<g>
		<path fill="#FFFFFF" d="M27.303,43.326L27.303,43.326h-0.002c-0.28,0-0.35,0.141-0.274,0.236c0.136,0.186,0.568,0.174,0.607-0.014
			C27.654,43.469,27.563,43.342,27.303,43.326z"/>
	</g>
	<g>
		<path fill="#FFFFFF" d="M29.006,35.873c0.003-0.199-0.138-0.486-0.465-0.498l0,0H28.54c-0.001,0-0.001,0-0.001,0l0,0
			c0,0,0,0-0.001,0l0,0c-0.413,0.027-0.534,0.527-0.282,0.789C28.529,36.449,29,36.266,29.006,35.873z"/>
	</g>
	<g>
		<path fill="#FFFFFF" d="M27.31,36.686c-0.44-0.01-0.612,0.518-0.357,0.797c0.267,0.297,0.759,0.137,0.812-0.264
			C27.79,37.014,27.667,36.713,27.31,36.686z"/>
	</g>
	<g>
		<path fill="#FFFFFF" d="M29.372,34.885c0.264,0.189,0.624,0.035,0.557-0.332c-0.043-0.244-0.27-0.447-0.484-0.434
			C29.11,34.168,29.062,34.662,29.372,34.885z"/>
	</g>
	<g>
		<path fill="#FFFFFF" d="M25.966,41.373L25.966,41.373L25.966,41.373c0.001,0,0.001,0,0.002,0c0.382,0.016,0.41-0.273,0.412-0.307
			c0.015-0.236-0.205-0.457-0.479-0.48c-0.051-0.004-0.17-0.006-0.281,0.072C25.344,40.855,25.506,41.314,25.966,41.373z"/>
	</g>
	<g>
		<path fill="#FFFFFF" d="M31.084,32.666L31.084,32.666L31.084,32.666c-0.012,0.006-0.022,0.012-0.028,0.02
			c-0.11,0.133,0.361,0.734,0.63,0.672h0.002c0.122-0.061,0.015-0.264-0.087-0.383C31.474,32.824,31.225,32.633,31.084,32.666z"/>
	</g>
	<g>
		<path fill="#FFFFFF" d="M26.108,42.342C26.109,42.342,26.109,42.342,26.108,42.342c0.001,0,0.001,0,0.002,0
			c0.277,0.014,0.354-0.154,0.355-0.252c0.002-0.135-0.121-0.361-0.461-0.404c-0.001,0-0.001,0-0.001,0l0,0h-0.001
			c-0.048-0.002-0.16-0.008-0.255,0.057C25.512,41.896,25.693,42.289,26.108,42.342z"/>
	</g>
	<g>
		<path fill="#FFFFFF" d="M32.127,33.152c0.11-0.002,0.068-0.176-0.147-0.391c-0.142-0.141-0.391-0.312-0.493-0.271
			c-0.003,0.004-0.008,0.006-0.01,0.01C31.386,32.613,31.927,33.158,32.127,33.152z"/>
	</g>
	<g>
		<path fill="#FFFFFF" d="M27.597,43.922c0.016-0.041-0.06-0.109-0.241-0.119h-0.001h-0.001c-0.175,0-0.219,0.057-0.195,0.098
			c0.009,0.018,0.027,0.029,0.051,0.041c0.104,0.012,0.211,0.021,0.318,0.027C27.563,43.959,27.589,43.941,27.597,43.922z"/>
	</g>
	<g>
		<path fill="#FFFFFF" d="M30.555,32.824L30.555,32.824L30.555,32.824c-0.002,0-0.002,0-0.002,0
			c-0.011,0.004-0.027,0.01-0.037,0.018c-0.149,0.109,0.131,0.621,0.438,0.684c0.185,0.041,0.267-0.125,0.099-0.373
			C30.955,33.008,30.729,32.803,30.555,32.824z"/>
	</g>
	<g>
		<path fill="#FFFFFF" d="M25.557,40.061c0.272,0.289,0.746,0.166,0.78-0.195c0.02-0.189-0.113-0.482-0.46-0.529l0,0
			c0,0,0,0-0.002,0h-0.001C25.434,39.318,25.294,39.785,25.557,40.061z"/>
	</g>
	<g>
		<path fill="#FFFFFF" d="M26.593,42.908c-0.01-0.107-0.15-0.277-0.426-0.309c-0.021-0.002-0.049-0.004-0.08-0.002
			c-0.237,0.018-0.28,0.215-0.083,0.377C26.264,43.188,26.611,43.111,26.593,42.908z"/>
	</g>
	<g>
		<path fill="#FFFFFF" d="M32.433,32.912c0.081-0.014,0-0.176-0.223-0.367c-0.169-0.15-0.4-0.287-0.459-0.248
			C31.686,32.391,32.286,32.932,32.433,32.912z"/>
	</g>
	<g>
		<path fill="#FFFFFF" d="M29.896,32.963c-0.035,0.004-0.062,0.018-0.085,0.041c-0.148,0.158,0.088,0.688,0.448,0.658l0,0
			c0.2-0.045,0.151-0.26,0.096-0.367C30.282,33.146,30.09,32.945,29.896,32.963z"/>
	</g>
	<g>
		<path fill="#FFFFFF" d="M26.339,38.512c0.024-0.225-0.114-0.484-0.42-0.527c-0.433-0.014-0.594,0.469-0.35,0.752
			C25.829,39.039,26.296,38.9,26.339,38.512z"/>
	</g>
	<g>
		<path fill="#FFFFFF" d="M26.388,43.297L26.388,43.297L26.388,43.297h-0.002c-0.036-0.004-0.124-0.006-0.178,0.037
			c-0.103,0.088,0.081,0.271,0.352,0.303l0,0l0,0h0.001l0,0c0.208,0.01,0.193-0.1,0.189-0.121
			C26.732,43.441,26.609,43.32,26.388,43.297z"/>
	</g>
	<g>
		<path fill="#FFFFFF" d="M31.91,32.082c0,0.002,0,0.006,0,0.008c0.012,0.055,0.211,0.234,0.395,0.375
			c0.083,0.066,0.277,0.209,0.302,0.162c0,0-0.001-0.002-0.001-0.004c-0.187-0.186-0.385-0.359-0.592-0.521
			C31.959,32.076,31.92,32.064,31.91,32.082z"/>
	</g>
	<g>
		<path fill="#FFFFFF" d="M28.441,34.201L28.441,34.201c-0.35,0.029-0.415,0.5-0.172,0.705c0.241,0.203,0.584,0.025,0.563-0.297
			C28.823,34.453,28.691,34.211,28.441,34.201L28.441,34.201z"/>
	</g>
	<g>
		<path fill="#FFFFFF" d="M27.047,36.119c0.229,0.27,0.669,0.113,0.7-0.248c0.016-0.178-0.093-0.438-0.381-0.463
			C26.981,35.418,26.832,35.871,27.047,36.119z"/>
	</g>
	<g>
		<path fill="#FFFFFF" d="M29.079,33.074c-0.203,0.076-0.167,0.502,0.113,0.637c0.222,0.107,0.402-0.062,0.33-0.307
			c-0.043-0.145-0.204-0.344-0.396-0.342C29.113,33.064,29.092,33.068,29.079,33.074z"/>
	</g>
	<g>
		<path fill="#FFFFFF" d="M26.39,37.15c0.029-0.18-0.062-0.449-0.359-0.492c-0.389-0.012-0.562,0.443-0.354,0.703
			C25.898,37.635,26.333,37.51,26.39,37.15z"/>
	</g>
	<g>
		<path fill="#FFFFFF" d="M26.661,43.777L26.661,43.777c-0.001,0-0.001,0-0.001-0.002l0,0l0,0c-0.025,0-0.093-0.006-0.118,0.02
			c-0.013,0.012-0.013,0.025-0.001,0.041c0.138,0.029,0.275,0.055,0.416,0.074c-0.001-0.006-0.003-0.012-0.007-0.016
			C26.924,43.857,26.824,43.795,26.661,43.777z"/>
	</g>
	<g>
		<path fill="#FFFFFF" d="M24.65,40.498c-0.044-0.004-0.117-0.014-0.193,0.031c-0.245,0.139-0.101,0.582,0.292,0.66l0,0h0.001l0,0
			h0.001c0,0,0,0,0.001,0l0,0c0,0,0,0,0.001,0c0.309,0.031,0.316-0.219,0.316-0.246C25.07,40.744,24.871,40.529,24.65,40.498z"/>
	</g>
	<g>
		<path fill="#FFFFFF" d="M30.143,31.879c-0.031,0.07,0.429,0.523,0.621,0.479h0.001h0.001c0.079-0.043-0.051-0.188-0.158-0.273
			c-0.144-0.119-0.368-0.234-0.449-0.219C30.147,31.871,30.145,31.877,30.143,31.879z"/>
	</g>
	<g>
		<path fill="#FFFFFF" d="M25.267,41.977c-0.013-0.127-0.155-0.324-0.423-0.377c-0.027-0.002-0.062-0.006-0.098,0
			c-0.22,0.029-0.208,0.287,0.017,0.467C25.024,42.271,25.291,42.188,25.267,41.977z"/>
	</g>
	<g>
		<path fill="#FFFFFF" d="M31.11,32.199c0.076-0.016-0.019-0.137-0.2-0.262c-0.163-0.109-0.396-0.221-0.462-0.199h-0.002
			c0,0-0.002,0.002-0.003,0.004C30.397,31.826,30.982,32.227,31.11,32.199z"/>
	</g>
	<g>
		<path fill="#FFFFFF" d="M29.777,31.98c-0.005,0.002-0.015,0.006-0.02,0.014c-0.081,0.078,0.262,0.482,0.479,0.502
			c0.115,0.01,0.125-0.107-0.032-0.275C30.083,32.098,29.87,31.965,29.777,31.98z"/>
	</g>
	<g>
		<path fill="#FFFFFF" d="M24.609,40.023L24.609,40.023L24.609,40.023C24.61,40.023,24.61,40.023,24.609,40.023L24.609,40.023
			c0.264,0.021,0.348-0.174,0.356-0.291c0.011-0.168-0.102-0.426-0.386-0.48c-0.051-0.006-0.125-0.014-0.209,0.037
			C24.098,39.449,24.203,39.949,24.609,40.023z"/>
	</g>
	<g>
		<path fill="#FFFFFF" d="M31.353,32.016v-0.002c0.021-0.043-0.125-0.154-0.273-0.244c-0.17-0.098-0.392-0.191-0.433-0.166
			c0,0.004-0.001,0.004-0.003,0.006C30.642,31.664,31.265,32.076,31.353,32.016z"/>
	</g>
	<g>
		<path fill="#FFFFFF" d="M25.544,42.809c-0.03-0.092-0.165-0.248-0.399-0.289c-0.079-0.01-0.125,0.006-0.148,0.02
			c-0.148,0.084,0.063,0.375,0.373,0.432l0,0c0,0,0,0,0.001,0l0,0h0.001C25.598,42.99,25.55,42.828,25.544,42.809z"/>
	</g>
	<g>
		<path fill="#FFFFFF" d="M27.722,34.621c0.011-0.143-0.058-0.361-0.294-0.381l0,0h-0.001l0,0c-0.001,0-0.001,0-0.001,0l0,0
			c-0.312,0.012-0.426,0.422-0.238,0.615C27.378,35.057,27.698,34.918,27.722,34.621z"/>
	</g>
	<g>
		<path fill="#FFFFFF" d="M24.963,38.385c0.022-0.164-0.062-0.422-0.324-0.479h-0.001l0,0l0,0l0,0l0,0h-0.001l0,0
			c-0.352-0.029-0.489,0.371-0.296,0.631C24.537,38.807,24.915,38.711,24.963,38.385z"/>
	</g>
	<g>
		<path fill="#FFFFFF" d="M25.861,36.002c0.172,0.248,0.551,0.139,0.618-0.176c0.044-0.215-0.086-0.416-0.278-0.434
			C25.875,35.383,25.706,35.771,25.861,36.002z"/>
	</g>
	<g>
		<path fill="#FFFFFF" d="M28.318,33.137c-0.031,0.002-0.077,0.006-0.128,0.053c-0.163,0.152-0.103,0.555,0.199,0.57h0.001l0,0
			h0.001h0.001l0,0c0.197-0.016,0.232-0.201,0.223-0.295C28.6,33.287,28.461,33.133,28.318,33.137z"/>
	</g>
	<g>
		<path fill="#FFFFFF" d="M29.31,32.084c-0.008,0-0.02,0.004-0.027,0.008c-0.112,0.066,0.096,0.443,0.323,0.496
			c0.138,0.031,0.197-0.078,0.072-0.258C29.578,32.188,29.402,32.068,29.31,32.084z"/>
	</g>
	<g>
		<path fill="#FFFFFF" d="M25.537,43.229c-0.028-0.004-0.074-0.008-0.104,0.008c-0.091,0.051,0.078,0.215,0.287,0.277
			c0.149,0.045,0.23,0.012,0.182-0.072C25.852,43.352,25.673,43.248,25.537,43.229z"/>
	</g>
	<g>
		<path fill="#FFFFFF" d="M31.186,31.719c0.176,0.09,0.265,0.121,0.276,0.102c0-0.002,0-0.002,0-0.002
			c-0.008-0.045-0.163-0.145-0.304-0.221c-0.178-0.094-0.37-0.16-0.388-0.137v0.002c0.002,0,0.002,0.004,0.002,0.004
			C30.792,31.506,31.052,31.648,31.186,31.719z"/>
	</g>
	<g>
		<path fill="#FFFFFF" d="M28.759,32.162c-0.019,0.002-0.036,0.006-0.054,0.021c-0.104,0.102,0.03,0.469,0.268,0.467l0,0l0,0
			c0.125-0.021,0.115-0.154,0.077-0.242C29.007,32.305,28.881,32.162,28.759,32.162z"/>
	</g>
	<g>
		<path fill="#FFFFFF" d="M24.807,36.584c-0.284-0.037-0.488,0.334-0.321,0.582c0.164,0.242,0.515,0.152,0.578-0.148
			C25.096,36.867,25.038,36.633,24.807,36.584z"/>
	</g>
	<g>
		<path fill="#FFFFFF" d="M27.702,33.479c0.021-0.158-0.074-0.305-0.201-0.311c-0.218,0.006-0.312,0.318-0.189,0.473
			C27.439,33.799,27.672,33.703,27.702,33.479z"/>
	</g>
	<g>
		<path fill="#FFFFFF" d="M26.607,34.594c0.053-0.182-0.037-0.35-0.192-0.363c-0.244-0.008-0.396,0.301-0.299,0.486
			C26.229,34.93,26.531,34.852,26.607,34.594z"/>
	</g>
	<g>
		<path fill="#FFFFFF" d="M24.147,41.791c-0.028-0.104-0.158-0.273-0.351-0.324l0,0h-0.001h-0.001
			c-0.029-0.004-0.079-0.012-0.119,0.014c-0.133,0.084,0.045,0.4,0.315,0.475h0.001h0.001
			C24.197,41.986,24.153,41.811,24.147,41.791z"/>
	</g>
	<g>
		<path fill="#FFFFFF" d="M23.848,40.748c-0.009-0.121-0.118-0.32-0.328-0.379l0,0l0,0h-0.001h-0.001l0,0
			c-0.022-0.004-0.051-0.01-0.078-0.006c-0.195,0.023-0.173,0.318,0.037,0.492C23.662,41.012,23.864,40.951,23.848,40.748z"/>
	</g>
	<g>
		<path fill="#FFFFFF" d="M29.693,31.555c0.034-0.012-0.026-0.074-0.182-0.158c-0.128-0.07-0.32-0.146-0.368-0.141
			c0,0.002-0.001,0.002-0.002,0.002C29.131,31.312,29.628,31.58,29.693,31.555z"/>
	</g>
	<g>
		<path fill="#FFFFFF" d="M29.926,31.453c0.024-0.016-0.062-0.08-0.229-0.152c-0.154-0.066-0.352-0.127-0.386-0.117
			c0,0-0.001,0.002-0.003,0.002C29.323,31.236,29.883,31.479,29.926,31.453z"/>
	</g>
	<g>
		<path fill="#FFFFFF" d="M23.689,39.51c-0.001-0.174-0.142-0.365-0.295-0.396c-0.015-0.004-0.035-0.006-0.05-0.006
			c-0.229,0.01-0.276,0.346-0.076,0.545C23.451,39.84,23.691,39.758,23.689,39.51z"/>
	</g>
	<g>
		<path fill="#FFFFFF" d="M29.376,31.643L29.376,31.643L29.376,31.643c0.049-0.02-0.026-0.1-0.123-0.166
			c-0.104-0.072-0.273-0.158-0.33-0.156c-0.001,0.002-0.002,0.002-0.004,0.004C28.887,31.352,29.249,31.656,29.376,31.643z"/>
	</g>
	<g>
		<path fill="#FFFFFF" d="M24.228,42.398c-0.021-0.004-0.058-0.01-0.086,0c-0.115,0.051,0.081,0.287,0.299,0.367
			c0.14,0.049,0.181-0.016,0.138-0.104C24.523,42.553,24.356,42.428,24.228,42.398z"/>
	</g>
	<g>
		<path fill="#FFFFFF" d="M30.068,31.334c0.007-0.021-0.127-0.084-0.257-0.129c-0.161-0.062-0.355-0.111-0.385-0.102l0,0
			C29.423,31.137,30.022,31.354,30.068,31.334z"/>
	</g>
	<g>
		<path fill="#FFFFFF" d="M28.173,32.213L28.173,32.213L28.173,32.213c-0.018,0.002-0.04,0.004-0.064,0.029
			c-0.104,0.1-0.059,0.404,0.14,0.418h0.001h0.001l0,0c0.126-0.014,0.137-0.145,0.124-0.217
			C28.359,32.355,28.284,32.219,28.173,32.213z"/>
	</g>
	<g>
		<path fill="#FFFFFF" d="M24.933,35.941L24.933,35.941L24.933,35.941L24.933,35.941h0.002c0,0,0,0,0,0.002
			c0.193,0.012,0.295-0.146,0.327-0.244c0.039-0.129,0.01-0.33-0.182-0.369c-0.058-0.006-0.112,0.006-0.166,0.035
			C24.679,35.5,24.648,35.885,24.933,35.941z"/>
	</g>
	<g>
		<path fill="#FFFFFF" d="M23.682,38.18c0.03-0.184-0.075-0.371-0.228-0.406c-0.008,0-0.017-0.004-0.024-0.004
			c-0.22-0.018-0.366,0.314-0.173,0.543C23.406,38.492,23.646,38.416,23.682,38.18z"/>
	</g>
	<g>
		<path fill="#FFFFFF" d="M28.979,31.705c0.064,0.004,0.04-0.076-0.055-0.166c-0.067-0.066-0.201-0.156-0.261-0.154
			c-0.004,0-0.01,0.002-0.012,0.004C28.61,31.432,28.858,31.705,28.979,31.705z"/>
	</g>
	<g>
		<path fill="#FFFFFF" d="M24.787,43.127c-0.025-0.006-0.058-0.01-0.069,0.004c-0.004,0.006-0.004,0.012-0.003,0.018
			c0.139,0.078,0.281,0.15,0.427,0.219c-0.001-0.016-0.015-0.037-0.041-0.062C25.05,43.254,24.919,43.158,24.787,43.127z"/>
	</g>
	<g>
		<path fill="#FFFFFF" d="M28.35,31.434c-0.003,0.002-0.009,0.004-0.012,0.006c-0.059,0.037,0.062,0.27,0.179,0.295
			c0.061,0.016,0.083-0.045,0.021-0.145C28.491,31.516,28.4,31.432,28.35,31.434z"/>
	</g>
	<g>
		<path fill="#FFFFFF" d="M26.79,33.422c0.024-0.092,0.017-0.234-0.113-0.254h-0.001l0,0l0,0c-0.171,0-0.311,0.242-0.221,0.385
			C26.533,33.688,26.735,33.609,26.79,33.422z"/>
	</g>
	<g>
		<path fill="#FFFFFF" d="M23.832,36.828c0.052-0.164-0.021-0.328-0.155-0.357c-0.237-0.035-0.364,0.264-0.247,0.457
			C23.543,37.117,23.771,37.027,23.832,36.828z"/>
	</g>
	<g>
		<path fill="#FFFFFF" d="M30.156,31.166c0,0,0,0,0.002,0c-0.018-0.021-0.13-0.061-0.255-0.09c-0.123-0.031-0.276-0.061-0.292-0.049
			C29.658,31.062,30.095,31.186,30.156,31.166z"/>
	</g>
	<g>
		<path fill="#FFFFFF" d="M25.538,34.475c0.051-0.129,0.026-0.271-0.104-0.291c-0.2-0.016-0.348,0.246-0.269,0.396
			C25.243,34.729,25.459,34.666,25.538,34.475z"/>
	</g>
	<g>
		<path fill="#FFFFFF" d="M27.691,32.451c0.009-0.076-0.016-0.191-0.112-0.203l0,0l0,0c-0.132,0.008-0.203,0.234-0.107,0.336
			C27.551,32.672,27.676,32.596,27.691,32.451z"/>
	</g>
	<g>
		<path fill="#FFFFFF" d="M28.581,30.949c0,0,0,0,0-0.002c-0.015-0.012-0.104-0.035-0.21-0.059
			c-0.113-0.023-0.248-0.047-0.271-0.049C28.102,30.842,28.555,30.951,28.581,30.949L28.581,30.949z"/>
	</g>
	<g>
		<path fill="#FFFFFF" d="M22.535,40.189c-0.02-0.004-0.036-0.008-0.059-0.002c-0.122,0.031-0.045,0.293,0.119,0.398
			c0.105,0.068,0.185,0.02,0.165-0.105C22.739,40.357,22.638,40.223,22.535,40.189z"/>
	</g>
	<g>
		<path fill="#FFFFFF" d="M28.495,30.984c-0.012-0.008-0.085-0.037-0.178-0.064c-0.109-0.033-0.237-0.062-0.254-0.062
			C28.065,30.857,28.474,30.996,28.495,30.984z"/>
	</g>
	<g>
		<path fill="#FFFFFF" d="M22.904,41.301c-0.016-0.004-0.042-0.01-0.062-0.002c-0.082,0.043,0.063,0.297,0.24,0.365
			c0.001,0,0.001,0,0.001,0h0.001l0,0c0.12,0.031,0.075-0.096,0.069-0.109C23.123,41.477,23.025,41.346,22.904,41.301z"/>
	</g>
	<g>
		<path fill="#FFFFFF" d="M22.55,39.256c0.002-0.1-0.051-0.262-0.179-0.314c0,0,0,0-0.001,0l0,0l0,0h-0.001
			c-0.019-0.006-0.036-0.01-0.062-0.002c-0.141,0.047-0.104,0.375,0.093,0.455h0.001h0.001l0,0l0,0
			C22.542,39.43,22.55,39.273,22.55,39.256z"/>
	</g>
	<g>
		<path fill="#FFFFFF" d="M24.132,35.502c0.035-0.088,0.028-0.234-0.096-0.27c-0.16-0.029-0.318,0.213-0.238,0.371
			C23.873,35.748,24.07,35.666,24.132,35.502z"/>
	</g>
	<g>
		<path fill="#FFFFFF" d="M28.011,31.475c-0.001,0-0.003,0-0.005,0.002c-0.061,0.016-0.048,0.195,0.035,0.242
			c0.054,0.033,0.1-0.014,0.077-0.105C28.099,31.539,28.048,31.475,28.011,31.475z"/>
	</g>
	<g>
		<path fill="#FFFFFF" d="M28.374,31.018c-0.003-0.01-0.063-0.041-0.143-0.074c-0.085-0.033-0.193-0.068-0.206-0.07
			C28.026,30.877,28.359,31.027,28.374,31.018z"/>
	</g>
	<g>
		<path fill="#FFFFFF" d="M28.623,30.902c-0.019-0.012-0.109-0.025-0.21-0.045c-0.122-0.02-0.253-0.029-0.275-0.031
			C28.141,30.828,28.614,30.908,28.623,30.902z"/>
	</g>
	<g>
		<path fill="#FFFFFF" d="M28.217,31.033c0.001-0.008-0.036-0.035-0.094-0.068c-0.056-0.035-0.131-0.072-0.145-0.072l0,0
			C27.99,30.906,28.2,31.047,28.217,31.033z"/>
	</g>
	<g>
		<path fill="#FFFFFF" d="M22.379,38.041C22.38,38.041,22.38,38.041,22.379,38.041c0.001,0,0.001,0,0.002,0
			c0.104,0.02,0.151-0.084,0.162-0.15c0.013-0.086-0.009-0.23-0.125-0.273l0,0c0,0,0,0-0.001,0l0,0c-0.001,0-0.001,0-0.001,0
			c-0.017-0.004-0.042-0.01-0.071,0.004C22.214,37.68,22.213,37.975,22.379,38.041z"/>
	</g>
	<g>
		<path fill="#FFFFFF" d="M28.62,30.854c-0.021-0.006-0.107-0.018-0.201-0.025c-0.104-0.012-0.222-0.02-0.242-0.02
			C28.18,30.811,28.597,30.859,28.62,30.854z"/>
	</g>
	<g>
		<path fill="#FFFFFF" d="M27.006,32.418c0.032-0.076,0.012-0.152-0.042-0.156c-0.095,0-0.177,0.152-0.146,0.23
			C26.85,32.568,26.961,32.525,27.006,32.418z"/>
	</g>
	<g>
		<path fill="#FFFFFF" d="M25.722,33.455L25.722,33.455h0.002l0,0c0.108,0.008,0.17-0.107,0.179-0.123
			c0.048-0.09,0.031-0.18-0.036-0.189c-0.016,0-0.036-0.002-0.075,0.018C25.664,33.229,25.6,33.426,25.722,33.455z"/>
	</g>
	<g>
		<path fill="#FFFFFF" d="M27.697,31.605c0.005-0.037-0.003-0.096-0.037-0.102h-0.001c-0.054,0.004-0.088,0.129-0.05,0.176
			C27.635,31.713,27.688,31.689,27.697,31.605z"/>
	</g>
	<g>
		<path fill="#FFFFFF" d="M24.369,34.41L24.369,34.41L24.369,34.41c0.082,0.01,0.153-0.066,0.181-0.119
			c0.031-0.061,0.041-0.158-0.038-0.182c-0.018-0.004-0.047-0.004-0.083,0.016C24.314,34.186,24.256,34.375,24.369,34.41z"/>
	</g>
	<g>
		<path fill="#FFFFFF" d="M22.738,36.533c0.028-0.094-0.004-0.189-0.067-0.209c-0.003,0-0.007-0.002-0.01-0.002
			c-0.104-0.018-0.204,0.17-0.126,0.289C22.591,36.699,22.705,36.658,22.738,36.533z"/>
	</g>
	<g>
		<path fill="#FFFFFF" d="M28.039,31.037c0.009,0,0-0.021-0.035-0.057c-0.027-0.025-0.074-0.064-0.085-0.066h-0.001
			C27.915,30.926,28.014,31.035,28.039,31.037z"/>
	</g>
	<g>
		<path fill="#FFFFFF" d="M28.561,30.809c-0.013-0.006-0.083-0.01-0.161-0.016c-0.075-0.004-0.17-0.004-0.184-0.004
			C28.219,30.789,28.55,30.812,28.561,30.809z"/>
	</g>
	<g>
		<path fill="#FFFFFF" d="M23.117,35.248c0.018-0.035,0.034-0.107-0.021-0.129l0,0c-0.078-0.02-0.147,0.1-0.118,0.17
			C23.006,35.355,23.082,35.32,23.117,35.248z"/>
	</g>
	<g>
		<path fill="#FFFFFF" d="M27.871,31.021c0.008,0.004,0.008-0.012-0.004-0.039c-0.005-0.012-0.021-0.045-0.027-0.045
			c-0.001,0-0.001,0-0.001,0C27.829,30.945,27.856,31.02,27.871,31.021z"/>
	</g>
	<g>
		<path fill="#FFFFFF" d="M26.341,32.348c0.009-0.01,0.015-0.023,0.017-0.035c0.002-0.01,0.002-0.021,0.002-0.031
			c0-0.012-0.011-0.02-0.022-0.018c-0.058,0.018-0.099,0.084-0.09,0.113C26.254,32.406,26.311,32.395,26.341,32.348z"/>
	</g>
	<g>
		<path fill="#FFFFFF" d="M28.498,30.766c-0.046-0.002-0.096-0.004-0.141-0.004c-0.032,0-0.089,0.002-0.097,0.004
			C28.263,30.766,28.263,30.766,28.498,30.766z"/>
	</g>
	<path fill="#FFFFFF" d="M18.638,27.172c-0.186-0.083-0.309,0.096-0.269,0.215c0.059,0.172,0.27,0.131,0.362,0.054
		c0.178-0.149,0.102-0.348,0.151-0.499C18.935,26.794,18.776,27.235,18.638,27.172z"/>
	<path fill="#FFFFFF" d="M37.918,13.919c0.011,0.053,0.021,0.106,0.031,0.156c0.261,1.809,0.251,2.735,0.11,3.547
		c-0.187,1.077-0.519,2.098-1.221,3.239c-0.566,0.896-1.404,1.78-2.427,2.82l-0.002,0.001c-0.064,0.066-0.135,0.143-0.204,0.22
		c-0.004,0.004-0.006,0.007-0.01,0.011c-0.069,0.078-0.142,0.163-0.21,0.251c-0.012,0.016-0.023,0.029-0.034,0.045
		c-0.093,0.12-0.179,0.248-0.251,0.377c-0.011,0.015-0.019,0.03-0.027,0.048c-0.017,0.031-0.035,0.065-0.051,0.096
		c-0.007,0.017-0.016,0.033-0.022,0.049c-0.016,0.032-0.028,0.064-0.041,0.097c-0.032,0.081-0.056,0.161-0.071,0.24
		c-0.135,0.696,0.123,1.735,1.357,1.731c0.033,0,0.068-0.002,0.101-0.003c0.033-0.001,0.064-0.003,0.097-0.006
		c0.817-0.071,2.012-0.56,3.713-1.784l1.378-0.963c0.026-0.018,0.071-0.027,0.11-0.027c0.051,0.001,0.097,0.016,0.092,0.047
		c-0.001,0.003-0.004,0.009-0.005,0.014c-1.159,1.943-1.573,2.996-1.741,3.671c-0.007,0.024-0.013,0.05-0.02,0.074
		c-0.017,0.07-0.03,0.136-0.043,0.201c-0.004,0.021-0.008,0.041-0.011,0.061s-0.007,0.04-0.01,0.059
		c-0.001,0.011-0.003,0.021-0.004,0.03c-0.003,0.02-0.005,0.038-0.007,0.057c-0.005,0.036-0.012,0.072-0.016,0.107
		c-0.002,0.018-0.004,0.035-0.006,0.051c-0.002,0.018-0.004,0.034-0.006,0.05c-0.004,0.033-0.008,0.064-0.011,0.098
		c-0.001,0.016-0.003,0.031-0.005,0.047c-0.003,0.014-0.006,0.031-0.008,0.045c-0.001,0.016-0.003,0.031-0.005,0.047
		c-0.004,0.021-0.007,0.043-0.01,0.064c-0.001,0.01-0.003,0.018-0.004,0.025c-0.042,0.266-0.125,0.52-0.383,0.904
		c-0.612,0.912-1.314,1.582-1.974,2.07c-0.032,0.023-0.065,0.051-0.098,0.074c-0.103,0.072-0.205,0.145-0.305,0.209
		c-0.036,0.023-0.07,0.045-0.104,0.064c-0.034,0.023-0.069,0.045-0.104,0.064c-0.021,0.014-0.041,0.025-0.062,0.037
		c-0.033,0.023-0.063,0.041-0.095,0.059c-0.027,0.016-0.054,0.033-0.081,0.047c-0.016,0.012-0.033,0.02-0.05,0.027
		c-0.05,0.027-0.099,0.057-0.148,0.082c-0.016,0.008-0.031,0.016-0.048,0.025c-0.144,0.074-0.278,0.139-0.403,0.195
		c-0.015,0.006-0.026,0.012-0.041,0.02c-0.021,0.008-0.038,0.018-0.058,0.025c-0.02,0.01-0.042,0.018-0.062,0.025
		c-0.448-0.633-0.986-1.197-1.596-1.676c-0.173-0.135-0.348-0.26-0.528-0.381c-0.03-0.02-0.061-0.039-0.091-0.057
		c-0.098-0.062-0.197-0.123-0.3-0.184c-0.037-0.021-0.077-0.043-0.114-0.064c-0.171-0.094-0.345-0.186-0.521-0.266
		c-0.034-0.016-0.066-0.029-0.099-0.045c-0.127-0.059-0.259-0.111-0.389-0.16c-0.188-0.074-0.378-0.139-0.571-0.195
		c-0.065-0.021-0.131-0.037-0.196-0.057c-0.045-0.012-0.093-0.023-0.14-0.039c-0.156-0.037-0.312-0.072-0.473-0.102
		c-0.088-0.016-0.179-0.031-0.27-0.045c-0.392-0.059-0.792-0.092-1.2-0.092c-1.462,0-2.833,0.396-4.01,1.086
		c-0.309,0.18-0.65,0.268-0.99,0.264c0,0,0,0-0.001,0c-0.024,0-0.047,0-0.07-0.002c-0.003,0-0.004,0-0.004,0
		c-0.022,0-0.046-0.002-0.068-0.006c-0.039-0.002-0.077-0.008-0.115-0.014c-0.045-0.006-0.088-0.016-0.132-0.023
		c-0.015-0.004-0.029-0.006-0.045-0.01c-0.014-0.002-0.027-0.008-0.044-0.012c-0.02-0.006-0.041-0.012-0.061-0.018
		c-0.035-0.012-0.069-0.021-0.105-0.035c-0.062-0.021-0.125-0.049-0.185-0.076c-0.01-0.008-0.02-0.012-0.029-0.016
		c-0.035-0.018-0.07-0.039-0.106-0.059c-0.019-0.012-0.033-0.021-0.053-0.033c-0.024-0.016-0.053-0.033-0.077-0.049
		c-0.007-0.006-0.015-0.01-0.021-0.016c-0.037-0.027-0.074-0.055-0.107-0.086c-0.13-0.104-0.25-0.209-0.37-0.311
		c-0.004-0.004-0.01-0.008-0.014-0.01c-0.055-0.047-0.11-0.094-0.163-0.141c-0.1-0.084-0.195-0.166-0.289-0.244
		c-0.016-0.016-0.03-0.025-0.047-0.037c-0.004-0.004-0.01-0.012-0.014-0.014c-0.017-0.014-0.034-0.025-0.052-0.041
		c-0.004-0.004-0.009-0.008-0.015-0.012c-0.037-0.029-0.076-0.062-0.112-0.092c-0.06-0.047-0.118-0.092-0.175-0.135
		c-0.015-0.012-0.027-0.021-0.041-0.029c-0.007-0.006-0.015-0.012-0.021-0.018c-0.013-0.012-0.026-0.021-0.04-0.029
		c-0.329-0.238-0.642-0.414-0.976-0.502c-0.003,0-0.01-0.002-0.015-0.002c-0.235-0.062-0.481-0.078-0.75-0.037
		c-0.014,0.002-0.026,0.004-0.041,0.006c-0.378,0.062-0.801,0.236-1.302,0.543c0.003-0.004,0.01-0.01,0.021-0.016
		c0,0,0.001,0,0.001-0.002c0.001,0,0.004-0.004,0.007-0.004c0.001-0.002,0.001-0.002,0.002-0.004c0.002,0,0.003,0,0.004-0.002
		c0.002-0.002,0.003-0.004,0.006-0.006l0,0c0.005-0.006,0.013-0.012,0.021-0.02c0.004-0.006,0.01-0.012,0.016-0.016
		c0-0.002,0-0.002,0-0.002c0.021-0.021,0.045-0.051,0.071-0.086c0.002-0.004,0.002-0.008,0.005-0.01
		c0.017-0.025,0.034-0.053,0.05-0.084c0.004-0.01,0.009-0.018,0.014-0.025c0.005-0.014,0.013-0.025,0.018-0.037
		c0.013-0.023,0.021-0.049,0.031-0.076c0.001-0.004,0.004-0.01,0.006-0.014c0.008-0.02,0.015-0.041,0.021-0.062
		c0.002-0.008,0.003-0.018,0.006-0.025c0.006-0.021,0.014-0.047,0.021-0.072c0.021-0.092,0.041-0.196,0.053-0.317
		c0-0.002,0-0.005,0-0.007c0.002-0.04,0.005-0.079,0.007-0.122c0,0,0-0.002,0-0.003c0.001-0.03,0.002-0.06,0.002-0.089
		c0-0.016,0-0.033,0-0.049c0-0.048-0.001-0.099-0.003-0.15c-0.001-0.018-0.001-0.034-0.002-0.053
		c-0.005-0.089-0.014-0.182-0.026-0.283c-0.281-2.267,1.591-2.865,4.348-1.846c0.07,0.025,0.145,0.045,0.225,0.076
		c0.165,0.059,0.624,0.226,1.23,0.248c0.433,0.011,1.758-0.208,1.263-0.359c-6.835-2.091-5.632-5.573-4.218-9.338
		c1.087-2.894,0.646-3.54,0.443-4.108c-5.264,2.345-9.135,7.242-10.045,13.12c-0.108,0.795-0.17,1.604-0.181,2.426
		c-0.092,7.002,4.009,13.092,9.952,15.895c2.215,1.035,4.687,1.609,7.293,1.609c9.538,0,17.27-7.729,17.27-17.268
		C45.196,22.191,42.323,17.049,37.918,13.919z M34.563,37.678c-0.025,0.516-0.111,1.014-0.248,1.488
		c-0.022,0.08-0.047,0.154-0.071,0.23c-0.101,0.307-0.221,0.6-0.359,0.883c-0.072,0.145-0.148,0.283-0.229,0.42
		c-0.463,0.785-1.081,1.469-1.814,2.002c-0.183,0.135-0.371,0.26-0.567,0.373c-0.178,0.104-0.36,0.199-0.548,0.285
		c-0.018,0.01-0.036,0.018-0.053,0.027c-0.188,0.086-0.38,0.16-0.578,0.23c-0.015,0.006-0.029,0.01-0.044,0.014
		c-0.205,0.07-0.414,0.127-0.627,0.178c-0.042,0.01-0.083,0.02-0.123,0.027c-0.136,0.029-0.271,0.055-0.407,0.074
		c-0.093,0.014-0.186,0.021-0.28,0.031c-0.077,0.01-0.155,0.016-0.234,0.021c-0.036,0.002-0.073,0.006-0.11,0.008
		c-0.076,0.004-0.15,0.006-0.227,0.008c-0.071,0-0.142,0-0.212,0c-0.103-0.002-0.203-0.006-0.305-0.012
		c-0.106-0.006-0.213-0.016-0.318-0.025c-0.084-0.01-0.169-0.02-0.253-0.031c-0.14-0.021-0.277-0.045-0.416-0.074
		c-0.487-0.105-0.956-0.266-1.398-0.471c-0.146-0.066-0.288-0.139-0.427-0.217c-2.142-1.188-3.565-3.523-3.431-6.164
		c0.175-3.393,2.897-6.117,6.294-6.291c1.672-0.086,3.222,0.455,4.436,1.408c0.208,0.162,0.405,0.336,0.592,0.521
		c0.094,0.094,0.187,0.189,0.273,0.289c0.212,0.236,0.407,0.488,0.584,0.754c0.089,0.135,0.173,0.271,0.252,0.412
		c0.091,0.16,0.176,0.322,0.252,0.49c0.136,0.293,0.25,0.6,0.341,0.91c0.075,0.26,0.135,0.525,0.179,0.795
		c0.016,0.092,0.027,0.184,0.039,0.273C34.569,36.918,34.583,37.297,34.563,37.678z"/>
	<path fill="#FFFFFF" d="M27.417,20.217c-1.997,4.359,2.069,4.9,2.071,4.9c-1.717-0.804-1.477-2.443-1.477-2.443
		c0.063-0.53,0.222-1.044,0.453-1.527c1.922-4.012,2.447-7.092,1.527-9.166c-0.35-0.784-1.131-1.292-1.988-1.292
		c-0.006,0-0.01,0-0.014,0c-0.983,0-1.946,0.083-2.885,0.24C29.198,12.603,29.136,16.465,27.417,20.217z"/>
	<path fill="#FFFFFF" d="M27.924,0.077C12.502,0.077,0,12.578,0,28c0,15.423,12.502,27.923,27.924,27.923
		c15.421,0,27.923-12.502,27.923-27.923C55.847,12.579,43.345,0.077,27.924,0.077z M27.924,46.568
		c-10.255,0-18.57-8.314-18.57-18.569c0-10.256,8.315-18.57,18.57-18.57c10.256,0,18.57,8.314,18.57,18.57
		C46.494,38.254,38.18,46.568,27.924,46.568z"/>
</g>
<g>
	<path fill="#FFFFFF" d="M69.245,28.033v-0.05c0-4.974,3.924-9.048,9.323-9.048c5.398,0,9.272,4.024,9.272,8.998v0.05
		c0,4.975-3.924,9.048-9.322,9.048C73.119,37.03,69.245,33.006,69.245,28.033z M83.817,28.033v-0.05
		c0-2.999-2.199-5.499-5.298-5.499c-3.1,0-5.249,2.45-5.249,5.449v0.05c0,3,2.2,5.499,5.299,5.499S83.817,31.031,83.817,28.033z"/>
	<path fill="#FFFFFF" d="M91.27,19.235h3.549l8.198,10.773V19.235h3.799V36.73h-3.274l-8.473-11.122V36.73H91.27V19.235z"/>
	<path fill="#FFFFFF" d="M111.02,19.235h3.849v13.997h8.723v3.499H111.02V19.235z"/>
	<path fill="#FFFFFF" d="M126.67,19.235h3.849V36.73h-3.849V19.235z"/>
	<path fill="#FFFFFF" d="M134.895,19.235h3.549l8.198,10.773V19.235h3.799V36.73h-3.274l-8.473-11.122V36.73h-3.799V19.235z"/>
	<path fill="#FFFFFF" d="M154.645,19.235h13.197v3.424h-9.373v3.549h8.248v3.425h-8.248v3.674h9.498v3.424h-13.322V19.235z"/>
	<path fill="#FFFFFF" d="M178.894,19.235h6.823c5.499,0,9.298,3.774,9.298,8.698v0.05c0,4.924-3.8,8.748-9.298,8.748h-6.823V19.235z
		 M185.718,33.256c3.149,0,5.273-2.124,5.273-5.223v-0.05c0-3.099-2.124-5.273-5.273-5.273h-2.974v10.547H185.718z"/>
	<path fill="#FFFFFF" d="M197.669,28.033v-0.05c0-4.974,3.924-9.048,9.323-9.048c5.398,0,9.271,4.024,9.271,8.998v0.05
		c0,4.975-3.924,9.048-9.322,9.048S197.669,33.006,197.669,28.033z M212.24,28.033v-0.05c0-2.999-2.199-5.499-5.299-5.499
		s-5.248,2.45-5.248,5.449v0.05c0,3,2.199,5.499,5.299,5.499S212.24,31.031,212.24,28.033z"/>
	<path fill="#FFFFFF" d="M219.694,19.235h3.549l8.199,10.773V19.235h3.799V36.73h-3.275l-8.473-11.122V36.73h-3.799V19.235z"/>
	<path fill="#FFFFFF" d="M245.442,19.11h3.551l7.498,17.621h-4.025l-1.6-3.924h-7.398l-1.6,3.924h-3.924L245.442,19.11z
		 M249.492,29.407l-2.326-5.674l-2.324,5.674H249.492z"/>
	<path fill="#FFFFFF" d="M261.018,22.784h-5.324v-3.549h14.498v3.549h-5.324V36.73h-3.85V22.784z"/>
	<path fill="#FFFFFF" d="M273.319,19.235h3.85V36.73h-3.85V19.235z"/>
	<path fill="#FFFFFF" d="M280.77,28.033v-0.05c0-4.974,3.924-9.048,9.322-9.048s9.273,4.024,9.273,8.998v0.05
		c0,4.975-3.924,9.048-9.322,9.048C284.643,37.03,280.77,33.006,280.77,28.033z M295.342,28.033v-0.05
		c0-2.999-2.201-5.499-5.299-5.499c-3.1,0-5.25,2.45-5.25,5.449v0.05c0,3,2.199,5.499,5.299,5.499S295.342,31.031,295.342,28.033z"
		/>
	<path fill="#FFFFFF" d="M302.795,19.235h3.549l8.197,10.773V19.235h3.799V36.73h-3.273l-8.473-11.122V36.73h-3.799V19.235z"/>
	<path fill="#FFFFFF" d="M321.344,34.182l2.275-2.725c1.574,1.299,3.225,2.124,5.223,2.124c1.576,0,2.525-0.624,2.525-1.649v-0.05
		c0-0.976-0.6-1.475-3.523-2.225c-3.525-0.899-5.799-1.875-5.799-5.349v-0.05c0-3.174,2.549-5.273,6.123-5.273
		c2.549,0,4.725,0.8,6.498,2.225l-2,2.899c-1.549-1.075-3.074-1.725-4.549-1.725s-2.248,0.675-2.248,1.525v0.05
		c0,1.15,0.75,1.525,3.773,2.299c3.549,0.925,5.549,2.2,5.549,5.249v0.05c0,3.475-2.65,5.424-6.424,5.424
		C326.119,36.98,323.444,36.056,321.344,34.182z"/>
</g>
</svg>
