<?xml version="1.0" encoding="utf-8"?>
<!-- Generator: Adobe Illustrator 16.0.0, SVG Export Plug-In . SVG Version: 6.00 Build 0)  -->
<!DOCTYPE svg PUBLIC "-//W3C//DTD SVG 1.1//EN" "http://www.w3.org/Graphics/SVG/1.1/DTD/svg11.dtd">
<svg version="1.1" id="Capa_1" xmlns="http://www.w3.org/2000/svg" xmlns:xlink="http://www.w3.org/1999/xlink" x="0px" y="0px"
	 width="378px" height="56px" viewBox="0 0 378 56" enable-background="new 0 0 378 56" xml:space="preserve">
<g>
	<g>
		<path fill="#FFFFFF" d="M34.481,36.529c-0.172,0.139-0.184,1.21,0.06,1.339c-0.137,0.372-0.137,0.372-0.191,0.623
			c-0.027-0.225-0.034-0.233-0.152-0.37c0.31-0.563,0.094-1.303-0.132-1.275c-0.216,0.024-0.264,0.475-0.292,0.743
			c-0.052-0.158-0.173-0.521-0.435-0.426c-0.35,0.192-0.579,1.002-0.046,1.357c-0.19,0.251-0.19,0.251-0.336,0.547
			c-0.133-0.23-0.133-0.23-0.367-0.34c0.657-0.541,0.323-1.255-0.025-1.294c-0.464-0.055-0.79,0.714-0.484,1.14
			c0.104,0.148,0.247,0.18,0.352,0.202c-0.294,0.182-0.411,0.34-0.523,0.705c-0.262-0.878-0.969-0.312-1.113-0.07
			c-0.284,0.478,0.039,0.972,0.54,0.824c0.362-0.104,0.491-0.441,0.56-0.621c0.032,0.287,0.101,0.394,0.31,0.478
			c-0.225,0.147-0.331,0.266-0.476,0.517c-0.219-0.644-0.931-0.188-1.105,0.103c-0.253,0.417-0.007,0.788,0.446,0.674
			c0.29-0.072,0.465-0.301,0.582-0.456c0.018,0.188,0.063,0.259,0.2,0.323c-0.242,0.192-0.242,0.192-0.458,0.421
			c-0.208-0.593-0.944-0.047-1.081,0.205c-0.179,0.323,0.034,0.562,0.408,0.454c0.291-0.088,0.471-0.293,0.558-0.393
			c-0.017,0.182,0.016,0.241,0.152,0.28c-0.647,0.352-0.76,0.711-0.603,0.751c0.013,0.003,0.031,0.004,0.043,0.006
			c-0.172,0.078-0.614,0.284-0.741,0.489c-0.01,0.016,0.001,0.035,0.021,0.038c0.209,0.013,0.771-0.304,0.896-0.482
			c0.007-0.011,0.008-0.023,0.004-0.035c-0.007-0.017-0.022-0.027-0.038-0.033c-0.006-0.001-0.013-0.004-0.018-0.004
			c0.195-0.081,0.327-0.163,0.546-0.342c-0.042,0.064-0.058,0.09-0.067,0.118c-0.012,0.028-0.006,0.061,0.011,0.084
			c-0.216,0.129-0.653,0.391-0.807,0.538c-0.008,0.009-0.001,0.023,0.01,0.021c0.013-0.002,0.028-0.005,0.041-0.008
			c0.187-0.087,0.37-0.182,0.548-0.287c0.22-0.155,0.489-0.371,0.84-0.65c-0.093,0.11-0.162,0.188-0.273,0.277
			c0.733-0.533,1.352-1.215,1.815-2.001c0.008-0.033,0.014-0.065,0.021-0.102c0.076-0.113,0.138-0.207,0.207-0.318
			c0.14-0.283,0.26-0.577,0.359-0.883c-0.042,0.086-0.081,0.165-0.114,0.242c-0.005-0.089-0.013-0.162-0.032-0.257
			c0.097-0.189,0.113-0.221,0.196-0.472c-0.002,0.125,0.002,0.209,0.022,0.256c0.136-0.476,0.222-0.973,0.248-1.488
			c0.019-0.382,0.006-0.76-0.038-1.129C34.508,36.537,34.493,36.532,34.481,36.529z M32.097,42.076
			c-0.145,0.102-0.27,0.218-0.375,0.316c0.065-0.134,0.056-0.197-0.032-0.223c0.145-0.105,0.259-0.19,0.393-0.296
			c0.021,0.069,0.03,0.122,0.037,0.184C32.113,42.062,32.104,42.071,32.097,42.076z M32.248,41.163
			c0.113-0.102,0.205-0.191,0.32-0.304c0.031,0.069,0.053,0.128,0.077,0.196c-0.005,0.006-0.011,0.012-0.016,0.018
			c-0.122,0.134-0.219,0.231-0.259,0.271C32.333,41.285,32.298,41.232,32.248,41.163z M32.747,41.798
			c-0.007,0.007-0.015,0.015-0.021,0.021c-0.15,0.145-0.271,0.252-0.324,0.297c0.059-0.106,0.059-0.11,0.058-0.182
			c0.113-0.1,0.202-0.181,0.307-0.277C32.764,41.708,32.759,41.748,32.747,41.798z M33.03,39.876
			c-0.108,0.127-0.108,0.127-0.275,0.355c-0.076-0.135-0.076-0.135-0.219-0.225c0.167-0.126,0.27-0.256,0.351-0.45
			c0.062,0.107,0.108,0.197,0.159,0.304C33.041,39.863,33.033,39.871,33.03,39.876z M33.331,40.803
			c-0.09,0.11-0.162,0.193-0.193,0.229c-0.001-0.05-0.005-0.094-0.01-0.144c0.07-0.081,0.127-0.151,0.194-0.238
			c0.011,0.051,0.016,0.091,0.019,0.142C33.338,40.793,33.333,40.799,33.331,40.803z M33.784,39.583
			c-0.092,0.15-0.167,0.256-0.199,0.303c-0.03-0.065-0.059-0.119-0.098-0.188c0.083-0.136,0.146-0.249,0.22-0.386
			c0.037,0.09,0.062,0.165,0.088,0.251C33.792,39.568,33.787,39.577,33.784,39.583z M34.015,38.244
			c-0.104,0.189-0.104,0.189-0.242,0.516c-0.042-0.196-0.11-0.281-0.25-0.31c0.167-0.185,0.241-0.371,0.265-0.66
			c0.063,0.267,0.13,0.382,0.244,0.422C34.027,38.223,34.02,38.234,34.015,38.244z"/>
	</g>
	<g>
		<path fill="#FFFFFF" d="M29.999,42.708c-0.187,0.209-0.162,0.418,0.147,0.387c0,0,0.001,0,0.001,0s0-0.001,0.001-0.001h0h0.001h0
			h0c0.296-0.053,0.556-0.253,0.658-0.377c0.134-0.159,0.166-0.381-0.195-0.342c0,0.001,0,0.001,0,0.001h0c0,0,0,0,0,0h-0.001
			C30.253,42.44,30.039,42.664,29.999,42.708z"/>
	</g>
	<g>
		<path fill="#FFFFFF" d="M29.938,40.469c-0.556,0.066-0.769,0.534-0.635,0.804c0.206,0.414,0.978,0.243,1.148-0.252
			C30.561,40.703,30.316,40.441,29.938,40.469z"/>
	</g>
	<g>
		<path fill="#FFFFFF" d="M31.305,37.679L31.305,37.679L31.305,37.679c-0.076,0.016-0.25,0.052-0.402,0.24
			c-0.329,0.412-0.125,1.07,0.446,1.019c0,0,0,0,0.001,0c0,0,0.001,0,0.001,0c0.001,0,0.001,0,0.001,0s0,0,0.002-0.001h0.001h0.001
			c0.402-0.086,0.528-0.451,0.539-0.652C31.909,38.029,31.759,37.638,31.305,37.679z"/>
	</g>
	<g>
		<path fill="#FFFFFF" d="M33.03,35.895c-0.371,0.169-0.27,0.965,0.06,1.174c0.292,0.184,0.547-0.174,0.459-0.639
			C33.498,36.163,33.303,35.823,33.03,35.895z"/>
	</g>
	<g>
		<path fill="#FFFFFF" d="M30.196,42.025c0.102-0.225-0.031-0.461-0.426-0.445c-0.46,0.041-0.759,0.433-0.638,0.684
			C29.294,42.6,30.009,42.438,30.196,42.025z"/>
	</g>
	<g>
		<path fill="#FFFFFF" d="M33.673,35.613c-0.026,0.017-0.065,0.045-0.096,0.135c-0.119,0.344,0.111,1.19,0.428,1.052
			c0-0.001,0-0.001,0-0.001l0,0c0-0.001,0-0.001,0-0.001c0.182-0.133,0.145-0.512,0.101-0.692
			C34.042,35.852,33.867,35.529,33.673,35.613z"/>
	</g>
	<g>
		<path fill="#FFFFFF" d="M30.286,43.262c0.021-0.028,0.113-0.167-0.165-0.136H30.12c-0.299,0.056-0.556,0.231-0.643,0.34
			c-0.023,0.029-0.131,0.179,0.113,0.149h0.001h0c0,0,0,0,0,0s0,0,0.002,0c0.222-0.039,0.459-0.157,0.586-0.254
			C30.238,43.317,30.269,43.283,30.286,43.262z"/>
	</g>
	<g>
		<path fill="#FFFFFF" d="M30.65,43.396c-0.188,0.067-0.369,0.147-0.555,0.223c0.197-0.07,0.389-0.146,0.578-0.231
			C30.668,43.389,30.662,43.392,30.65,43.396C30.65,43.396,30.65,43.396,30.65,43.396z"/>
	</g>
	<g>
		<path fill="#FFFFFF" d="M32.178,36.15h-0.001c0,0.001,0,0.001,0,0.001l0,0c-0.455,0.138-0.443,0.867-0.082,1.131
			c0.347,0.25,0.736-0.099,0.659-0.592C32.715,36.436,32.51,36.098,32.178,36.15z"/>
	</g>
	<g>
		<path fill="#FFFFFF" d="M30.018,39.198C30.018,39.198,30.018,39.198,30.018,39.198c-0.002,0-0.002,0-0.002,0c0,0-0.001,0-0.001,0
			h0c0,0,0,0-0.001,0s-0.001,0-0.002,0c-0.08,0.011-0.268,0.04-0.441,0.21c-0.371,0.371-0.218,0.977,0.378,0.958c0,0,0,0,0,0h0
			h0.001c0.447-0.058,0.622-0.395,0.652-0.567C30.653,39.501,30.445,39.185,30.018,39.198z"/>
	</g>
	<g>
		<path fill="#FFFFFF" d="M34.093,35.313L34.093,35.313c-0.016,0.02-0.038,0.049-0.043,0.138c-0.032,0.341,0.212,1.153,0.389,1.008
			c0.03-0.043,0.044-0.109,0.048-0.185c-0.043-0.27-0.104-0.535-0.179-0.794C34.239,35.348,34.159,35.256,34.093,35.313z"/>
	</g>
	<g>
		<path fill="#FFFFFF" d="M29.829,42.858c0.119-0.18,0.035-0.355-0.308-0.34c-0.429,0.049-0.667,0.336-0.618,0.508
			C28.982,43.3,29.613,43.188,29.829,42.858z"/>
	</g>
	<g>
		<path fill="#FFFFFF" d="M30.217,43.535c-0.01-0.006-0.025-0.005-0.072,0.005c-0.177,0.044-0.554,0.199-0.72,0.269
			c0.213-0.05,0.422-0.107,0.627-0.177C30.136,43.595,30.217,43.557,30.217,43.535z"/>
	</g>
	<g>
		<path fill="#FFFFFF" d="M30.006,37.859L30.006,37.859c-0.001,0-0.001,0-0.001,0h0c0,0,0,0-0.001,0h-0.001
			c-0.001,0-0.001,0-0.001,0c-0.083,0.009-0.257,0.031-0.411,0.196c-0.318,0.338-0.199,1.01,0.424,0.999c0,0,0,0,0,0
			c0,0,0,0,0.001,0c0,0,0,0,0,0c0,0,0,0,0.001,0c0,0,0,0,0.001,0h0h0.001c0,0,0.001,0,0.001-0.002
			c0.435-0.058,0.578-0.414,0.592-0.594C30.632,38.204,30.456,37.849,30.006,37.859z"/>
	</g>
	<g>
		<path fill="#FFFFFF" d="M30.889,37.419c0.376,0.312,0.883,0.009,0.839-0.494c-0.02-0.233-0.204-0.589-0.605-0.556h-0.001H31.12
			C30.614,36.475,30.538,37.13,30.889,37.419z"/>
	</g>
	<g>
		<path fill="#FFFFFF" d="M29.199,43.245c-0.34,0.036-0.54,0.218-0.548,0.327c-0.015,0.212,0.514,0.111,0.735-0.096
			c0.007-0.006,0.017-0.017,0.024-0.023C29.494,43.358,29.486,43.231,29.199,43.245z"/>
	</g>
	<g>
		<path fill="#FFFFFF" d="M29.631,43.688c0.015-0.02,0.009-0.043-0.102-0.028c-0.225,0.033-0.609,0.201-0.635,0.25
			c0.137-0.02,0.271-0.045,0.407-0.073c0.053-0.016,0.106-0.034,0.153-0.052C29.55,43.749,29.613,43.713,29.631,43.688z"/>
	</g>
	<g>
		<path fill="#FFFFFF" d="M33.086,35.156c-0.086-0.226-0.317-0.516-0.549-0.454c0,0,0,0,0,0c-0.3,0.122-0.106,0.882,0.266,1.042
			C33.084,35.864,33.238,35.547,33.086,35.156z"/>
	</g>
	<g>
		<path fill="#FFFFFF" d="M28.578,40.576c-0.077,0.005-0.255,0.017-0.419,0.153c-0.341,0.287-0.199,0.789,0.349,0.802h0.001
			c0,0,0,0,0,0h0.001h0c0.399-0.025,0.565-0.28,0.599-0.428C29.177,40.817,28.929,40.569,28.578,40.576z"/>
	</g>
	<g>
		<path fill="#FFFFFF" d="M33.118,34.445c-0.017,0.012-0.035,0.026-0.049,0.058c-0.124,0.26,0.258,1.089,0.549,0.968l0,0
			c0.154-0.109,0.069-0.421-0.006-0.586C33.51,34.662,33.292,34.376,33.118,34.445z"/>
	</g>
	<g>
		<path fill="#FFFFFF" d="M27.973,42.272c0.188,0.325,0.852,0.229,0.985-0.141c0.087-0.241-0.133-0.455-0.462-0.448
			C28.011,41.711,27.846,42.054,27.973,42.272z"/>
	</g>
	<g>
		<path fill="#FFFFFF" d="M28.632,39.316c0,0-0.001,0-0.001,0h-0.001c0,0,0,0,0,0h-0.001c-0.001,0-0.001,0-0.001,0h-0.001
			c-0.582,0.04-0.73,0.602-0.484,0.891c0.31,0.362,0.977,0.17,1.05-0.304C29.229,39.666,29.08,39.331,28.632,39.316z"/>
	</g>
	<g>
		<path fill="#FFFFFF" d="M31.763,34.932c-0.354,0.111-0.285,0.79,0.105,1.01c0.325,0.183,0.599-0.1,0.488-0.505
			C32.268,35.118,31.99,34.883,31.763,34.932z"/>
	</g>
	<g>
		<path fill="#FFFFFF" d="M28.761,42.937c0.066-0.158-0.06-0.33-0.377-0.334c-0.32,0.007-0.566,0.217-0.491,0.418
			C28.004,43.31,28.628,43.25,28.761,42.937z"/>
	</g>
	<g>
		<path fill="#FFFFFF" d="M34.023,35.151L34.023,35.151c0.082-0.117-0.04-0.43-0.115-0.577c-0.126-0.248-0.317-0.473-0.408-0.404h0
			c-0.008,0.014-0.018,0.027-0.021,0.061C33.447,34.49,33.855,35.281,34.023,35.151z"/>
	</g>
	<g>
		<path fill="#FFFFFF" d="M29.983,37.651L29.983,37.651h0.001c0.001,0,0.001,0,0.001,0c0.001,0,0.001,0,0.001-0.001h0.001
			c0,0,0.001,0,0.001,0c0.404-0.052,0.506-0.385,0.502-0.552c-0.002-0.236-0.189-0.567-0.594-0.561c0,0,0,0-0.001,0
			c0,0-0.001,0-0.001,0s0,0-0.001,0c0,0,0,0-0.001,0s-0.001,0-0.001,0c0,0-0.001,0-0.001,0c-0.066,0.008-0.199,0.026-0.323,0.151
			C29.263,36.991,29.393,37.663,29.983,37.651z"/>
	</g>
	<g>
		<path fill="#FFFFFF" d="M28.949,43.821c0.031-0.032,0.042-0.084-0.136-0.074c-0.199,0.017-0.432,0.12-0.461,0.185
			c-0.007,0.017,0.004,0.026,0.027,0.031c0.079-0.006,0.158-0.012,0.235-0.02c0.097-0.019,0.199-0.048,0.263-0.077
			C28.91,43.851,28.934,43.835,28.949,43.821z"/>
	</g>
	<g>
		<path fill="#FFFFFF" d="M28.63,37.968L28.63,37.968h-0.001v0.001c-0.001,0-0.001,0-0.001,0c-0.521,0.039-0.709,0.586-0.436,0.914
			c0.314,0.377,0.963,0.167,1.006-0.328C29.22,38.277,29.03,37.979,28.63,37.968z"/>
	</g>
	<g>
		<path fill="#FFFFFF" d="M31.079,36.164L31.079,36.164h0.002h0.001c0.323-0.068,0.353-0.37,0.319-0.538
			c-0.045-0.221-0.254-0.521-0.583-0.496h-0.001l0,0c0,0.001-0.001,0.001-0.001,0.001s0,0,0,0h-0.001h-0.001
			c-0.053,0.011-0.136,0.028-0.215,0.116C30.32,35.559,30.579,36.21,31.079,36.164z"/>
	</g>
	<g>
		<path fill="#FFFFFF" d="M28.242,43.308c-0.205,0.012-0.31,0.084-0.354,0.125c-0.118,0.109-0.078,0.275,0.22,0.279h0h0.001h0l0,0
			h0.001h0.001c0.232-0.011,0.362-0.112,0.401-0.172C28.601,43.418,28.468,43.304,28.242,43.308z"/>
	</g>
	<g>
		<path fill="#FFFFFF" d="M33.715,34.079c0.06,0.148,0.16,0.338,0.252,0.491C33.891,34.401,33.806,34.239,33.715,34.079z"/>
	</g>
	<g>
		<path fill="#FFFFFF" d="M32.387,33.405c-0.019,0.012-0.025,0.023-0.028,0.029c-0.095,0.179,0.391,0.918,0.643,0.818
			c0.116-0.089,0-0.347-0.106-0.498C32.75,33.546,32.513,33.354,32.387,33.405z"/>
	</g>
	<g>
		<path fill="#FFFFFF" d="M32.431,34.01c-0.11-0.187-0.351-0.43-0.542-0.384c0,0,0,0-0.001,0h-0.001h-0.001
			c-0.005,0.004-0.015,0.008-0.021,0.011c-0.215,0.131,0.112,0.77,0.444,0.867C32.548,34.571,32.613,34.314,32.431,34.01z"/>
	</g>
	<g>
		<path fill="#FFFFFF" d="M27.239,41.711c-0.411,0.004-0.574,0.303-0.398,0.532c0.229,0.303,0.809,0.235,0.874-0.097
			C27.758,41.925,27.536,41.722,27.239,41.711z"/>
	</g>
	<g>
		<path fill="#FFFFFF" d="M27.231,40.616L27.231,40.616h-0.002h-0.001h0c0,0,0,0,0,0s0,0-0.001,0
			c-0.47,0.008-0.637,0.398-0.415,0.673c0.275,0.337,0.888,0.223,0.936-0.178C27.77,40.935,27.647,40.646,27.231,40.616z"/>
	</g>
	<g>
		<path fill="#FFFFFF" d="M29.859,36.277L29.859,36.277C29.86,36.277,29.86,36.277,29.859,36.277c0.341-0.047,0.41-0.341,0.4-0.487
			c-0.015-0.215-0.198-0.517-0.555-0.511c-0.055,0.008-0.169,0.023-0.268,0.131C29.184,35.684,29.335,36.29,29.859,36.277z"/>
	</g>
	<g>
		<path fill="#FFFFFF" d="M28.628,37.683C28.628,37.683,28.628,37.683,28.628,37.683c0.383-0.028,0.497-0.32,0.503-0.491
			c0.01-0.223-0.147-0.54-0.528-0.552c-0.152,0.005-0.26,0.072-0.326,0.129C27.936,37.07,28.088,37.666,28.628,37.683z"/>
	</g>
	<g>
		<path fill="#FFFFFF" d="M31.225,33.824c-0.001,0-0.001,0-0.001,0v0.001c-0.008,0.003-0.02,0.005-0.028,0.009
			c-0.273,0.109-0.064,0.715,0.298,0.862c0.279,0.11,0.438-0.138,0.288-0.461C31.697,34.049,31.459,33.79,31.225,33.824z"/>
	</g>
	<g>
		<path fill="#FFFFFF" d="M27.243,39.355L27.243,39.355L27.243,39.355l-0.001-0.001h0h0c-0.066,0.002-0.203,0.004-0.341,0.11
			c-0.35,0.263-0.212,0.833,0.325,0.881h0.001h0.001c0,0,0,0,0.001,0h0.001h0.001c0.378-0.005,0.514-0.268,0.535-0.417
			C27.795,39.709,27.652,39.387,27.243,39.355z"/>
	</g>
	<g>
		<path fill="#FFFFFF" d="M27.266,42.625L27.266,42.625C27.266,42.625,27.266,42.625,27.266,42.625L27.266,42.625h-0.002
			c-0.001,0-0.001,0-0.001,0c-0.34,0.003-0.475,0.214-0.345,0.387c0.191,0.252,0.709,0.215,0.761-0.057
			C27.702,42.832,27.589,42.647,27.266,42.625z"/>
	</g>
	<g>
		<path fill="#FFFFFF" d="M33.362,33.968L33.362,33.968v-0.002c0,0,0,0,0,0c0.057-0.09-0.087-0.335-0.199-0.478
			c-0.154-0.197-0.37-0.379-0.447-0.321h0c-0.005,0.007-0.011,0.019-0.012,0.028C32.68,33.374,33.205,34.077,33.362,33.968z"/>
	</g>
	<g>
		<path fill="#FFFFFF" d="M28.252,43.903c0.043-0.044,0.019-0.108-0.178-0.108h-0.001c-0.193,0.008-0.268,0.07-0.286,0.089
			c-0.034,0.032-0.039,0.075,0.044,0.095c0.071,0.001,0.141,0.001,0.212,0c0.098-0.015,0.166-0.042,0.197-0.065
			C28.243,43.91,28.249,43.907,28.252,43.903z"/>
	</g>
	<g>
		<path fill="#FFFFFF" d="M27.273,38.007C27.273,38.007,27.273,38.007,27.273,38.007h-0.001h-0.001h0h0
			c-0.064,0.002-0.193,0.003-0.326,0.104c-0.351,0.269-0.229,0.869,0.3,0.918h0h0.001h0.001h0c0.371-0.008,0.505-0.282,0.527-0.443
			C27.806,38.33,27.625,38.038,27.273,38.007z"/>
	</g>
	<g>
		<path fill="#FFFFFF" d="M30.404,33.989L30.404,33.989L30.404,33.989h-0.002c0,0,0,0,0,0c0,0.001,0,0.001,0,0.001
			c-0.036,0.006-0.093,0.021-0.143,0.077c-0.201,0.223,0.018,0.842,0.474,0.805h0c0,0,0,0,0,0c0-0.004,0-0.004,0-0.004h0.001
			c0.266-0.058,0.251-0.324,0.206-0.46C30.878,34.229,30.666,33.968,30.404,33.989z"/>
	</g>
	<g>
		<path fill="#FFFFFF" d="M32.865,32.924c0,0.015,0,0.027,0.02,0.066c0.082,0.171,0.453,0.623,0.578,0.677
			c-0.177-0.266-0.373-0.518-0.584-0.754C32.872,32.914,32.867,32.918,32.865,32.924z"/>
	</g>
	<g>
		<path fill="#FFFFFF" d="M27.303,43.326C27.303,43.326,27.303,43.326,27.303,43.326h-0.002c-0.28-0.001-0.35,0.14-0.274,0.237
			c0.135,0.184,0.568,0.173,0.607-0.014C27.654,43.468,27.563,43.342,27.303,43.326z"/>
	</g>
	<g>
		<path fill="#FFFFFF" d="M29.006,35.873c0.003-0.2-0.138-0.486-0.465-0.499h0H28.54c-0.001,0-0.001,0-0.001,0s0,0,0,0
			c0,0,0,0-0.001,0h0c-0.413,0.029-0.534,0.529-0.282,0.79C28.529,36.449,29,36.265,29.006,35.873z"/>
	</g>
	<g>
		<path fill="#FFFFFF" d="M27.31,36.685c-0.441-0.009-0.612,0.518-0.358,0.797c0.267,0.297,0.759,0.136,0.812-0.264
			C27.79,37.013,27.667,36.712,27.31,36.685z"/>
	</g>
	<g>
		<path fill="#FFFFFF" d="M29.372,34.885c0.264,0.189,0.624,0.034,0.557-0.332c-0.043-0.245-0.27-0.447-0.484-0.434
			C29.11,34.168,29.062,34.662,29.372,34.885z"/>
	</g>
	<g>
		<path fill="#FFFFFF" d="M25.966,41.373L25.966,41.373h0.001c0,0,0,0,0.001,0c0.382,0.016,0.41-0.273,0.412-0.306
			c0.015-0.237-0.205-0.457-0.479-0.482c-0.051-0.003-0.17-0.006-0.282,0.072C25.344,40.855,25.506,41.315,25.966,41.373z"/>
	</g>
	<g>
		<path fill="#FFFFFF" d="M31.084,32.665C31.084,32.665,31.084,32.665,31.084,32.665h-0.001c-0.01,0.006-0.021,0.012-0.027,0.021
			c-0.11,0.133,0.361,0.733,0.63,0.672h0.002c0.122-0.062,0.014-0.264-0.087-0.384C31.474,32.823,31.225,32.633,31.084,32.665z"/>
	</g>
	<g>
		<path fill="#FFFFFF" d="M26.108,42.341c0.001,0,0.001,0,0.001,0s0,0,0.001,0c0.277,0.014,0.354-0.154,0.355-0.252
			c0.002-0.134-0.121-0.361-0.461-0.403c-0.001,0-0.001,0-0.001,0h0h-0.001c-0.048-0.002-0.16-0.008-0.255,0.055
			C25.512,41.896,25.693,42.288,26.108,42.341z"/>
	</g>
	<g>
		<path fill="#FFFFFF" d="M32.127,33.153c0.111-0.003,0.069-0.177-0.147-0.392c-0.142-0.141-0.391-0.312-0.493-0.271
			c-0.003,0.003-0.008,0.006-0.01,0.01C31.386,32.613,31.927,33.158,32.127,33.153z"/>
	</g>
	<g>
		<path fill="#FFFFFF" d="M27.597,43.921c0.016-0.041-0.06-0.109-0.241-0.119h-0.001h-0.001c-0.175,0-0.219,0.058-0.196,0.098
			c0.009,0.017,0.028,0.03,0.051,0.042c0.105,0.011,0.211,0.02,0.319,0.026C27.563,43.958,27.589,43.942,27.597,43.921z"/>
	</g>
	<g>
		<path fill="#FFFFFF" d="M30.555,32.824h-0.001h0c-0.001,0-0.001,0-0.001,0c-0.011,0.004-0.027,0.009-0.037,0.017
			c-0.15,0.11,0.131,0.621,0.438,0.685c0.185,0.04,0.267-0.125,0.099-0.374C30.955,33.007,30.729,32.803,30.555,32.824z"/>
	</g>
	<g>
		<path fill="#FFFFFF" d="M25.557,40.061c0.272,0.288,0.746,0.166,0.78-0.197c0.02-0.188-0.113-0.481-0.46-0.529l0,0
			c0,0,0,0-0.002,0h-0.001C25.434,39.319,25.294,39.784,25.557,40.061z"/>
	</g>
	<g>
		<path fill="#FFFFFF" d="M26.593,42.907c-0.01-0.107-0.15-0.276-0.426-0.308c-0.02-0.002-0.049-0.003-0.08-0.002
			c-0.237,0.018-0.28,0.216-0.083,0.378C26.264,43.188,26.611,43.111,26.593,42.907z"/>
	</g>
	<g>
		<path fill="#FFFFFF" d="M32.433,32.911c0.081-0.013,0-0.174-0.223-0.367c-0.169-0.149-0.4-0.286-0.459-0.247
			C31.686,32.391,32.286,32.932,32.433,32.911z"/>
	</g>
	<g>
		<path fill="#FFFFFF" d="M29.896,32.962c-0.035,0.005-0.063,0.019-0.085,0.041c-0.149,0.158,0.088,0.688,0.448,0.659h0
			c0.2-0.045,0.151-0.26,0.096-0.368C30.282,33.146,30.09,32.946,29.896,32.962z"/>
	</g>
	<g>
		<path fill="#FFFFFF" d="M26.339,38.511c0.025-0.224-0.114-0.483-0.42-0.526c-0.432-0.014-0.594,0.468-0.349,0.751
			C25.829,39.038,26.296,38.9,26.339,38.511z"/>
	</g>
	<g>
		<path fill="#FFFFFF" d="M26.388,43.296L26.388,43.296h-0.001c0,0-0.001,0-0.001,0c-0.036-0.003-0.124-0.006-0.178,0.037
			c-0.102,0.088,0.081,0.272,0.352,0.303l0,0h0h0.001l0,0c0.208,0.01,0.193-0.099,0.189-0.121
			C26.732,43.441,26.609,43.321,26.388,43.296z"/>
	</g>
	<g>
		<path fill="#FFFFFF" d="M31.91,32.081c0,0.003,0,0.006,0,0.009c0.012,0.055,0.211,0.234,0.395,0.375
			c0.083,0.066,0.277,0.208,0.302,0.162c0-0.001-0.001-0.003-0.001-0.004c-0.187-0.186-0.385-0.359-0.592-0.521
			C31.959,32.075,31.92,32.064,31.91,32.081z"/>
	</g>
	<g>
		<path fill="#FFFFFF" d="M28.441,34.2C28.441,34.2,28.441,34.2,28.441,34.2c-0.35,0.03-0.415,0.5-0.172,0.705
			c0.241,0.205,0.584,0.026,0.563-0.295C28.823,34.452,28.691,34.211,28.441,34.2L28.441,34.2z"/>
	</g>
	<g>
		<path fill="#FFFFFF" d="M27.047,36.118c0.23,0.27,0.669,0.115,0.7-0.247c0.016-0.178-0.092-0.438-0.381-0.464
			C26.981,35.418,26.832,35.87,27.047,36.118z"/>
	</g>
	<g>
		<path fill="#FFFFFF" d="M29.079,33.074c-0.203,0.077-0.167,0.502,0.114,0.637c0.221,0.107,0.402-0.062,0.33-0.307
			c-0.043-0.145-0.204-0.343-0.396-0.341C29.113,33.065,29.092,33.068,29.079,33.074z"/>
	</g>
	<g>
		<path fill="#FFFFFF" d="M26.39,37.151c0.029-0.181-0.063-0.451-0.359-0.493c-0.389-0.012-0.563,0.444-0.355,0.704
			C25.898,37.635,26.333,37.51,26.39,37.151z"/>
	</g>
	<g>
		<path fill="#FFFFFF" d="M26.661,43.778L26.661,43.778c-0.001,0-0.001,0-0.001-0.002h0c0,0,0,0,0,0
			c-0.025-0.001-0.092-0.006-0.118,0.019c-0.012,0.011-0.012,0.026-0.001,0.041c0.138,0.028,0.276,0.054,0.416,0.074
			c-0.001-0.006-0.003-0.011-0.007-0.016C26.924,43.858,26.824,43.794,26.661,43.778z"/>
	</g>
	<g>
		<path fill="#FFFFFF" d="M24.65,40.497c-0.044-0.004-0.118-0.012-0.194,0.032c-0.245,0.138-0.1,0.583,0.292,0.661h0h0.001h0
			c0,0,0.001,0,0.001,0s0,0,0.001,0l0,0c0,0,0,0,0.001,0c0.309,0.031,0.317-0.219,0.317-0.247
			C25.07,40.743,24.871,40.529,24.65,40.497z"/>
	</g>
	<g>
		<path fill="#FFFFFF" d="M30.143,31.878c-0.031,0.07,0.429,0.524,0.621,0.48h0.001h0.001c0.079-0.044-0.051-0.189-0.158-0.274
			c-0.144-0.12-0.368-0.235-0.45-0.22C30.147,31.87,30.145,31.876,30.143,31.878z"/>
	</g>
	<g>
		<path fill="#FFFFFF" d="M25.267,41.976c-0.013-0.127-0.155-0.323-0.423-0.376c-0.027-0.003-0.062-0.006-0.098-0.001
			c-0.219,0.029-0.208,0.288,0.017,0.467C25.024,42.272,25.291,42.188,25.267,41.976z"/>
	</g>
	<g>
		<path fill="#FFFFFF" d="M31.11,32.199c0.076-0.015-0.019-0.136-0.201-0.261c-0.163-0.111-0.395-0.222-0.461-0.2h-0.002
			c0,0-0.002,0.002-0.003,0.004C30.397,31.825,30.982,32.226,31.11,32.199z"/>
	</g>
	<g>
		<path fill="#FFFFFF" d="M29.777,31.98c-0.005,0.003-0.015,0.007-0.02,0.013c-0.081,0.079,0.262,0.483,0.48,0.503
			c0.115,0.01,0.125-0.107-0.033-0.275C30.083,32.098,29.87,31.964,29.777,31.98z"/>
	</g>
	<g>
		<path fill="#FFFFFF" d="M24.609,40.023C24.609,40.023,24.609,40.023,24.609,40.023L24.609,40.023c0.001,0,0.001,0.001,0.001,0.001
			s0,0,0,0c0.262,0.021,0.346-0.174,0.355-0.291c0.011-0.168-0.101-0.427-0.386-0.482c-0.05-0.005-0.125-0.013-0.209,0.038
			C24.098,39.448,24.203,39.948,24.609,40.023z"/>
	</g>
	<g>
		<path fill="#FFFFFF" d="M31.353,32.016v-0.002c0.02-0.043-0.125-0.155-0.274-0.245c-0.17-0.098-0.391-0.192-0.432-0.165
			c0,0.003-0.001,0.004-0.003,0.006C30.642,31.664,31.265,32.075,31.353,32.016z"/>
	</g>
	<g>
		<path fill="#FFFFFF" d="M25.544,42.809c-0.03-0.092-0.165-0.248-0.399-0.29c-0.079-0.01-0.125,0.006-0.149,0.019
			c-0.148,0.085,0.064,0.375,0.373,0.432c0,0,0,0,0,0c0,0,0,0,0.001,0c0,0,0,0,0,0h0.001C25.598,42.99,25.55,42.827,25.544,42.809z"
			/>
	</g>
	<g>
		<path fill="#FFFFFF" d="M27.722,34.62c0.011-0.142-0.058-0.36-0.294-0.38h0h-0.001l0,0c-0.001,0-0.001,0-0.001,0h0
			c-0.312,0.012-0.426,0.421-0.238,0.616C27.378,35.057,27.698,34.917,27.722,34.62z"/>
	</g>
	<g>
		<path fill="#FFFFFF" d="M24.963,38.385c0.023-0.165-0.062-0.422-0.324-0.479h-0.001h0c0,0,0,0,0,0h0h0h-0.001h0
			c-0.352-0.03-0.489,0.371-0.296,0.631C24.537,38.806,24.915,38.711,24.963,38.385z"/>
	</g>
	<g>
		<path fill="#FFFFFF" d="M25.861,36.001c0.171,0.248,0.55,0.139,0.618-0.176c0.044-0.213-0.086-0.416-0.279-0.432
			C25.875,35.383,25.706,35.772,25.861,36.001z"/>
	</g>
	<g>
		<path fill="#FFFFFF" d="M28.318,33.136c-0.032,0.003-0.078,0.007-0.128,0.054c-0.163,0.152-0.103,0.553,0.199,0.57h0.001
			c0,0,0,0,0,0h0.001h0.001h0c0.197-0.017,0.232-0.201,0.223-0.296C28.6,33.286,28.461,33.133,28.318,33.136z"/>
	</g>
	<g>
		<path fill="#FFFFFF" d="M29.31,32.083c-0.008,0.001-0.02,0.005-0.028,0.008c-0.112,0.067,0.096,0.444,0.324,0.497
			c0.137,0.031,0.197-0.079,0.072-0.259C29.578,32.187,29.402,32.069,29.31,32.083z"/>
	</g>
	<g>
		<path fill="#FFFFFF" d="M25.537,43.228c-0.028-0.003-0.074-0.008-0.104,0.009c-0.091,0.05,0.078,0.214,0.287,0.276
			c0.149,0.045,0.23,0.013,0.182-0.071C25.852,43.351,25.673,43.247,25.537,43.228z"/>
	</g>
	<g>
		<path fill="#FFFFFF" d="M31.186,31.718c0.176,0.09,0.264,0.122,0.276,0.102c0-0.001,0-0.001,0-0.001
			c-0.008-0.046-0.163-0.146-0.304-0.222c-0.177-0.093-0.37-0.159-0.387-0.137v0.002c0.002,0.001,0.002,0.005,0.002,0.005
			C30.792,31.506,31.052,31.649,31.186,31.718z"/>
	</g>
	<g>
		<path fill="#FFFFFF" d="M28.759,32.161c-0.019,0.003-0.036,0.006-0.054,0.022c-0.104,0.102,0.031,0.469,0.268,0.467c0,0,0,0,0,0h0
			c0.125-0.021,0.115-0.154,0.077-0.242C29.007,32.305,28.881,32.161,28.759,32.161z"/>
	</g>
	<g>
		<path fill="#FFFFFF" d="M24.807,36.584c-0.284-0.037-0.488,0.333-0.321,0.582c0.164,0.241,0.514,0.152,0.578-0.149
			C25.096,36.867,25.038,36.632,24.807,36.584z"/>
	</g>
	<g>
		<path fill="#FFFFFF" d="M27.702,33.479c0.022-0.158-0.074-0.306-0.201-0.312c-0.218,0.007-0.312,0.32-0.189,0.474
			C27.439,33.799,27.672,33.702,27.702,33.479z"/>
	</g>
	<g>
		<path fill="#FFFFFF" d="M26.607,34.593c0.052-0.181-0.037-0.35-0.193-0.362c-0.244-0.008-0.396,0.3-0.299,0.486
			C26.229,34.929,26.531,34.851,26.607,34.593z"/>
	</g>
	<g>
		<path fill="#FFFFFF" d="M24.147,41.79c-0.029-0.103-0.158-0.273-0.351-0.324c0,0,0,0,0,0h-0.001h-0.001
			c-0.029-0.004-0.079-0.012-0.119,0.014c-0.133,0.085,0.045,0.401,0.315,0.475h0.001h0.001
			C24.197,41.986,24.153,41.81,24.147,41.79z"/>
	</g>
	<g>
		<path fill="#FFFFFF" d="M23.848,40.747c-0.009-0.121-0.118-0.32-0.328-0.378l0-0.001h0h-0.001h-0.001l0,0
			c-0.023-0.004-0.051-0.008-0.078-0.005c-0.196,0.024-0.173,0.319,0.037,0.492C23.662,41.012,23.864,40.951,23.848,40.747z"/>
	</g>
	<g>
		<path fill="#FFFFFF" d="M29.693,31.555c0.034-0.012-0.027-0.074-0.182-0.158c-0.128-0.072-0.32-0.148-0.368-0.141
			c0,0.001-0.001,0.002-0.002,0.002C29.131,31.312,29.628,31.579,29.693,31.555z"/>
	</g>
	<g>
		<path fill="#FFFFFF" d="M29.926,31.452c0.024-0.014-0.062-0.08-0.229-0.151c-0.155-0.067-0.352-0.127-0.386-0.117
			c0,0-0.001,0.002-0.003,0.002C29.323,31.236,29.883,31.478,29.926,31.452z"/>
	</g>
	<g>
		<path fill="#FFFFFF" d="M23.689,39.509c-0.001-0.173-0.142-0.364-0.295-0.396c-0.015-0.003-0.035-0.006-0.05-0.005
			c-0.229,0.008-0.276,0.344-0.076,0.545C23.451,39.839,23.691,39.757,23.689,39.509z"/>
	</g>
	<g>
		<path fill="#FFFFFF" d="M29.376,31.642L29.376,31.642h0.001c0.048-0.019-0.027-0.099-0.124-0.166
			c-0.104-0.072-0.273-0.158-0.33-0.155c-0.001,0.001-0.002,0.001-0.004,0.002C28.887,31.351,29.249,31.655,29.376,31.642z"/>
	</g>
	<g>
		<path fill="#FFFFFF" d="M24.228,42.399c-0.021-0.005-0.058-0.011-0.086,0c-0.115,0.049,0.081,0.287,0.299,0.367
			c0.139,0.049,0.18-0.017,0.137-0.104C24.523,42.553,24.356,42.427,24.228,42.399z"/>
	</g>
	<g>
		<path fill="#FFFFFF" d="M30.068,31.334c0.006-0.022-0.127-0.084-0.257-0.13c-0.161-0.061-0.356-0.11-0.385-0.101l0,0
			C29.423,31.136,30.022,31.353,30.068,31.334z"/>
	</g>
	<g>
		<path fill="#FFFFFF" d="M28.173,32.213L28.173,32.213L28.173,32.213c-0.017,0.001-0.04,0.004-0.064,0.028
			c-0.105,0.1-0.059,0.405,0.139,0.418h0.001h0.001h0c0.126-0.013,0.137-0.143,0.124-0.215
			C28.359,32.356,28.284,32.218,28.173,32.213z"/>
	</g>
	<g>
		<path fill="#FFFFFF" d="M24.933,35.942L24.933,35.942h0.001c0,0,0,0,0,0h0.001c0,0,0,0,0,0.001
			c0.193,0.012,0.295-0.146,0.327-0.244c0.039-0.128,0.01-0.33-0.182-0.369c-0.057-0.007-0.112,0.005-0.166,0.034
			C24.679,35.5,24.648,35.885,24.933,35.942z"/>
	</g>
	<g>
		<path fill="#FFFFFF" d="M23.682,38.179c0.03-0.184-0.075-0.371-0.228-0.406c-0.007,0-0.016-0.003-0.024-0.003
			c-0.22-0.019-0.366,0.313-0.173,0.542C23.406,38.491,23.646,38.416,23.682,38.179z"/>
	</g>
	<g>
		<path fill="#FFFFFF" d="M28.979,31.705c0.064,0.003,0.04-0.077-0.055-0.167c-0.067-0.066-0.201-0.156-0.261-0.154
			c-0.004,0-0.009,0.003-0.011,0.005C28.61,31.431,28.858,31.704,28.979,31.705z"/>
	</g>
	<g>
		<path fill="#FFFFFF" d="M24.787,43.126c-0.025-0.006-0.057-0.009-0.069,0.005c-0.004,0.005-0.004,0.011-0.003,0.018
			c0.139,0.078,0.281,0.15,0.427,0.217c-0.001-0.014-0.015-0.036-0.041-0.062C25.05,43.253,24.919,43.157,24.787,43.126z"/>
	</g>
	<g>
		<path fill="#FFFFFF" d="M28.35,31.434c-0.003,0.002-0.009,0.003-0.012,0.005c-0.058,0.037,0.063,0.27,0.179,0.296
			c0.06,0.015,0.083-0.045,0.021-0.145C28.491,31.515,28.4,31.432,28.35,31.434z"/>
	</g>
	<g>
		<path fill="#FFFFFF" d="M26.79,33.421c0.025-0.092,0.017-0.233-0.113-0.253h-0.001c0,0,0,0,0,0h0
			c-0.171-0.001-0.311,0.241-0.221,0.384C26.533,33.688,26.735,33.609,26.79,33.421z"/>
	</g>
	<g>
		<path fill="#FFFFFF" d="M23.832,36.828c0.052-0.164-0.021-0.328-0.155-0.357c-0.237-0.036-0.364,0.263-0.247,0.456
			C23.543,37.116,23.771,37.027,23.832,36.828z"/>
	</g>
	<g>
		<path fill="#FFFFFF" d="M30.156,31.166c0,0,0-0.001,0.001-0.001c-0.017-0.02-0.129-0.059-0.254-0.09
			c-0.123-0.031-0.277-0.06-0.292-0.048C29.658,31.062,30.095,31.186,30.156,31.166z"/>
	</g>
	<g>
		<path fill="#FFFFFF" d="M25.538,34.474c0.051-0.128,0.027-0.271-0.103-0.29c-0.2-0.017-0.348,0.246-0.269,0.396
			C25.243,34.728,25.459,34.665,25.538,34.474z"/>
	</g>
	<g>
		<path fill="#FFFFFF" d="M27.691,32.45c0.008-0.075-0.016-0.191-0.113-0.203l0,0c0,0,0,0,0,0c-0.131,0.008-0.203,0.235-0.107,0.337
			C27.551,32.671,27.676,32.596,27.691,32.45z"/>
	</g>
	<g>
		<path fill="#FFFFFF" d="M28.581,30.949c0,0,0,0,0-0.002c-0.014-0.012-0.104-0.036-0.21-0.059
			c-0.113-0.023-0.248-0.047-0.271-0.049C28.102,30.842,28.555,30.951,28.581,30.949L28.581,30.949z"/>
	</g>
	<g>
		<path fill="#FFFFFF" d="M22.535,40.19c-0.019-0.005-0.036-0.009-0.058-0.003c-0.122,0.031-0.045,0.293,0.119,0.399
			c0.105,0.068,0.185,0.019,0.165-0.106C22.739,40.357,22.638,40.223,22.535,40.19z"/>
	</g>
	<g>
		<path fill="#FFFFFF" d="M28.495,30.985c-0.011-0.009-0.085-0.038-0.177-0.066c-0.11-0.032-0.238-0.062-0.254-0.062
			C28.065,30.858,28.474,30.995,28.495,30.985z"/>
	</g>
	<g>
		<path fill="#FFFFFF" d="M22.904,41.301c-0.016-0.005-0.042-0.011-0.063-0.002c-0.082,0.043,0.064,0.297,0.24,0.364
			c0.001,0,0.001,0,0.001,0h0.001c0,0,0,0,0,0.001c0.12,0.031,0.075-0.096,0.07-0.11C23.123,41.477,23.025,41.345,22.904,41.301z"/>
	</g>
	<g>
		<path fill="#FFFFFF" d="M22.55,39.256c0.002-0.101-0.051-0.263-0.179-0.315c0,0,0,0-0.001,0c0,0,0,0,0,0h0h-0.001
			c-0.018-0.005-0.036-0.01-0.062-0.001c-0.141,0.046-0.104,0.375,0.093,0.455h0.001h0.001h0c0,0,0,0,0,0
			C22.542,39.429,22.55,39.274,22.55,39.256z"/>
	</g>
	<g>
		<path fill="#FFFFFF" d="M24.132,35.502c0.035-0.089,0.028-0.234-0.096-0.269c-0.16-0.031-0.318,0.213-0.238,0.37
			C23.873,35.748,24.07,35.665,24.132,35.502z"/>
	</g>
	<g>
		<path fill="#FFFFFF" d="M28.011,31.474c-0.001,0-0.003,0-0.005,0.002c-0.06,0.015-0.048,0.196,0.035,0.243
			c0.054,0.032,0.1-0.014,0.077-0.106C28.099,31.538,28.048,31.474,28.011,31.474z"/>
	</g>
	<g>
		<path fill="#FFFFFF" d="M28.374,31.018c-0.003-0.01-0.063-0.041-0.142-0.075c-0.085-0.034-0.194-0.069-0.206-0.07
			C28.026,30.876,28.359,31.027,28.374,31.018z"/>
	</g>
	<g>
		<path fill="#FFFFFF" d="M28.623,30.902c-0.018-0.011-0.109-0.026-0.21-0.044c-0.122-0.02-0.253-0.031-0.275-0.032
			C28.141,30.827,28.614,30.908,28.623,30.902z"/>
	</g>
	<g>
		<path fill="#FFFFFF" d="M28.217,31.033c0.001-0.008-0.036-0.036-0.094-0.069c-0.055-0.034-0.131-0.072-0.144-0.072l0,0
			C27.99,30.906,28.2,31.047,28.217,31.033z"/>
	</g>
	<g>
		<path fill="#FFFFFF" d="M22.379,38.04c0.001,0,0.001,0,0.001,0s0,0,0.001,0c0.105,0.021,0.151-0.083,0.162-0.15
			c0.013-0.085-0.009-0.23-0.125-0.274h0c0,0,0,0-0.001,0h0c-0.001,0-0.001,0-0.001,0c-0.016-0.003-0.042-0.009-0.071,0.005
			C22.214,37.679,22.213,37.975,22.379,38.04z"/>
	</g>
	<g>
		<path fill="#FFFFFF" d="M28.62,30.854c-0.021-0.007-0.107-0.018-0.201-0.026c-0.104-0.012-0.221-0.02-0.242-0.019
			C28.18,30.811,28.597,30.859,28.62,30.854z"/>
	</g>
	<g>
		<path fill="#FFFFFF" d="M27.006,32.417c0.032-0.076,0.012-0.151-0.042-0.156c-0.095,0-0.177,0.152-0.146,0.231
			C26.85,32.568,26.961,32.526,27.006,32.417z"/>
	</g>
	<g>
		<path fill="#FFFFFF" d="M25.722,33.454L25.722,33.454h0.002h0c0.108,0.008,0.17-0.106,0.179-0.123
			c0.047-0.09,0.031-0.178-0.037-0.188c-0.015-0.001-0.036-0.002-0.075,0.017C25.664,33.228,25.6,33.425,25.722,33.454z"/>
	</g>
	<g>
		<path fill="#FFFFFF" d="M27.697,31.606c0.004-0.037-0.003-0.097-0.038-0.103h-0.001c-0.053,0.004-0.087,0.129-0.049,0.177
			C27.635,31.712,27.688,31.69,27.697,31.606z"/>
	</g>
	<g>
		<path fill="#FFFFFF" d="M24.369,34.409L24.369,34.409L24.369,34.409c0.082,0.01,0.154-0.066,0.181-0.118
			c0.031-0.061,0.041-0.158-0.038-0.181c-0.018-0.004-0.047-0.004-0.083,0.015C24.314,34.186,24.256,34.375,24.369,34.409z"/>
	</g>
	<g>
		<path fill="#FFFFFF" d="M22.738,36.532c0.028-0.092-0.004-0.188-0.068-0.208c-0.003,0-0.007-0.002-0.01-0.002
			c-0.104-0.017-0.204,0.169-0.126,0.289C22.591,36.699,22.705,36.657,22.738,36.532z"/>
	</g>
	<g>
		<path fill="#FFFFFF" d="M28.039,31.037c0.009,0,0-0.021-0.035-0.056c-0.027-0.027-0.074-0.066-0.085-0.067h-0.001
			C27.915,30.925,28.014,31.035,28.039,31.037z"/>
	</g>
	<g>
		<path fill="#FFFFFF" d="M28.561,30.808c-0.013-0.005-0.083-0.01-0.161-0.015c-0.076-0.004-0.17-0.005-0.184-0.004
			C28.219,30.789,28.55,30.812,28.561,30.808z"/>
	</g>
	<g>
		<path fill="#FFFFFF" d="M23.117,35.247c0.018-0.035,0.035-0.107-0.02-0.129l0,0c-0.078-0.019-0.148,0.101-0.118,0.171
			C23.006,35.355,23.082,35.321,23.117,35.247z"/>
	</g>
	<g>
		<path fill="#FFFFFF" d="M27.871,31.022c0.008,0.003,0.008-0.013-0.004-0.039c-0.004-0.013-0.02-0.045-0.027-0.046
			c-0.001,0-0.001,0-0.001,0C27.829,30.945,27.856,31.019,27.871,31.022z"/>
	</g>
	<g>
		<path fill="#FFFFFF" d="M26.341,32.348c0.009-0.011,0.015-0.024,0.017-0.036c0.002-0.01,0.002-0.021,0.002-0.031
			c0-0.012-0.011-0.02-0.023-0.017c-0.057,0.017-0.098,0.084-0.09,0.113C26.254,32.406,26.311,32.394,26.341,32.348z"/>
	</g>
	<g>
		<path fill="#FFFFFF" d="M28.498,30.765c-0.046-0.002-0.095-0.004-0.14-0.004c-0.033,0-0.089,0.002-0.097,0.004
			C28.263,30.766,28.263,30.766,28.498,30.765z"/>
	</g>
	<path fill="#FFFFFF" d="M18.638,27.172c-0.186-0.083-0.309,0.096-0.269,0.215c0.059,0.172,0.27,0.131,0.363,0.054
		c0.177-0.149,0.101-0.348,0.151-0.499C18.935,26.794,18.776,27.235,18.638,27.172z"/>
	<path fill="#FFFFFF" d="M37.918,13.919c0.011,0.053,0.021,0.106,0.031,0.156c0.261,1.809,0.251,2.735,0.111,3.547
		c-0.187,1.077-0.519,2.098-1.221,3.239c-0.566,0.896-1.404,1.78-2.427,2.82l-0.002,0.001c-0.064,0.066-0.134,0.143-0.204,0.22
		c-0.004,0.004-0.006,0.007-0.009,0.011c-0.07,0.078-0.142,0.163-0.21,0.251c-0.012,0.016-0.024,0.029-0.035,0.045
		c-0.092,0.12-0.178,0.248-0.251,0.377c-0.01,0.015-0.018,0.03-0.027,0.048c-0.017,0.031-0.035,0.065-0.051,0.096
		c-0.007,0.017-0.015,0.033-0.022,0.049c-0.016,0.032-0.028,0.064-0.041,0.097c-0.032,0.081-0.056,0.161-0.071,0.24
		c-0.135,0.696,0.123,1.735,1.357,1.731c0.033,0,0.068-0.002,0.101-0.003c0.033-0.001,0.064-0.003,0.096-0.006
		c0.818-0.071,2.012-0.56,3.713-1.784l1.378-0.963c0.026-0.018,0.071-0.027,0.11-0.027c0.051,0.001,0.097,0.016,0.092,0.047
		c-0.001,0.003-0.004,0.009-0.005,0.014c-1.159,1.943-1.573,2.996-1.741,3.671c-0.007,0.024-0.013,0.05-0.019,0.074
		c-0.017,0.07-0.031,0.136-0.043,0.201c-0.004,0.021-0.008,0.041-0.011,0.061c-0.003,0.02-0.007,0.04-0.01,0.059
		c-0.001,0.011-0.003,0.021-0.004,0.03c-0.003,0.02-0.005,0.038-0.007,0.057c-0.005,0.036-0.011,0.072-0.015,0.107
		c-0.002,0.018-0.004,0.035-0.006,0.051c-0.002,0.018-0.004,0.034-0.006,0.05c-0.004,0.034-0.008,0.065-0.011,0.097
		c-0.001,0.017-0.003,0.032-0.005,0.048c-0.003,0.014-0.005,0.031-0.007,0.045c-0.001,0.015-0.003,0.03-0.005,0.046
		c-0.004,0.021-0.007,0.044-0.01,0.065c-0.001,0.009-0.003,0.018-0.004,0.025c-0.042,0.266-0.125,0.519-0.383,0.905
		c-0.612,0.912-1.314,1.582-1.973,2.07c-0.033,0.024-0.066,0.05-0.098,0.074c-0.103,0.072-0.205,0.144-0.305,0.209
		c-0.036,0.024-0.07,0.045-0.104,0.065c-0.034,0.022-0.07,0.044-0.105,0.063c-0.021,0.015-0.041,0.027-0.062,0.039
		c-0.033,0.022-0.064,0.041-0.095,0.058c-0.027,0.016-0.054,0.032-0.081,0.047c-0.016,0.011-0.033,0.019-0.05,0.027
		c-0.05,0.028-0.098,0.056-0.148,0.082c-0.016,0.008-0.032,0.016-0.048,0.026c-0.144,0.074-0.278,0.138-0.403,0.194
		c-0.015,0.006-0.027,0.012-0.041,0.021c-0.021,0.007-0.039,0.017-0.058,0.024c-0.02,0.01-0.042,0.018-0.062,0.026
		c-0.448-0.633-0.986-1.198-1.595-1.676c-0.173-0.134-0.348-0.259-0.529-0.38c-0.03-0.021-0.06-0.039-0.09-0.057
		c-0.098-0.063-0.198-0.123-0.3-0.184c-0.037-0.022-0.077-0.043-0.115-0.065c-0.17-0.093-0.344-0.184-0.521-0.265
		c-0.034-0.016-0.066-0.03-0.099-0.044c-0.127-0.059-0.258-0.112-0.388-0.161c-0.188-0.074-0.378-0.139-0.572-0.196
		c-0.065-0.02-0.13-0.037-0.196-0.057c-0.045-0.011-0.093-0.023-0.14-0.038c-0.156-0.038-0.312-0.073-0.472-0.101
		c-0.088-0.017-0.179-0.031-0.27-0.046c-0.391-0.059-0.792-0.091-1.2-0.091c-1.462,0-2.833,0.396-4.01,1.085
		c-0.308,0.181-0.65,0.269-0.99,0.265c0,0,0,0-0.001,0c-0.024,0-0.047,0-0.07-0.002c-0.003,0-0.004,0-0.004,0
		c-0.023-0.001-0.046-0.003-0.068-0.006c-0.04-0.002-0.078-0.009-0.116-0.014c-0.045-0.007-0.088-0.016-0.132-0.024
		c-0.014-0.003-0.029-0.005-0.044-0.009c-0.014-0.003-0.028-0.009-0.044-0.012c-0.02-0.006-0.041-0.012-0.061-0.018
		c-0.035-0.011-0.069-0.021-0.105-0.035c-0.062-0.022-0.125-0.049-0.185-0.077c-0.01-0.006-0.02-0.01-0.029-0.015
		c-0.035-0.018-0.071-0.038-0.107-0.059c-0.018-0.011-0.033-0.021-0.052-0.032c-0.025-0.016-0.053-0.033-0.078-0.05
		c-0.006-0.006-0.014-0.01-0.021-0.015c-0.037-0.027-0.074-0.055-0.108-0.086c-0.129-0.104-0.25-0.209-0.37-0.31
		c-0.004-0.004-0.009-0.009-0.013-0.011c-0.055-0.046-0.111-0.093-0.163-0.14c-0.1-0.083-0.196-0.165-0.289-0.244
		c-0.016-0.015-0.031-0.026-0.047-0.038c-0.004-0.004-0.01-0.01-0.014-0.012c-0.017-0.014-0.034-0.027-0.052-0.041
		c-0.004-0.004-0.009-0.008-0.014-0.013c-0.038-0.029-0.077-0.062-0.113-0.091c-0.059-0.047-0.118-0.092-0.175-0.135
		c-0.014-0.011-0.027-0.021-0.041-0.03c-0.006-0.006-0.014-0.012-0.021-0.017c-0.013-0.012-0.026-0.021-0.04-0.03
		c-0.329-0.237-0.642-0.414-0.976-0.502c-0.003,0-0.009-0.001-0.014-0.002c-0.236-0.061-0.482-0.077-0.75-0.036
		c-0.014,0.001-0.027,0.003-0.041,0.006c-0.378,0.063-0.801,0.236-1.302,0.542c0.003-0.003,0.01-0.009,0.02-0.016
		c0,0,0.001,0,0.001-0.001c0.001-0.001,0.004-0.003,0.007-0.004c0.001-0.001,0.001-0.002,0.002-0.003
		c0.002-0.001,0.003-0.001,0.004-0.003c0.002-0.002,0.003-0.004,0.006-0.005c0,0,0,0,0,0c0.005-0.006,0.013-0.013,0.021-0.02
		c0.004-0.006,0.01-0.012,0.016-0.016c0-0.001,0-0.001,0-0.001c0.021-0.022,0.045-0.051,0.071-0.087
		c0.002-0.004,0.002-0.007,0.005-0.01c0.017-0.025,0.034-0.053,0.05-0.084c0.004-0.009,0.009-0.017,0.014-0.025
		c0.005-0.013,0.012-0.025,0.017-0.037c0.013-0.024,0.022-0.049,0.032-0.076c0.001-0.005,0.003-0.009,0.005-0.014
		c0.008-0.02,0.015-0.041,0.022-0.063c0.002-0.007,0.003-0.016,0.006-0.024c0.006-0.023,0.013-0.047,0.02-0.072
		c0.022-0.092,0.041-0.197,0.053-0.318c0-0.002,0-0.005,0-0.007c0.002-0.04,0.005-0.079,0.007-0.122c0,0,0-0.002,0-0.003
		c0.001-0.03,0.002-0.06,0.002-0.089c0-0.016,0-0.033,0-0.049c0-0.048-0.001-0.099-0.003-0.15c-0.001-0.018-0.001-0.034-0.002-0.053
		c-0.005-0.089-0.014-0.182-0.026-0.283c-0.282-2.267,1.59-2.865,4.347-1.846c0.071,0.025,0.145,0.045,0.225,0.076
		c0.165,0.059,0.624,0.226,1.23,0.248c0.433,0.011,1.758-0.208,1.263-0.359c-6.835-2.091-5.632-5.573-4.218-9.338
		c1.087-2.894,0.646-3.54,0.444-4.108c-5.264,2.345-9.135,7.242-10.045,13.12c-0.109,0.795-0.17,1.604-0.181,2.426
		c-0.092,7.002,4.009,13.093,9.952,15.896c2.215,1.035,4.687,1.609,7.293,1.609c9.538,0,17.27-7.729,17.27-17.269
		C45.196,22.191,42.323,17.049,37.918,13.919z M34.563,37.678c-0.026,0.516-0.112,1.013-0.248,1.488
		c-0.023,0.079-0.047,0.155-0.072,0.23c-0.1,0.306-0.22,0.6-0.359,0.883c-0.072,0.144-0.148,0.284-0.228,0.42
		c-0.463,0.786-1.082,1.468-1.815,2.001c-0.183,0.135-0.371,0.261-0.567,0.373c-0.178,0.105-0.361,0.2-0.548,0.287
		c-0.018,0.008-0.036,0.017-0.053,0.026c-0.188,0.086-0.38,0.161-0.578,0.231c-0.015,0.005-0.029,0.009-0.044,0.014
		c-0.205,0.069-0.414,0.127-0.627,0.177c-0.042,0.011-0.083,0.02-0.123,0.028c-0.136,0.028-0.271,0.054-0.407,0.073
		c-0.093,0.014-0.186,0.023-0.28,0.033c-0.078,0.008-0.156,0.014-0.235,0.02c-0.036,0.003-0.073,0.006-0.11,0.009
		c-0.076,0.003-0.151,0.006-0.227,0.007c-0.071,0.001-0.141,0.001-0.212,0c-0.102-0.001-0.203-0.005-0.304-0.011
		c-0.107-0.007-0.213-0.016-0.319-0.026c-0.084-0.009-0.169-0.02-0.253-0.031c-0.139-0.021-0.277-0.046-0.416-0.074
		c-0.487-0.105-0.956-0.265-1.398-0.471c-0.146-0.066-0.288-0.139-0.427-0.217c-2.141-1.188-3.565-3.524-3.431-6.163
		c0.175-3.394,2.898-6.118,6.294-6.292c1.672-0.085,3.222,0.455,4.436,1.408c0.208,0.162,0.405,0.336,0.592,0.521
		c0.094,0.095,0.186,0.19,0.273,0.29c0.212,0.236,0.407,0.488,0.584,0.754c0.089,0.135,0.173,0.271,0.252,0.412
		c0.091,0.16,0.176,0.322,0.252,0.491c0.136,0.292,0.25,0.598,0.341,0.91c0.075,0.259,0.135,0.524,0.179,0.794
		c0.015,0.091,0.027,0.184,0.039,0.274C34.569,36.918,34.583,37.296,34.563,37.678z"/>
	<path fill="#FFFFFF" d="M27.417,20.217c-1.997,4.359,2.07,4.9,2.072,4.9c-1.717-0.804-1.477-2.443-1.477-2.443
		c0.063-0.53,0.222-1.044,0.453-1.527c1.922-4.012,2.447-7.092,1.527-9.166c-0.349-0.784-1.13-1.292-1.988-1.292
		c-0.006,0-0.01,0-0.014,0c-0.983,0-1.946,0.083-2.884,0.24C29.198,12.602,29.136,16.465,27.417,20.217z"/>
	<path fill="#FFFFFF" d="M27.924,0.076C12.502,0.076,0,12.577,0,28s12.502,27.923,27.924,27.923
		c15.421,0,27.923-12.501,27.923-27.923S43.345,0.076,27.924,0.076z M27.924,46.569c-10.255,0-18.57-8.315-18.57-18.57
		c0-10.256,8.315-18.57,18.57-18.57c10.256,0,18.57,8.314,18.57,18.57C46.494,38.254,38.18,46.569,27.924,46.569z"/>
</g>
<g>
	<path fill="#FFFFFF" d="M69.277,19.299H76.1c5.499,0,9.298,3.774,9.298,8.698v0.05c0,4.924-3.799,8.749-9.298,8.749h-6.823V19.299z
		 M76.1,33.32c3.149,0,5.273-2.125,5.273-5.224v-0.05c0-3.099-2.124-5.273-5.273-5.273h-2.974V33.32H76.1z"/>
	<path fill="#FFFFFF" d="M88.052,28.097v-0.05c0-4.974,3.924-9.048,9.323-9.048c5.398,0,9.272,4.024,9.272,8.998v0.05
		c0,4.974-3.924,9.047-9.322,9.047C91.926,37.094,88.052,33.07,88.052,28.097z M102.623,28.097v-0.05
		c0-2.999-2.199-5.499-5.298-5.499c-3.1,0-5.249,2.45-5.249,5.449v0.05c0,3,2.2,5.499,5.299,5.499S102.623,31.096,102.623,28.097z"
		/>
	<path fill="#FFFFFF" d="M110.077,19.299h3.549l8.198,10.772V19.299h3.799v17.496h-3.274l-8.473-11.123v11.123h-3.799V19.299z"/>
	<path fill="#FFFFFF" d="M135.825,19.174h3.549l7.499,17.621h-4.024l-1.6-3.924h-7.398l-1.6,3.924h-3.924L135.825,19.174z
		 M139.874,29.471l-2.324-5.673l-2.325,5.673H139.874z"/>
	<path fill="#FFFFFF" d="M147.677,28.097v-0.05c0-4.974,3.749-9.048,9.123-9.048c3.299,0,5.274,1.1,6.898,2.7l-2.449,2.824
		c-1.35-1.225-2.725-1.975-4.474-1.975c-2.949,0-5.074,2.45-5.074,5.449v0.05c0,3,2.075,5.499,5.074,5.499
		c2,0,3.224-0.799,4.599-2.049l2.449,2.475c-1.799,1.924-3.799,3.123-7.173,3.123C151.501,37.094,147.677,33.12,147.677,28.097z"/>
	<path fill="#FFFFFF" d="M167.076,19.299h3.849v17.496h-3.849V19.299z"/>
	<path fill="#FFFFFF" d="M174.526,28.097v-0.05c0-4.974,3.924-9.048,9.323-9.048c5.398,0,9.272,4.024,9.272,8.998v0.05
		c0,4.974-3.923,9.047-9.322,9.047C178.4,37.094,174.526,33.07,174.526,28.097z M189.098,28.097v-0.05
		c0-2.999-2.199-5.499-5.298-5.499c-3.1,0-5.249,2.45-5.249,5.449v0.05c0,3,2.2,5.499,5.299,5.499S189.098,31.096,189.098,28.097z"
		/>
	<path fill="#FFFFFF" d="M196.551,19.299h3.549l8.199,10.772V19.299h3.799v17.496h-3.275l-8.473-11.123v11.123h-3.799V19.299z"/>
	<path fill="#FFFFFF" d="M216.301,19.299h13.197v3.424h-9.373v3.549h8.248v3.424h-8.248v3.674h9.498v3.425h-13.322V19.299z"/>
	<path fill="#FFFFFF" d="M231.852,34.245l2.273-2.725c1.576,1.3,3.225,2.124,5.225,2.124c1.574,0,2.523-0.624,2.523-1.648v-0.051
		c0-0.975-0.6-1.475-3.523-2.225c-3.523-0.899-5.799-1.874-5.799-5.348v-0.05c0-3.174,2.551-5.273,6.123-5.273
		c2.551,0,4.725,0.8,6.5,2.225l-2,2.899c-1.549-1.075-3.074-1.725-4.549-1.725s-2.25,0.675-2.25,1.525v0.05
		c0,1.15,0.75,1.525,3.775,2.299c3.549,0.925,5.547,2.2,5.547,5.249v0.051c0,3.474-2.648,5.424-6.422,5.424
		C236.625,37.045,233.951,36.119,231.852,34.245z"/>
	<path fill="#FFFFFF" d="M256.551,19.299h13.197v3.424h-9.373v3.549h8.248v3.424h-8.248v3.674h9.498v3.425h-13.322V19.299z"/>
	<path fill="#FFFFFF" d="M273.301,19.299h3.549l8.199,10.772V19.299h3.799v17.496h-3.275L277.1,25.672v11.123h-3.799V19.299z"/>
	<path fill="#FFFFFF" d="M300.551,19.299h3.85v13.996h8.723v3.5h-12.572V19.299z"/>
	<path fill="#FFFFFF" d="M316.201,19.299h3.848v17.496h-3.848V19.299z M319.6,14l3.275,1.425l-3.4,2.499h-2.898L319.6,14z"/>
	<path fill="#FFFFFF" d="M324.426,19.299h3.549l8.199,10.772V19.299h3.799v17.496h-3.275l-8.473-11.123v11.123h-3.799V19.299z"/>
	<path fill="#FFFFFF" d="M344.176,19.299h13.197v3.424H348v3.549h8.248v3.424H348v3.674h9.498v3.425h-13.322V19.299z"/>
	<path fill="#FFFFFF" d="M366.924,19.174h3.551l7.498,17.621h-4.025l-1.6-3.924h-7.398l-1.6,3.924h-3.924L366.924,19.174z
		 M370.975,29.471l-2.326-5.673l-2.324,5.673H370.975z"/>
</g>
</svg>
