<?xml version="1.0" encoding="utf-8"?>
<!-- Generator: Adobe Illustrator 16.0.0, SVG Export Plug-In . SVG Version: 6.00 Build 0)  -->
<!DOCTYPE svg PUBLIC "-//W3C//DTD SVG 1.1//EN" "http://www.w3.org/Graphics/SVG/1.1/DTD/svg11.dtd">
<svg version="1.1" id="Layer_1" xmlns="http://www.w3.org/2000/svg" xmlns:xlink="http://www.w3.org/1999/xlink" x="0px" y="0px"
	 width="50px" height="50px" viewBox="0 0 50 50" enable-background="new 0 0 50 50" xml:space="preserve">
<g>
	<g>
		<g>
			<g>
				<g>
					<path fill="#FFFFFF" d="M38.496,21.649h-2.747c-0.188,0-0.349,0.137-0.377,0.323l-1.11,7.045
						c-0.023,0.139,0.084,0.265,0.226,0.265h1.409c0.132,0,0.244-0.096,0.264-0.225l0.315-1.998
						c0.029-0.187,0.189-0.322,0.377-0.322h0.869c1.81,0,2.854-0.876,3.127-2.612c0.124-0.76,0.006-1.356-0.35-1.773
						C40.107,21.892,39.415,21.649,38.496,21.649z M38.814,24.222c-0.151,0.986-0.905,0.986-1.633,0.986h-0.415l0.29-1.842
						c0.019-0.111,0.114-0.193,0.227-0.193h0.19c0.496,0,0.965,0,1.206,0.283C38.824,23.625,38.868,23.876,38.814,24.222z"/>
					<path fill="#FFFFFF" d="M18.9,21.649h-2.747c-0.188,0-0.348,0.137-0.378,0.323l-1.111,7.045
						c-0.021,0.139,0.086,0.265,0.227,0.265h1.312c0.188,0,0.348-0.137,0.378-0.322l0.299-1.9c0.03-0.187,0.189-0.322,0.377-0.322
						h0.87c1.81,0,2.854-0.876,3.126-2.612c0.123-0.76,0.005-1.356-0.351-1.773C20.512,21.892,19.82,21.649,18.9,21.649z
						 M19.217,24.222c-0.149,0.986-0.903,0.986-1.632,0.986h-0.414l0.291-1.842c0.017-0.111,0.113-0.193,0.226-0.193h0.19
						c0.496,0,0.964,0,1.206,0.283C19.229,23.625,19.272,23.876,19.217,24.222z"/>
					<path fill="#FFFFFF" d="M27.112,24.191h-1.315c-0.113,0-0.209,0.082-0.227,0.193l-0.058,0.368l-0.092-0.133
						c-0.285-0.414-0.92-0.552-1.554-0.552c-1.453,0-2.695,1.102-2.936,2.646c-0.126,0.771,0.052,1.508,0.489,2.021
						c0.401,0.473,0.974,0.669,1.657,0.669c1.171,0,1.82-0.753,1.82-0.753l-0.058,0.365c-0.022,0.14,0.085,0.266,0.226,0.266h1.185
						c0.188,0,0.348-0.137,0.377-0.322l0.711-4.503C27.36,24.316,27.253,24.191,27.112,24.191z M25.279,26.751
						c-0.127,0.753-0.723,1.257-1.485,1.257c-0.381,0-0.687-0.123-0.883-0.354c-0.195-0.23-0.268-0.56-0.207-0.925
						c0.119-0.745,0.725-1.266,1.475-1.266c0.374,0,0.677,0.124,0.877,0.358C25.257,26.057,25.337,26.388,25.279,26.751z"/>
					<path fill="#FFFFFF" d="M46.709,24.191h-1.317c-0.112,0-0.208,0.082-0.225,0.193l-0.059,0.368l-0.092-0.133
						c-0.285-0.414-0.92-0.552-1.554-0.552c-1.454,0-2.695,1.102-2.938,2.646c-0.125,0.771,0.053,1.508,0.49,2.021
						c0.401,0.473,0.975,0.669,1.656,0.669c1.172,0,1.822-0.753,1.822-0.753l-0.059,0.365c-0.022,0.14,0.085,0.266,0.226,0.266
						h1.186c0.187,0,0.347-0.137,0.376-0.322l0.711-4.503C46.957,24.316,46.85,24.191,46.709,24.191z M44.875,26.751
						c-0.128,0.753-0.724,1.257-1.484,1.257c-0.383,0-0.688-0.123-0.885-0.354c-0.194-0.23-0.268-0.56-0.205-0.925
						c0.118-0.745,0.725-1.266,1.475-1.266c0.373,0,0.676,0.124,0.876,0.358C44.854,26.057,44.933,26.388,44.875,26.751z"/>
					<path fill="#FFFFFF" d="M34.119,24.191h-1.322c-0.126,0-0.244,0.062-0.315,0.167l-1.824,2.686l-0.773-2.581
						c-0.048-0.161-0.197-0.272-0.365-0.272h-1.3c-0.157,0-0.269,0.154-0.218,0.303l1.457,4.274l-1.37,1.933
						c-0.108,0.151,0,0.361,0.188,0.361h1.32c0.126,0,0.243-0.062,0.313-0.165l4.398-6.346
						C34.412,24.399,34.304,24.191,34.119,24.191z"/>
					<path fill="#FFFFFF" d="M48.26,21.843l-1.128,7.174c-0.022,0.139,0.085,0.265,0.226,0.265h1.134
						c0.188,0,0.349-0.137,0.377-0.322l1.112-7.045c0.022-0.139-0.085-0.265-0.227-0.265h-1.27
						C48.373,21.649,48.276,21.731,48.26,21.843z"/>
				</g>
			</g>
		</g>
	</g>
	<g>
		<path opacity="0.7" fill="#FFFFFF" d="M9.275,22.019c0.148-0.943-0.001-1.585-0.511-2.167c-0.562-0.64-1.577-0.914-2.874-0.914
			H2.122c-0.265,0-0.49,0.192-0.533,0.455l-1.569,9.95c-0.03,0.196,0.121,0.373,0.32,0.373h2.326l-0.161,1.019
			c-0.026,0.172,0.106,0.327,0.28,0.327h1.96c0.232,0,0.43-0.169,0.466-0.398l0.02-0.1L5.6,28.221l0.024-0.128
			c0.037-0.229,0.234-0.399,0.466-0.399h0.293c1.899,0,3.387-0.771,3.821-3.002c0.182-0.933,0.088-1.711-0.392-2.259
			C9.667,22.267,9.486,22.129,9.275,22.019L9.275,22.019"/>
		<path opacity="0.5" fill="#FFFFFF" d="M9.275,22.019c0.148-0.943-0.001-1.585-0.511-2.167c-0.562-0.64-1.577-0.914-2.874-0.914
			H2.122c-0.265,0-0.49,0.192-0.533,0.455l-1.569,9.95c-0.03,0.196,0.121,0.373,0.32,0.373h2.326l0.584-3.705l-0.018,0.116
			c0.041-0.261,0.265-0.455,0.53-0.455h1.105c2.171,0,3.872-0.882,4.369-3.434C9.251,22.164,9.264,22.09,9.275,22.019"/>
		<path opacity="0.95" fill="#FFFFFF" d="M3.878,22.031c0.024-0.158,0.126-0.287,0.262-0.353c0.062-0.029,0.131-0.045,0.204-0.045
			h2.954c0.35,0,0.676,0.022,0.975,0.071c0.085,0.013,0.169,0.029,0.249,0.047c0.081,0.018,0.159,0.038,0.234,0.06
			c0.038,0.011,0.076,0.023,0.112,0.035c0.147,0.048,0.283,0.106,0.408,0.173c0.148-0.943-0.001-1.585-0.511-2.167
			c-0.562-0.64-1.577-0.914-2.874-0.914H2.122c-0.265,0-0.49,0.192-0.533,0.455l-1.569,9.95c-0.03,0.196,0.121,0.373,0.32,0.373
			h2.326l0.584-3.705L3.878,22.031z"/>
	</g>
</g>
</svg>
