<?xml version="1.0" encoding="utf-8"?>
<!-- Generator: Adobe Illustrator 16.0.0, SVG Export Plug-In . SVG Version: 6.00 Build 0)  -->
<!DOCTYPE svg PUBLIC "-//W3C//DTD SVG 1.1//EN" "http://www.w3.org/Graphics/SVG/1.1/DTD/svg11.dtd">
<svg version="1.1" id="Layer_1" xmlns="http://www.w3.org/2000/svg" xmlns:xlink="http://www.w3.org/1999/xlink" x="0px" y="0px"
	 width="50px" height="50px" viewBox="0 0 50 50" enable-background="new 0 0 50 50" xml:space="preserve">
<g>
	<path fill-rule="evenodd" clip-rule="evenodd" fill="#FFFFFF" d="M38.998,21.859c-0.321-0.87-0.816-1.607-1.662-2.047
		c-1.087-0.566-2.826-0.651-4.222,0.681c-0.094,0.089-0.187,0.177-0.305,0.29c-0.056-0.339-0.112-0.643-0.155-0.948
		c-0.019-0.138-0.066-0.192-0.22-0.19c-0.939,0.007-1.879,0.008-2.819-0.001c-0.179-0.002-0.216,0.05-0.216,0.222
		c0.003,5.095,0.005,10.19-0.002,15.286c0,0.189,0.054,0.215,0.224,0.185c1.08-0.185,2.157-0.366,3.239-0.536
		c0.168-0.027,0.211-0.083,0.211-0.249c-0.01-1.063-0.006-2.127-0.004-3.192c0-0.083-0.021-0.17,0.026-0.261
		c0.088,0.023,0.178,0.046,0.267,0.068c0.945,0.242,1.893,0.256,2.826-0.044c1.495-0.477,2.369-1.558,2.851-3
		c0.38-1.135,0.458-2.31,0.426-3.496C39.438,23.682,39.327,22.751,38.998,21.859z M35.595,27.099
		c-0.106,0.385-0.272,0.743-0.54,1.046c-0.442,0.5-1.355,0.633-1.91,0.288c-0.098-0.061-0.077-0.143-0.077-0.225
		c-0.002-0.854-0.002-1.707-0.002-2.56c0-0.838,0.006-1.676-0.002-2.514c-0.002-0.146,0.041-0.248,0.149-0.341
		c0.237-0.206,0.49-0.382,0.787-0.487c0.604-0.211,1.109-0.019,1.417,0.543c0.206,0.374,0.296,0.784,0.341,1.201
		C35.869,25.075,35.871,26.096,35.595,27.099z"/>
	<path fill-rule="evenodd" clip-rule="evenodd" fill="#FFFFFF" d="M49.527,22.449c-0.659-1.934-2.077-2.971-4.105-3.014
		c-2.312-0.049-4.027,1.088-4.769,3.244c-0.63,1.833-0.616,3.698-0.015,5.535c0.519,1.589,1.644,2.555,3.269,2.938
		c1.011,0.238,2.032,0.237,3.054,0.103c0.869-0.114,1.704-0.342,2.47-0.782c0.115-0.066,0.162-0.134,0.138-0.275
		c-0.121-0.704-0.236-1.408-0.338-2.114c-0.029-0.205-0.08-0.207-0.25-0.124c-1.078,0.526-2.221,0.732-3.415,0.619
		c-0.821-0.078-1.354-0.532-1.586-1.323c-0.048-0.163-0.066-0.335-0.113-0.499c-0.049-0.177,0.024-0.207,0.185-0.205
		c0.939,0.006,1.879,0.003,2.819,0.003c0.494,0,0.993,0,1.49,0c0.457,0,0.915,0,1.373,0c0.086,0,0.166,0.013,0.174-0.122
		C49.983,25.085,49.971,23.746,49.527,22.449z M46.341,24.308c-0.396,0.002-0.792,0.001-1.188,0.001
		c-0.372,0-0.746-0.011-1.117,0.005c-0.198,0.009-0.225-0.056-0.206-0.234c0.051-0.473,0.116-0.941,0.303-1.381
		c0.11-0.262,0.266-0.492,0.518-0.642c0.491-0.293,1.115-0.145,1.426,0.354c0.338,0.548,0.381,1.172,0.424,1.793
		C46.507,24.334,46.414,24.308,46.341,24.308z"/>
	<path fill-rule="evenodd" clip-rule="evenodd" fill="#FFFFFF" d="M6.805,24.655c-0.601-0.35-1.256-0.572-1.899-0.822
		c-0.376-0.147-0.753-0.296-1.063-0.566c-0.185-0.162-0.291-0.361-0.234-0.619c0.058-0.26,0.241-0.389,0.479-0.456
		c0.336-0.093,0.679-0.062,1.018-0.021c0.802,0.098,1.557,0.355,2.282,0.699c0.142,0.068,0.177,0.047,0.201-0.107
		c0.118-0.775,0.238-1.549,0.378-2.321c0.037-0.199-0.03-0.269-0.195-0.338c-0.978-0.407-1.995-0.627-3.053-0.666
		c-0.807-0.03-1.601,0.033-2.357,0.335c-1.324,0.529-2.058,1.506-2.167,2.931c-0.107,1.388,0.401,2.469,1.629,3.181
		c0.486,0.281,0.998,0.5,1.522,0.694c0.43,0.158,0.862,0.311,1.253,0.556c0.405,0.253,0.565,0.551,0.487,0.893
		c-0.076,0.332-0.364,0.539-0.831,0.594c-0.046,0.006-0.093,0.007-0.139,0.01c-0.407,0.025-0.806-0.034-1.202-0.12
		c-0.845-0.186-1.649-0.481-2.438-0.916c-0.139,0.869-0.265,1.705-0.41,2.538c-0.031,0.181,0.012,0.259,0.172,0.335
		c1.459,0.687,2.993,0.964,4.597,0.843c0.709-0.054,1.392-0.229,2.02-0.582c1.701-0.961,1.873-2.885,1.535-4.183
		C8.162,25.671,7.562,25.095,6.805,24.655z"/>
	<path fill-rule="evenodd" clip-rule="evenodd" fill="#FFFFFF" d="M15.906,19.644c-0.622,0.009-1.243-0.003-1.864,0.008
		c-0.175,0.003-0.219-0.043-0.217-0.218c0.009-0.963,0.002-1.926,0.007-2.89c0.001-0.142-0.023-0.188-0.18-0.161
		c-0.925,0.159-1.853,0.311-2.78,0.458c-0.151,0.023-0.198,0.089-0.221,0.235c-0.12,0.791-0.256,1.578-0.379,2.368
		c-0.023,0.15-0.068,0.229-0.239,0.243c-0.254,0.021-0.505,0.087-0.758,0.119c-0.117,0.014-0.152,0.062-0.169,0.172
		c-0.117,0.743-0.236,1.487-0.364,2.228c-0.025,0.147,0.025,0.169,0.154,0.167c0.373-0.007,0.746,0.006,1.118-0.007
		c0.172-0.006,0.223,0.038,0.222,0.217c-0.01,0.932-0.004,1.864-0.004,2.796c0,0.078-0.001,0.155,0,0.233
		c0.022,0.992-0.067,1.99,0.061,2.978c0.154,1.188,0.691,2.116,1.895,2.497c1.194,0.377,2.404,0.326,3.609,0.023
		c0.088-0.022,0.131-0.056,0.13-0.154c-0.003-0.878-0.003-1.755,0-2.633c0-0.12-0.049-0.117-0.143-0.097
		c-0.189,0.042-0.38,0.079-0.572,0.105c-0.965,0.134-1.375-0.213-1.381-1.185c-0.007-1.53,0-3.06-0.005-4.59
		c0-0.157,0.046-0.193,0.195-0.191c0.505,0.009,1.01-0.001,1.515,0.007c0.145,0.002,0.196-0.037,0.219-0.188
		c0.114-0.768,0.232-1.535,0.376-2.297C16.176,19.652,16.096,19.641,15.906,19.644z"/>
	<path fill-rule="evenodd" clip-rule="evenodd" fill="#FFFFFF" d="M23.265,19.544c-0.451-0.08-0.896-0.072-1.335,0.069
		c-0.665,0.213-1.105,0.665-1.385,1.358c-0.068-0.407-0.137-0.756-0.181-1.11c-0.021-0.161-0.067-0.221-0.241-0.219
		c-0.932,0.009-1.864,0.008-2.796,0.001c-0.165-0.001-0.207,0.047-0.206,0.208c0.004,3.69,0.004,7.379,0,11.069
		c0,0.163,0.046,0.207,0.208,0.206c1.072-0.007,2.144-0.009,3.215,0.001c0.197,0.002,0.241-0.055,0.241-0.245
		c-0.007-2.252,0.009-4.505-0.017-6.757c-0.005-0.435,0.173-0.676,0.506-0.871c0.128-0.076,0.262-0.136,0.402-0.182
		c0.512-0.17,1.039-0.175,1.567-0.128c0.147,0.012,0.183-0.023,0.182-0.169c-0.006-1.009-0.005-2.019,0-3.03
		C23.425,19.621,23.388,19.567,23.265,19.544z"/>
	<path fill-rule="evenodd" clip-rule="evenodd" fill="#FFFFFF" d="M27.972,25.402c0-1.84-0.002-3.681,0.004-5.521
		c0-0.172-0.028-0.24-0.225-0.238c-1.079,0.01-2.159,0.01-3.239-0.001c-0.2-0.002-0.222,0.072-0.222,0.24
		c0.004,3.673,0.005,7.346-0.001,11.02c0,0.193,0.062,0.228,0.236,0.226c1.056-0.008,2.113-0.01,3.168,0.002
		c0.219,0.003,0.286-0.043,0.284-0.274C27.968,29.037,27.972,27.22,27.972,25.402z"/>
	<path fill-rule="evenodd" clip-rule="evenodd" fill="#FFFFFF" d="M26.152,14.654c-1.078-0.007-1.938,0.846-1.942,1.928
		c-0.004,1.081,0.849,1.939,1.929,1.939c1.064,0.001,1.914-0.852,1.916-1.925C28.058,15.519,27.217,14.662,26.152,14.654z"/>
</g>
</svg>
