<?xml version="1.0" encoding="utf-8"?>
<!-- Generator: Adobe Illustrator 16.0.0, SVG Export Plug-In . SVG Version: 6.00 Build 0)  -->
<!DOCTYPE svg PUBLIC "-//W3C//DTD SVG 1.1//EN" "http://www.w3.org/Graphics/SVG/1.1/DTD/svg11.dtd">
<svg version="1.1" id="Capa_1" xmlns="http://www.w3.org/2000/svg" xmlns:xlink="http://www.w3.org/1999/xlink" x="0px" y="0px"
	 width="16.884px" height="19px" viewBox="0 0 16.884 19" enable-background="new 0 0 16.884 19" xml:space="preserve">
<g>
	<g>
		<path fill="#464646" d="M16.356,2.732h-3.949V2.088C12.407,0.937,11.471,0,10.319,0H6.564C5.413,0,4.476,0.937,4.476,2.088v0.644
			H0.527C0.234,2.732,0,2.966,0,3.259c0,0.293,0.234,0.527,0.527,0.527h0.952v12.38c0,1.554,1.265,2.817,2.818,2.817h8.291
			c1.552,0,2.817-1.264,2.817-2.817V3.786h0.951c0.293,0,0.527-0.234,0.527-0.527C16.884,2.966,16.649,2.732,16.356,2.732z
			 M5.53,2.088c0-0.569,0.464-1.035,1.034-1.035h3.755c0.569,0,1.034,0.465,1.034,1.035v0.644H5.53V2.088z M14.351,16.166
			c0,0.971-0.792,1.764-1.763,1.764H4.297c-0.972,0-1.764-0.793-1.764-1.764V3.786h11.82v12.38H14.351z"/>
		<path fill="#464646" d="M8.442,16.041c0.292,0,0.526-0.234,0.526-0.527V6.202c0-0.293-0.234-0.528-0.526-0.528
			S7.915,5.909,7.915,6.202v9.308C7.915,15.802,8.149,16.041,8.442,16.041z"/>
		<path fill="#464646" d="M5.004,15.459c0.292,0,0.526-0.233,0.526-0.527V6.779c0-0.292-0.234-0.527-0.526-0.527
			c-0.293,0-0.528,0.234-0.528,0.527v8.152C4.476,15.226,4.715,15.459,5.004,15.459z"/>
		<path fill="#464646" d="M11.88,15.459c0.293,0,0.527-0.233,0.527-0.527V6.779c0-0.292-0.234-0.527-0.527-0.527
			s-0.526,0.234-0.526,0.527v8.152C11.354,15.226,11.587,15.459,11.88,15.459z"/>
	</g>
</g>
</svg>
