<?xml version="1.0" standalone="no"?>
<!DOCTYPE svg PUBLIC "-//W3C//DTD SVG 20010904//EN"
 "http://www.w3.org/TR/2001/REC-SVG-20010904/DTD/svg10.dtd">
<svg version="1.0" xmlns="http://www.w3.org/2000/svg"
 width="102.000000pt" height="102.000000pt" viewBox="0 0 102.000000 102.000000"
 preserveAspectRatio="xMidYMid meet">

<g transform="translate(0.000000,102.000000) scale(0.100000,-0.100000)"
fill="#000000" stroke="none">
<path d="M418 1005 c-210 -42 -364 -200 -404 -415 -14 -71 -14 -89 0 -160 41
-221 195 -375 416 -416 71 -14 89 -14 160 0 219 41 375 197 416 416 14 71 14
89 0 160 -41 219 -195 374 -411 415 -89 17 -89 17 -177 0z m284 -97 c92 -46
167 -122 211 -215 30 -64 32 -74 32 -183 0 -109 -2 -119 -32 -183 -44 -93
-119 -169 -212 -215 -73 -36 -77 -37 -191 -37 -114 0 -118 1 -191 37 -93 46
-168 122 -212 215 -30 64 -32 74 -32 183 0 109 2 119 32 182 54 114 146 197
268 241 38 13 74 17 151 15 93 -3 106 -6 176 -40z"/>
<path d="M441 773 c-18 -9 -45 -34 -59 -56 -35 -53 -36 -137 -3 -190 l22 -36
-50 -48 c-56 -55 -76 -112 -48 -140 20 -21 47 -10 47 19 0 60 81 127 153 128
16 0 41 8 55 19 15 10 36 21 47 25 33 10 58 63 59 126 1 46 -5 65 -26 97 -45
68 -126 91 -197 56z m129 -70 c43 -39 50 -95 18 -143 -44 -65 -112 -65 -156 0
-19 27 -23 44 -18 75 6 50 52 95 96 95 18 0 42 -11 60 -27z"/>
<path d="M657 483 c-4 -3 -7 -26 -7 -50 l0 -43 -45 0 c-43 0 -45 -1 -45 -30 0
-29 2 -30 45 -30 l45 0 0 -50 0 -50 35 0 35 0 0 50 0 50 45 0 c43 0 45 1 45
30 0 29 -2 30 -45 30 l-45 0 0 50 c0 48 -1 50 -28 50 -16 0 -32 -3 -35 -7z"/>
</g>
</svg>
