<?xml version="1.0" standalone="no"?>
<!DOCTYPE svg PUBLIC "-//W3C//DTD SVG 20010904//EN"
 "http://www.w3.org/TR/2001/REC-SVG-20010904/DTD/svg10.dtd">
<svg version="1.0" xmlns="http://www.w3.org/2000/svg"
 width="512.000000pt" height="512.000000pt" viewBox="0 0 512.000000 512.000000"
 preserveAspectRatio="xMidYMid meet">

<g transform="translate(0.000000,512.000000) scale(0.100000,-0.100000)"
fill="#000000" stroke="none">
<path d="M2370 5113 c-468 -44 -863 -180 -1220 -419 -385 -257 -683 -597 -885
-1009 -168 -340 -248 -661 -262 -1040 -15 -426 73 -832 263 -1214 133 -269
271 -459 488 -677 221 -220 412 -357 681 -489 188 -92 309 -137 500 -185 196
-49 343 -70 545 -77 580 -20 1143 158 1615 511 138 103 379 339 477 466 496
644 663 1434 468 2210 -59 235 -182 525 -306 720 -211 333 -537 653 -856 843
-413 246 -871 371 -1338 365 -74 0 -151 -3 -170 -5z m406 -244 c677 -66 1280
-416 1681 -977 312 -437 465 -1010 412 -1548 -51 -529 -273 -1010 -642 -1391
-173 -179 -331 -301 -537 -417 -696 -390 -1537 -394 -2240 -10 -207 113 -343
215 -526 398 -229 230 -378 447 -497 728 -249 582 -247 1241 4 1825 121 283
287 521 518 745 329 320 718 525 1161 612 229 45 448 57 666 35z"/>
<path d="M1778 4049 c-51 -8 -255 -87 -388 -152 -210 -102 -320 -295 -320
-563 0 -192 50 -373 169 -609 383 -758 1252 -1504 1909 -1640 40 -8 124 -15
186 -15 199 0 338 51 457 170 71 71 114 149 205 375 57 143 68 228 38 317 -30
92 -93 142 -389 310 -300 171 -332 182 -441 155 -85 -21 -146 -65 -204 -147
-72 -102 -154 -133 -246 -91 -117 53 -541 477 -595 595 -42 93 -14 170 90 246
86 63 126 118 148 205 27 108 15 141 -155 438 -81 143 -166 281 -190 307 -68
78 -170 114 -274 99z m95 -256 c15 -18 242 -404 279 -477 28 -55 18 -77 -57
-131 -120 -85 -181 -191 -192 -330 -6 -75 11 -154 48 -226 73 -144 534 -605
678 -678 72 -37 151 -54 226 -48 137 10 241 70 327 188 28 39 61 72 73 75 13
3 39 -3 61 -14 73 -37 459 -264 477 -279 27 -25 21 -65 -34 -201 -97 -239
-125 -278 -234 -329 -52 -24 -74 -28 -175 -31 -98 -3 -130 0 -214 22 -542 140
-1266 761 -1633 1402 -218 382 -256 716 -99 882 38 41 73 60 251 133 148 62
192 70 218 42z"/>
</g>
</svg>
