<?xml version="1.0" encoding="utf-8"?>
<!-- Generator: Adobe Illustrator 16.0.0, SVG Export Plug-In . SVG Version: 6.00 Build 0)  -->
<!DOCTYPE svg PUBLIC "-//W3C//DTD SVG 1.1//EN" "http://www.w3.org/Graphics/SVG/1.1/DTD/svg11.dtd">
<svg version="1.1" id="Capa_1" xmlns="http://www.w3.org/2000/svg" xmlns:xlink="http://www.w3.org/1999/xlink" x="0px" y="0px"
	 width="55.82px" height="49.189px" viewBox="0 0 55.82 49.189" enable-background="new 0 0 55.82 49.189" xml:space="preserve">
<ellipse opacity="0.29" fill="#B3DCFF" enable-background="new    " cx="27.908" cy="40.87" rx="26.898" ry="7.665"/>
<g>
	<circle fill="#DE2300" cx="27.911" cy="21.805" r="20.971"/>
</g>
<g>
	<g>
		<path fill="#FFFFFF" d="M34.149,26.226c0.252,0.25,0.252,0.657,0,0.908l-0.908,0.909c-0.25,0.251-0.657,0.251-0.908,0
			l-4.422-4.421l-4.423,4.421c-0.251,0.251-0.657,0.251-0.909,0l-0.908-0.909c-0.251-0.251-0.251-0.658,0-0.908l4.422-4.422
			l-4.422-4.42c-0.251-0.251-0.251-0.658,0-0.91l0.908-0.909c0.252-0.25,0.658-0.25,0.909,0l4.423,4.422l4.422-4.422
			c0.251-0.25,0.658-0.25,0.908,0l0.908,0.909c0.252,0.252,0.252,0.659,0,0.91l-4.421,4.42L34.149,26.226z"/>
	</g>
</g>
</svg>
