<?xml version="1.0" encoding="utf-8"?>
<!-- Generator: Adobe Illustrator 16.0.0, SVG Export Plug-In . SVG Version: 6.00 Build 0)  -->
<!DOCTYPE svg PUBLIC "-//W3C//DTD SVG 1.1//EN" "http://www.w3.org/Graphics/SVG/1.1/DTD/svg11.dtd">
<svg version="1.1" id="Capa_1" xmlns="http://www.w3.org/2000/svg" xmlns:xlink="http://www.w3.org/1999/xlink" x="0px" y="0px"
	 width="55.82px" height="49.189px" viewBox="0 0 55.82 49.189" enable-background="new 0 0 55.82 49.189" xml:space="preserve">
<ellipse opacity="0.29" fill="#B3DCFF" cx="27.908" cy="40.87" rx="26.898" ry="7.665"/>
<g>
	<g>
		<path fill="#5995CD" d="M48.205,36.954H24.937c-0.777,0-1.407-0.63-1.407-1.407V1.846c0-0.777,0.63-1.407,1.407-1.407h23.268
			c0.777,0,1.407,0.63,1.407,1.407v33.701C49.612,36.324,48.982,36.954,48.205,36.954"/>
		<g>
			<defs>
				<rect id="SVGID_1_" x="28.746" y="3.917" width="19.126" height="29.562"/>
			</defs>
			<clipPath id="SVGID_2_">
				<use xlink:href="#SVGID_1_"  overflow="visible"/>
			</clipPath>
			<path clip-path="url(#SVGID_2_)" fill="#FFFFFF" d="M47.48,31.737H29.138c-0.216,0-0.392,0.175-0.392,0.393v0.956
				c0,0.216,0.176,0.393,0.392,0.393H47.48c0.217,0,0.392-0.177,0.392-0.393V32.13C47.873,31.912,47.697,31.737,47.48,31.737"/>
			<path clip-path="url(#SVGID_2_)" fill="#FFFFFF" d="M47.48,28.26H29.138c-0.216,0-0.392,0.176-0.392,0.392v0.957
				c0,0.217,0.176,0.392,0.392,0.392H47.48c0.217,0,0.392-0.175,0.392-0.392v-0.957C47.873,28.436,47.697,28.26,47.48,28.26"/>
			<path clip-path="url(#SVGID_2_)" fill="#FFFFFF" d="M47.48,24.588H29.138c-0.216,0-0.392,0.176-0.392,0.392v0.957
				c0,0.216,0.176,0.392,0.392,0.392H47.48c0.217,0,0.392-0.176,0.392-0.392V24.98C47.873,24.765,47.697,24.588,47.48,24.588"/>
			<path clip-path="url(#SVGID_2_)" fill="#FFFFFF" d="M47.48,21.111H29.138c-0.216,0-0.392,0.175-0.392,0.393v0.956
				c0,0.216,0.176,0.392,0.392,0.392H47.48c0.217,0,0.392-0.176,0.392-0.392v-0.956C47.873,21.287,47.697,21.111,47.48,21.111"/>
			<path clip-path="url(#SVGID_2_)" fill="#FFFFFF" d="M47.48,17.827H29.138c-0.216,0-0.392,0.176-0.392,0.392v0.956
				c0,0.217,0.176,0.393,0.392,0.393H47.48c0.217,0,0.392-0.176,0.392-0.393v-0.956C47.873,18.002,47.697,17.827,47.48,17.827"/>
			<path clip-path="url(#SVGID_2_)" fill="#FFFFFF" d="M47.48,14.349H29.138c-0.216,0-0.392,0.176-0.392,0.392v0.957
				c0,0.216,0.176,0.392,0.392,0.392H47.48c0.217,0,0.392-0.176,0.392-0.392v-0.957C47.873,14.525,47.697,14.349,47.48,14.349"/>
			<path clip-path="url(#SVGID_2_)" fill="#FFFFFF" d="M47.48,10.872H29.138c-0.216,0-0.392,0.175-0.392,0.392v0.956
				c0,0.217,0.176,0.392,0.392,0.392H47.48c0.217,0,0.392-0.175,0.392-0.392v-0.956C47.873,11.047,47.697,10.872,47.48,10.872"/>
			<path clip-path="url(#SVGID_2_)" fill="#FFFFFF" d="M47.48,7.394H29.138c-0.216,0-0.392,0.176-0.392,0.393v0.956
				c0,0.217,0.176,0.393,0.392,0.393H47.48c0.217,0,0.392-0.176,0.392-0.393V7.786C47.873,7.569,47.697,7.394,47.48,7.394"/>
			<path clip-path="url(#SVGID_2_)" fill="#FFFFFF" d="M47.48,3.916H29.138c-0.216,0-0.392,0.176-0.392,0.393v0.956
				c0,0.216,0.176,0.392,0.392,0.392H47.48c0.217,0,0.392-0.176,0.392-0.392V4.309C47.873,4.092,47.697,3.916,47.48,3.916"/>
		</g>
		<g>
			<path fill="#5995CD" d="M35.364,40.518v-0.173h1.047l0.003,0.147l0,0.025H35.364z M34.317,40.518h-1.046v-0.173h1.046V40.518z
				 M32.225,40.518h-1.047v-0.173h1.047V40.518z M30.131,40.518h-1.046v-0.173h1.046V40.518z M28.039,40.518h-1.047v-0.173h1.047
				V40.518z M25.945,40.518h-1.047v-0.173h1.047V40.518z M23.852,40.518h-1.046v-0.173h1.046V40.518z M21.759,40.518h-1.046v-0.173
				h1.046V40.518z M19.666,40.518H18.62v-0.173h1.046V40.518z M17.573,40.518h-1.047v-0.173h1.047V40.518z M15.457,40.441
				c-0.357-0.141-0.622-0.462-0.69-0.838l0.171-0.032c0.058,0.318,0.281,0.59,0.583,0.708L15.457,40.441z M37.362,39.985
				l-0.149-0.09c0.092-0.148,0.14-0.319,0.14-0.493v-0.479h0.174v0.479C37.527,39.608,37.47,39.811,37.362,39.985z M14.922,38.541
				h-0.174v-1.046h0.174V38.541z M37.527,37.876h-0.174V36.83h0.174V37.876z M14.922,36.448h-0.174v-1.046h0.174V36.448z
				 M37.527,35.782h-0.174v-1.045h0.174V35.782z M14.922,34.355h-0.174V33.31h0.174V34.355z M37.527,33.689h-0.174v-1.045h0.174
				V33.689z M14.922,32.262h-0.174v-1.046h0.174V32.262z M37.527,31.597h-0.174v-1.046h0.174V31.597z M14.922,30.169h-0.174v-1.046
				h0.174V30.169z M37.527,29.504h-0.174v-1.047h0.174V29.504z M14.922,28.076h-0.174V27.03h0.174V28.076z M37.527,27.411h-0.174
				v-1.047h0.174V27.411z M14.922,25.982h-0.174v-1.045h0.174V25.982z M37.527,25.318h-0.174v-1.046h0.174V25.318z M14.922,23.89
				h-0.174v-1.047h0.174V23.89z M37.527,23.226h-0.174v-1.047h0.174V23.226z M14.922,21.797h-0.174V20.75h0.174V21.797z
				 M37.527,21.131h-0.174v-1.046h0.174V21.131z M14.922,19.704h-0.174v-1.047h0.174V19.704z M37.527,19.038h-0.174v-1.046h0.174
				V19.038z M14.922,17.611h-0.174v-1.047h0.174V17.611z M37.527,16.945h-0.174v-1.046h0.174V16.945z M14.922,15.518h-0.174v-1.046
				h0.174V15.518z M37.527,14.852h-0.174v-1.046h0.174V14.852z M14.922,13.425h-0.174v-1.046h0.174V13.425z M37.527,12.759h-0.174
				v-0.858c0-0.058-0.005-0.116-0.016-0.172l0.172-0.031c0.012,0.066,0.019,0.135,0.019,0.203V12.759z M15.063,11.406l-0.148-0.092
				c0.205-0.331,0.559-0.529,0.948-0.53l0,0.174C15.535,10.959,15.236,11.126,15.063,11.406z M36.753,11.023
				c-0.109-0.042-0.225-0.064-0.343-0.064h-0.664v-0.174h0.664c0.14,0,0.276,0.026,0.406,0.076L36.753,11.023z M34.701,10.958
				h-1.046v-0.174h1.046V10.958z M32.608,10.958h-1.047v-0.174h1.047V10.958z M30.515,10.958h-1.046v-0.174h1.046V10.958z
				 M28.422,10.958h-1.046v-0.174h1.046V10.958z M26.329,10.958h-1.047v-0.174h1.047V10.958z M24.235,10.958h-1.046v-0.174h1.046
				V10.958z M22.142,10.958h-1.046v-0.174h1.046V10.958z M20.049,10.958h-1.046v-0.174h1.046V10.958z M17.956,10.958H16.91v-0.174
				h1.046V10.958z"/>
		</g>
		<path fill="#B3DCFF" d="M40.821,10.872v21.065c0,0.851-0.689,1.539-1.54,1.539H19.969c-0.968,0-1.753-0.785-1.753-1.753V5.482
			c0-0.864,0.701-1.566,1.567-1.566h15.918L40.821,10.872z"/>
		<path fill="#5995CD" d="M35.702,3.916v5.645c0,0.724,0.586,1.312,1.311,1.312h3.906"/>
		<g>
			<defs>
				<rect id="SVGID_3_" x="21.79" y="7.394" width="15.649" height="21.06"/>
			</defs>
			<clipPath id="SVGID_4_">
				<use xlink:href="#SVGID_3_"  overflow="visible"/>
			</clipPath>
			<path clip-path="url(#SVGID_4_)" fill="#FFFFFF" d="M37.048,28.453H22.183c-0.217,0-0.393-0.176-0.393-0.393v-0.955
				c0-0.216,0.176-0.391,0.393-0.391h14.866c0.216,0,0.391,0.175,0.391,0.391v0.955C37.439,28.277,37.265,28.453,37.048,28.453"/>
			<path clip-path="url(#SVGID_4_)" fill="#FFFFFF" d="M37.048,24.976H22.183c-0.217,0-0.393-0.176-0.393-0.393v-0.955
				c0-0.217,0.176-0.392,0.393-0.392h14.866c0.216,0,0.391,0.175,0.391,0.392v0.955C37.439,24.8,37.265,24.976,37.048,24.976"/>
			<path clip-path="url(#SVGID_4_)" fill="#FFFFFF" d="M37.048,21.305H22.183c-0.217,0-0.393-0.176-0.393-0.393v-0.955
				c0-0.216,0.176-0.393,0.393-0.393h14.866c0.216,0,0.391,0.176,0.391,0.393v0.955C37.439,21.129,37.265,21.305,37.048,21.305"/>
			<path clip-path="url(#SVGID_4_)" fill="#FFFFFF" d="M37.048,18.02H22.183c-0.217,0-0.393-0.175-0.393-0.391v-0.956
				c0-0.216,0.176-0.392,0.393-0.392h14.866c0.216,0,0.391,0.175,0.391,0.392v0.956C37.439,17.845,37.265,18.02,37.048,18.02"/>
			<path clip-path="url(#SVGID_4_)" fill="#FFFFFF" d="M37.048,14.349H22.183c-0.217,0-0.393-0.175-0.393-0.392v-0.955
				c0-0.217,0.176-0.393,0.393-0.393h14.866c0.216,0,0.391,0.176,0.391,0.393v0.955C37.439,14.174,37.265,14.349,37.048,14.349"/>
			<path clip-path="url(#SVGID_4_)" fill="#FFFFFF" d="M31.832,9.133h-9.649c-0.217,0-0.392-0.175-0.392-0.392V7.786
				c0-0.216,0.175-0.392,0.392-0.392h9.649c0.216,0,0.392,0.176,0.392,0.392v0.955C32.224,8.958,32.048,9.133,31.832,9.133"/>
		</g>
		
			<rect x="15.69" y="36.446" transform="matrix(0.7756 -0.6312 0.6312 0.7756 -19.9509 18.8671)" fill="#B3DCFF" width="1.739" height="2.092"/>
		<path fill="#5995CD" d="M19.183,31.593c0,3.814-3.092,6.906-6.907,6.906c-3.814,0-6.907-3.092-6.907-6.906
			c0-3.815,3.092-6.908,6.907-6.908C16.09,24.685,19.183,27.777,19.183,31.593"/>
		<g>
			<defs>
				<rect id="SVGID_5_" x="7.108" y="26.425" width="10.336" height="10.336"/>
			</defs>
			<clipPath id="SVGID_6_">
				<use xlink:href="#SVGID_5_"  overflow="visible"/>
			</clipPath>
			<path clip-path="url(#SVGID_6_)" fill="#FFFFFF" d="M17.444,31.593c0,2.854-2.314,5.168-5.168,5.168
				c-2.854,0-5.167-2.314-5.167-5.168c0-2.854,2.313-5.168,5.167-5.168C15.13,26.425,17.444,28.738,17.444,31.593"/>
		</g>
		<path fill="#5995CD" d="M23.592,44.774l-1.303,1.061c-0.17,0.14-0.42,0.113-0.559-0.057l-5.86-7.194
			c-0.139-0.171-0.113-0.421,0.057-0.56l1.303-1.062c0.17-0.138,0.42-0.113,0.559,0.057l5.86,7.196
			C23.788,44.386,23.763,44.635,23.592,44.774"/>
		<g>
			<defs>
				<rect id="SVGID_7_" x="7.108" y="24.556" width="10.336" height="14.354"/>
			</defs>
			<clipPath id="SVGID_8_">
				<use xlink:href="#SVGID_7_"  overflow="visible"/>
			</clipPath>
			<g clip-path="url(#SVGID_8_)">
				<defs>
					<path id="SVGID_9_" d="M17.444,31.593c0,2.854-2.314,5.168-5.168,5.168c-2.854,0-5.167-2.314-5.167-5.168
						c0-2.854,2.313-5.168,5.167-5.168C15.13,26.425,17.444,28.738,17.444,31.593"/>
				</defs>
				<clipPath id="SVGID_10_">
					<use xlink:href="#SVGID_9_"  overflow="visible"/>
				</clipPath>
				
					<rect x="13.808" y="24.58" transform="matrix(0.9716 0.2365 -0.2365 0.9716 7.9253 -2.5927)" clip-path="url(#SVGID_10_)" fill="#FFFFFF" width="1.92" height="14.306"/>
				
					<rect x="12.093" y="24.38" transform="matrix(0.9714 0.2375 -0.2375 0.9714 7.8398 -1.9974)" clip-path="url(#SVGID_10_)" fill="#FFFFFF" width="0.23" height="14.306"/>
			</g>
		</g>
	</g>
</g>
</svg>
