<?xml version="1.0" encoding="utf-8"?>
<!-- Generator: Adobe Illustrator 16.0.0, SVG Export Plug-In . SVG Version: 6.00 Build 0)  -->
<!DOCTYPE svg PUBLIC "-//W3C//DTD SVG 1.1//EN" "http://www.w3.org/Graphics/SVG/1.1/DTD/svg11.dtd">
<svg version="1.1" xmlns="http://www.w3.org/2000/svg" xmlns:xlink="http://www.w3.org/1999/xlink" x="0px" y="0px" width="100px"
	 height="100px" viewBox="0 0 100 100" enable-background="new 0 0 100 100" xml:space="preserve">
<g id="Capa_1" display="none">
	<g display="inline">
		<g>
			<g>
				<path fill="#3D8AFF" d="M50.001,50.35c5.904,0,10.949-2.087,15.125-6.269c4.183-4.174,6.272-9.22,6.272-15.128
					c0-5.906-2.09-10.953-6.272-15.131c-4.182-4.177-9.222-6.268-15.125-6.268c-5.906,0-10.956,2.091-15.129,6.268
					c-4.181,4.178-6.27,9.225-6.27,15.131c0,5.909,2.088,10.954,6.27,15.128C39.048,48.262,44.095,50.35,50.001,50.35z"/>
				<path fill="#3D8AFF" d="M89.033,72.945c-0.125-1.873-0.388-3.901-0.777-6.069c-0.392-2.175-0.878-4.193-1.477-6.048
					c-0.597-1.854-1.393-3.667-2.397-5.434c-1.003-1.763-2.15-3.266-3.456-4.515c-1.3-1.244-2.887-2.237-4.763-2.979
					c-1.877-0.744-3.95-1.112-6.215-1.112c-0.337,0-1.111,0.394-2.336,1.193c-1.233,0.803-2.611,1.69-4.152,2.675
					c-1.546,0.986-3.557,1.879-6.025,2.674c-2.465,0.797-4.948,1.202-7.436,1.202c-2.489,0-4.968-0.405-7.439-1.202
					c-2.473-0.795-4.476-1.688-6.018-2.674c-1.546-0.985-2.927-1.873-4.153-2.675c-1.223-0.799-2.007-1.193-2.339-1.193
					c-2.267,0-4.336,0.368-6.212,1.112c-1.876,0.742-3.469,1.735-4.767,2.979c-1.3,1.249-2.452,2.752-3.456,4.515
					c-1,1.767-1.799,3.579-2.394,5.434c-0.592,1.854-1.087,3.873-1.479,6.048c-0.39,2.168-0.649,4.196-0.78,6.069
					c-0.128,1.88-0.194,3.804-0.194,5.772c0,4.454,1.355,7.977,4.066,10.564c2.712,2.574,6.317,3.868,10.814,3.868h48.708
					c4.491,0,8.099-1.294,10.811-3.868c2.715-2.588,4.067-6.11,4.067-10.564C89.232,76.749,89.164,74.825,89.033,72.945z"/>
			</g>
		</g>
	</g>
</g>
<g id="Capa_2" display="none">
	<g display="inline">
		<path fill="#E1852C" d="M71.807,59.5c-0.416-1.398-0.919-2.62-1.513-3.656c-0.458-0.807-1.206-1.597-1.982-2.375
			c-0.211-0.219-0.305-0.442-0.545-0.656c-1.1-0.988-2.082-1.786-2.956-2.385c-0.878-0.601-2.078-1.278-3.609-2.028
			c-1.525-0.748-2.734-1.312-3.629-1.672c-0.89-0.369-2.175-0.87-3.87-1.505c-1.489-0.572-2.604-1.009-3.333-1.312
			c-0.734-0.303-1.701-0.736-2.896-1.284c-1.193-0.567-2.083-1.06-2.676-1.484c-0.586-0.431-1.208-0.96-1.878-1.576
			c-0.671-0.621-1.146-1.285-1.413-1.984c-0.267-0.697-0.402-1.468-0.402-2.288c0-2.167,0.953-3.933,2.866-5.309
			c1.899-1.363,4.37-2.048,7.395-2.048c1.339,0,2.704,0.184,4.079,0.551c1.391,0.367,2.578,0.777,3.561,1.243
			c0.988,0.466,1.921,0.974,2.794,1.524c0.877,0.558,1.498,0.981,1.857,1.272c0.368,0.282,0.606,0.473,0.692,0.564
			c0.325,0.248,0.651,0.367,0.99,0.367c0.099,0,0.204-0.007,0.303-0.028c0.479-0.028,0.847-0.283,1.102-0.763l0.212-0.382
			l3.656-6.593c0.381-0.636,0.296-1.244-0.239-1.808c-0.19-0.197-0.432-0.424-0.72-0.678c-0.234-0.197-0.742-0.579-1.421-1.059
			c-0.154-0.114-0.26-0.199-0.444-0.326c-0.954-0.664-1.964-1.255-3.021-1.786c-1.066-0.523-2.458-1.06-4.158-1.603
			c-1.704-0.537-3.461-0.905-5.275-1.095V8.936c0-0.445-0.143-0.812-0.431-1.094c-0.281-0.29-0.649-0.438-1.104-0.438h-6.437
			c-0.423,0-0.778,0.157-1.081,0.452c-0.305,0.311-0.453,0.665-0.453,1.081v8.593c-4.999,0.954-9.058,3.086-12.173,6.398
			c-3.128,3.311-4.681,7.16-4.681,11.551c0,1.313,0.135,2.549,0.411,3.729c0.077,0.338,0.196,0.592,0.289,0.91
			c0.22,0.79,0.424,1.589,0.712,2.266c0.395,0.933,0.962,1.856,1.688,2.769c0.733,0.903,1.427,1.68,2.082,2.345
			c0.207,0.196,0.559,0.424,0.805,0.634c0.53,0.453,1.031,0.904,1.746,1.384c1.051,0.706,1.956,1.272,2.697,1.696
			c0.754,0.438,1.744,0.931,2.985,1.482c1.243,0.557,2.218,0.981,2.938,1.271c0.72,0.282,1.695,0.677,2.938,1.187
			c1.723,0.67,2.993,1.186,3.826,1.553c0.817,0.367,1.873,0.876,3.142,1.523c1.272,0.651,2.211,1.259,2.797,1.796
			c0.586,0.535,1.124,1.214,1.603,2.006c0.48,0.789,0.713,1.637,0.713,2.526c0,2.514-0.975,4.461-2.93,5.827
			c-1.964,1.368-4.231,2.053-6.814,2.053c-1.173,0-2.352-0.128-3.523-0.381c-4.145-0.832-8.009-2.817-11.609-5.968l-0.092-0.093
			c-0.246-0.293-0.549-0.449-0.925-0.449c-0.069,0-0.141,0.007-0.218,0.012c-0.517,0.073-0.876,0.255-1.109,0.581l-4.915,6.44
			c-0.471,0.634-0.444,1.291,0.093,1.963c0.162,0.183,0.445,0.471,0.839,0.853c0.396,0.39,1.137,0.979,2.218,1.795
			c1.086,0.812,2.259,1.572,3.537,2.294c1.279,0.72,2.888,1.427,4.85,2.126c1.958,0.696,3.984,1.185,6.088,1.477v8.357
			c0,0.411,0.149,0.764,0.445,1.073c0.311,0.297,0.662,0.453,1.081,0.453h6.437c0.454,0,0.822-0.14,1.111-0.433
			c0.28-0.288,0.423-0.647,0.423-1.094v-8.357c5.056-0.827,9.181-3.002,12.344-6.512c3.168-3.523,4.75-7.717,4.75-12.582
			c0-0.508-0.153-0.948-0.196-1.44C72.138,61.504,72.089,60.447,71.807,59.5z"/>
	</g>
</g>
<g id="Capa_2_copia" display="none">
	<g display="inline">
		<path opacity="0.7" fill="#FFFFFF" d="M37.888,26.385c1.986-1.99,4.275-3.256,6.811-3.937c-0.436-0.569-0.86-1.143-1.391-1.671
			c-3.024-3.021-6.67-4.533-10.941-4.533c-4.271,0-7.924,1.512-10.94,4.533c-3.024,3.022-4.535,6.671-4.535,10.942
			c0,4.274,1.511,7.922,4.535,10.941c3.021,3.024,6.67,4.533,10.94,4.533c1.459,0,2.816-0.243,4.13-0.595
			c-2.057-2.671-3.141-5.747-3.141-9.271C33.355,33.058,34.863,29.408,37.888,26.385z"/>
		<path fill="#FFFFFF" d="M35.243,50.582c0.037,0.021,0.086,0.056,0.129,0.079c-0.016-0.009-0.065-0.05-0.076-0.056
			C35.28,50.596,35.258,50.592,35.243,50.582z"/>
		<path opacity="0.7" fill="#FFFFFF" d="M20.597,69.143c0.094-1.354,0.281-2.82,0.563-4.391c0.28-1.572,0.641-3.029,1.069-4.375
			c0.433-1.34,1.008-2.648,1.731-3.928c0.725-1.273,1.558-2.361,2.497-3.264c0.94-0.9,2.093-1.617,3.449-2.154
			c1.235-0.491,2.603-0.726,4.073-0.769c-0.17-0.023-0.307-0.036-0.307-0.036c-0.038-0.034-0.023-0.075-0.049-0.11
			c-0.422,0.033-0.838,0.103-1.263,0.103c-1.796,0-3.593-0.292-5.377-0.87c-1.789-0.575-3.236-1.22-4.355-1.933
			c-1.113-0.712-2.113-1.354-3-1.936c-0.886-0.577-1.452-0.863-1.692-0.863c-1.639,0-3.136,0.267-4.492,0.805
			c-1.356,0.537-2.509,1.254-3.447,2.154c-0.94,0.902-1.772,1.99-2.499,3.265c-0.724,1.278-1.302,2.588-1.732,3.928
			c-0.427,1.346-0.785,2.803-1.068,4.373c-0.282,1.572-0.469,3.037-0.564,4.393c-0.093,1.357-0.14,2.75-0.14,4.172
			c0,3.225,0.979,5.771,2.94,7.639c1.961,1.863,4.567,2.801,7.82,2.801h6.694c-0.637-1.398-0.993-2.99-0.993-4.832
			C20.456,71.895,20.502,70.504,20.597,69.143z"/>
		<path fill="#FFFFFF" d="M42.568,51.496c-1.376-0.61-2.642-1.472-3.831-2.521c-0.027,0.009-0.054,0.019-0.076,0.028
			c0.758,0.737,2.012,1.73,3.889,2.528C42.558,51.52,42.561,51.507,42.568,51.496z"/>
		<path opacity="0.7" fill="#FFFFFF" d="M64.304,37.328c0,3.364-0.976,6.331-2.853,8.919c1.88,0.808,3.919,1.227,6.132,1.22
			c4.275-0.012,7.916-1.529,10.93-4.562c3.017-3.026,4.518-6.679,4.511-10.951c-0.013-4.271-1.532-7.917-4.564-10.931
			c-3.03-3.013-6.681-4.518-10.95-4.506c-4.272,0.012-7.921,1.531-10.93,4.56c-0.628,0.633-1.156,1.309-1.654,1.997
			c1.76,0.754,3.378,1.847,4.845,3.312C62.793,29.408,64.304,33.058,64.304,37.328z"/>
		<path fill="#FFFFFF" d="M59.452,48.579l0.112,0.037c-0.045-0.023-0.083-0.048-0.128-0.071c-0.583,0.558-1.191,1.069-1.82,1.515
			C58.783,49.252,59.452,48.579,59.452,48.579z"/>
		<path opacity="0.7" fill="#FFFFFF" d="M95.857,63.738c-0.101-1.357-0.292-2.822-0.578-4.391c-0.286-1.57-0.646-3.025-1.08-4.371
			c-0.43-1.34-1.013-2.649-1.745-3.925c-0.724-1.272-1.558-2.359-2.504-3.257c-0.94-0.898-2.093-1.614-3.447-2.146
			c-1.363-0.534-2.859-0.798-4.495-0.794c-0.242,0-0.804,0.289-1.691,0.868c-0.892,0.582-1.887,1.227-3.001,1.942
			c-1.113,0.717-2.562,1.367-4.35,1.945c-1.782,0.581-3.575,0.879-5.375,0.882c-1.087,0.003-2.17-0.136-3.251-0.346l0.25,0.082
			c-3.092-0.789-3.949,2.908-12.02,5.129c0.545-0.123,1.09-0.223,1.635-0.396c1.786-0.576,3.236-1.221,4.355-1.934
			c1.114-0.714,2.11-1.355,3.002-1.936c0.891-0.578,1.449-0.863,1.694-0.863c1.636,0,3.133,0.268,4.491,0.805
			c1.359,0.537,2.503,1.254,3.444,2.154c0.942,0.902,1.773,1.99,2.5,3.264c0.728,1.279,1.305,2.588,1.732,3.928
			c0.432,1.346,0.784,2.803,1.069,4.375c0.283,1.57,0.469,3.037,0.562,4.391c0.091,1.361,0.145,2.752,0.145,4.172
			c0,1.957-0.404,3.629-1.124,5.084l9.197-0.023c3.25-0.008,5.857-0.951,7.809-2.818c1.957-1.873,2.933-4.42,2.923-7.646
			C96.006,66.49,95.952,65.098,95.857,63.738z"/>
		<path fill="#FFFFFF" d="M42.55,51.531c0.106,0.045,0.216,0.088,0.324,0.133c-0.105-0.045-0.2-0.121-0.306-0.168
			C42.561,51.507,42.558,51.52,42.55,51.531z"/>
		<path fill="#FFFFFF" d="M55.07,51.507c0.736-0.334,1.372-0.692,1.937-1.049C56.382,50.857,55.738,51.211,55.07,51.507z"/>
		<path fill="#FFFFFF" d="M54.262,51.82c-0.703,0.264-1.419,0.493-2.169,0.647C52.872,52.299,53.593,52.08,54.262,51.82z"/>
		<path fill="#FFFFFF" d="M51.759,55.551c-0.231,0.053-0.454,0.053-0.683,0.096C51.305,55.615,51.531,55.592,51.759,55.551z"/>
		<path fill="#FFFFFF" d="M48.252,52.75c-0.624-0.02-1.234-0.082-1.83-0.168C46.994,52.666,47.608,52.719,48.252,52.75z"/>
		<path fill="#FFFFFF" d="M45.376,52.412c-0.849-0.186-1.679-0.41-2.471-0.736C43.646,51.965,44.455,52.219,45.376,52.412z"/>
		<path fill="#FFFFFF" d="M49.257,52.803c0.918,0,1.773-0.115,2.593-0.277c-0.922,0.172-1.881,0.254-2.865,0.264
			C49.079,52.789,49.159,52.803,49.257,52.803z"/>
		<path fill="#FFFFFF" d="M42.874,51.664c0.013,0.002,0.023,0.008,0.031,0.012c0.792,0.326,1.622,0.551,2.471,0.736
			c0.334,0.066,0.69,0.119,1.046,0.17c0.596,0.086,1.206,0.148,1.83,0.168c0.247,0.014,0.478,0.037,0.732,0.039
			c0.984-0.01,1.943-0.092,2.865-0.264c0.084-0.016,0.158-0.041,0.243-0.058c0.75-0.154,1.466-0.384,2.169-0.647
			c0.27-0.105,0.556-0.2,0.809-0.313c0.668-0.296,1.312-0.65,1.937-1.049c0.216-0.135,0.425-0.268,0.609-0.398
			c0.629-0.445,1.237-0.957,1.82-1.515c0.106-0.102,0.228-0.169,0.333-0.277c0.642-0.64,1.18-1.324,1.682-2.021
			c1.877-2.588,2.853-5.555,2.853-8.919c0-4.271-1.511-7.92-4.534-10.943c-1.467-1.465-3.085-2.558-4.845-3.312
			c-1.871-0.804-3.895-1.22-6.097-1.22c-1.459,0-2.815,0.242-4.13,0.594c-2.535,0.681-4.824,1.947-6.811,3.937
			c-3.024,3.022-4.532,6.672-4.532,10.943c0,3.524,1.084,6.6,3.141,9.271c0.438,0.568,0.861,1.142,1.392,1.669
			c0.27,0.27,0.569,0.461,0.85,0.708c1.189,1.048,2.455,1.91,3.831,2.521C42.674,51.543,42.769,51.619,42.874,51.664z"/>
		<path fill="#FFFFFF" d="M77.057,69.143c-0.094-1.354-0.279-2.82-0.562-4.391c-0.285-1.572-0.638-3.029-1.069-4.375
			c-0.428-1.34-1.005-2.648-1.732-3.928c-0.727-1.273-1.558-2.361-2.5-3.264c-0.941-0.9-2.085-1.617-3.444-2.154
			c-1.358-0.537-2.855-0.805-4.491-0.805c-0.245,0-0.804,0.285-1.694,0.863c-0.892,0.58-1.888,1.222-3.002,1.936
			c-1.119,0.713-2.569,1.357-4.355,1.934c-0.545,0.174-1.09,0.273-1.635,0.396c-0.179,0.047-0.312,0.105-0.498,0.154
			c-0.108,0.027-0.209,0.02-0.313,0.041c-0.228,0.041-0.454,0.064-0.683,0.096c-8.02,1.426-15.007-4.5-15.704-4.986
			c-0.043-0.022-0.092-0.058-0.129-0.079c-0.341-0.18-0.909-0.276-1.263-0.319c-1.471,0.043-2.838,0.278-4.073,0.769
			c-1.356,0.537-2.509,1.254-3.449,2.154c-0.939,0.902-1.772,1.99-2.497,3.264c-0.724,1.279-1.299,2.588-1.731,3.928
			c-0.429,1.346-0.789,2.803-1.069,4.375c-0.282,1.57-0.47,3.037-0.563,4.391c-0.095,1.361-0.141,2.752-0.141,4.172
			c0,1.842,0.356,3.434,0.993,4.832c0.48,1.055,1.105,2.008,1.947,2.811c1.964,1.861,4.57,2.799,7.822,2.799h35.221
			c3.25,0,5.857-0.938,7.821-2.799c0.774-0.738,1.35-1.611,1.816-2.559c0.72-1.455,1.124-3.127,1.124-5.084
			C77.201,71.895,77.147,70.504,77.057,69.143z"/>
	</g>
</g>
<g id="Capa_2_copia_2">
	<g>
		<path opacity="0.7" fill="#FFFFFF" d="M37.314,53.629c-0.249-0.161-0.422-0.255-0.7-0.438c-0.654-0.439-1.143-0.855-1.804-1.416
			c-0.312-0.234-0.61-0.478-0.833-0.7c-0.611-0.611-1.261-1.332-1.95-2.187c-0.821-1.028-1.47-2.099-1.915-3.154
			c-0.271-0.633-0.488-1.366-0.76-2.338c-0.1-0.283-0.194-0.572-0.267-0.882c-0.199-0.844-0.233-1.76-0.293-2.666
			c-0.523-0.21-1.189-0.466-2.083-0.805c-0.889-0.339-1.549-0.6-1.982-0.783c-0.438-0.178-1.016-0.433-1.727-0.766
			c-0.711-0.334-1.239-0.622-1.588-0.877c-0.349-0.256-0.721-0.572-1.122-0.938c-0.4-0.372-0.677-0.767-0.838-1.183
			c-0.162-0.411-0.239-0.872-0.239-1.366c0-1.288,0.566-2.331,1.705-3.153c1.133-0.811,2.599-1.222,4.398-1.222
			c0.799,0,1.61,0.111,2.432,0.333c0.827,0.217,1.532,0.456,2.115,0.733c0.338,0.167,0.644,0.35,0.96,0.527
			c0.728-1.31,1.572-2.576,2.671-3.736c0.51-0.544,1.138-0.933,1.698-1.417c-0.05-0.033-0.05-0.039-0.1-0.072
			c-0.566-0.4-1.171-0.755-1.799-1.066c-0.633-0.311-1.465-0.633-2.477-0.955c-1.01-0.322-2.059-0.534-3.137-0.656v-4.997
			c0-0.266-0.083-0.483-0.256-0.655c-0.171-0.169-0.388-0.255-0.66-0.255h-3.832c-0.25,0-0.46,0.092-0.644,0.269
			c-0.178,0.184-0.266,0.394-0.266,0.642v5.119c-2.977,0.561-5.392,1.833-7.246,3.798c-1.86,1.977-2.782,4.264-2.782,6.88
			c0,0.776,0.079,1.515,0.238,2.215c0.156,0.7,0.362,1.333,0.601,1.888c0.233,0.561,0.571,1.11,1.004,1.649
			c0.432,0.544,0.849,1.005,1.238,1.394c0.389,0.388,0.895,0.794,1.516,1.21c0.627,0.411,1.165,0.755,1.604,1.011
			c0.449,0.256,1.038,0.544,1.777,0.877c0.745,0.333,1.321,0.583,1.749,0.755c0.433,0.166,1.012,0.405,1.75,0.71
			c1.027,0.395,1.782,0.705,2.276,0.922c0.489,0.216,1.116,0.521,1.871,0.911c0.754,0.382,1.315,0.743,1.666,1.065
			c0.351,0.323,0.666,0.723,0.955,1.188c0.283,0.478,0.422,0.978,0.422,1.51c0,1.494-0.577,2.654-1.743,3.465
			c-1.166,0.811-2.516,1.221-4.053,1.221c-0.701,0-1.399-0.077-2.099-0.227c-2.466-0.494-4.764-1.677-6.908-3.548l-0.055-0.057
			c-0.171-0.21-0.398-0.299-0.683-0.26c-0.304,0.038-0.517,0.149-0.655,0.344l-2.926,3.836c-0.284,0.379-0.268,0.767,0.055,1.166
			c0.094,0.111,0.261,0.278,0.5,0.506c0.234,0.229,0.677,0.583,1.316,1.072c0.649,0.478,1.349,0.932,2.104,1.365
			c0.76,0.422,1.721,0.844,2.887,1.261c1.166,0.416,2.371,0.705,3.625,0.882v4.97c0,0.245,0.089,0.462,0.261,0.639
			c0.19,0.178,0.4,0.271,0.644,0.271h3.832c0.272,0,0.489-0.083,0.66-0.261c0.173-0.166,0.256-0.383,0.256-0.649v-4.97
			c3.01-0.498,5.464-1.787,7.346-3.881C36.121,56.482,36.86,55.117,37.314,53.629z"/>
		<path opacity="0.7" fill="#FFFFFF" d="M87.828,47.538c-0.244-0.833-0.543-1.56-0.897-2.171c-0.345-0.616-0.846-1.221-1.5-1.81
			c-0.661-0.583-1.244-1.055-1.766-1.416c-0.516-0.361-1.233-0.761-2.144-1.205c-0.909-0.45-1.627-0.777-2.159-1
			c-0.533-0.216-1.295-0.51-2.305-0.894c-0.888-0.339-1.549-0.6-1.983-0.783c-0.438-0.178-1.015-0.433-1.727-0.766
			c-0.71-0.334-1.236-0.622-1.587-0.877c-0.35-0.256-0.722-0.572-1.122-0.938c-0.399-0.372-0.677-0.767-0.838-1.183
			c-0.16-0.411-0.238-0.872-0.238-1.366c0-0.411,0.145-0.766,0.277-1.131l0.41-0.906c0.273-0.4,0.566-0.788,1.017-1.116
			c1.133-0.811,2.6-1.222,4.398-1.222c0.798,0,1.608,0.111,2.431,0.333c0.828,0.217,1.532,0.456,2.116,0.733
			c0.588,0.278,1.142,0.583,1.664,0.911c0.522,0.333,0.891,0.589,1.106,0.755c0.216,0.167,0.36,0.284,0.411,0.344
			c0.255,0.189,0.505,0.256,0.771,0.201c0.284-0.022,0.5-0.178,0.656-0.456l2.298-4.153c0.227-0.378,0.178-0.738-0.139-1.078
			c-0.115-0.116-0.255-0.249-0.429-0.399c-0.17-0.15-0.537-0.428-1.109-0.822c-0.566-0.4-1.171-0.755-1.799-1.066
			c-0.632-0.311-1.466-0.633-2.477-0.955c-1.01-0.322-2.061-0.534-3.137-0.656v-4.997c0-0.266-0.083-0.483-0.255-0.655
			c-0.173-0.169-0.39-0.255-0.661-0.255h-3.832c-0.248,0-0.46,0.092-0.644,0.269c-0.178,0.184-0.266,0.394-0.266,0.642v5.119
			c-2.182,0.411-3.958,1.333-5.542,2.51l-0.521,0.633c0,0,4.414,2.721,2.726,6.334l-3.081,6.847
			c-0.295,0.371-0.577,0.755-0.927,1.055c0.133,0.139,0.272,0.322,0.398,0.444c0.39,0.388,0.895,0.794,1.517,1.21
			c0.628,0.411,1.166,0.755,1.605,1.011c0.448,0.256,1.037,0.544,1.776,0.877c0.743,0.333,1.321,0.583,1.749,0.755
			c0.433,0.166,1.01,0.405,1.748,0.71c1.027,0.395,1.782,0.705,2.277,0.922c0.487,0.216,1.116,0.521,1.87,0.911
			c0.755,0.382,1.315,0.743,1.666,1.065c0.349,0.323,0.666,0.723,0.955,1.188c0.284,0.478,0.423,0.978,0.423,1.51
			c0,1.494-0.577,2.654-1.743,3.465c-1.166,0.811-2.516,1.221-4.055,1.221c-0.699,0-1.399-0.077-2.1-0.227
			c-1.198-0.239-2.353-0.661-3.474-1.222c0.372,0.794,0.454,1.571,0.733,2.515c0.314,1.056,0.397,2.066,0.466,2.888l0.039,0.388
			c0.094,0.479,0.16,0.95,0.16,1.467c0,0.101-0.021,0.188-0.021,0.288c0.354,0.067,0.993,0.189,1.359,0.244v4.97
			c0,0.245,0.089,0.462,0.261,0.639c0.189,0.178,0.4,0.271,0.644,0.271h3.832c0.271,0,0.488-0.083,0.661-0.261
			c0.172-0.166,0.255-0.383,0.255-0.649v-4.97c3.009-0.498,5.463-1.787,7.346-3.881c1.882-2.093,2.825-4.591,2.825-7.489
			C88.2,49.264,88.079,48.376,87.828,47.538z"/>
		<path fill="#FFFFFF" d="M66.598,57.499c-0.327-1.1-0.722-2.061-1.188-2.87c-0.362-0.639-0.951-1.255-1.562-1.871
			c-0.166-0.173-0.238-0.351-0.427-0.518c-0.866-0.776-1.639-1.398-2.327-1.876c-0.687-0.472-1.632-1.005-2.837-1.594
			c-1.198-0.589-2.149-1.027-2.854-1.315c-0.698-0.289-1.709-0.678-3.042-1.178c-1.171-0.455-2.049-0.799-2.621-1.033
			c-0.577-0.244-1.338-0.577-2.277-1.016c-0.938-0.438-1.638-0.827-2.104-1.166c-0.46-0.338-0.949-0.749-1.477-1.238
			s-0.899-1.011-1.111-1.554c-0.21-0.556-0.316-1.155-0.316-1.805c0-1.705,0.749-3.093,2.253-4.17
			c1.494-1.076,3.438-1.61,5.813-1.61c1.056,0,2.127,0.145,3.21,0.433c1.093,0.289,2.026,0.611,2.799,0.978
			c0.776,0.361,1.509,0.761,2.197,1.2c0.689,0.432,1.178,0.766,1.46,0.994c0.289,0.227,0.479,0.372,0.545,0.449
			c0.255,0.188,0.511,0.289,0.777,0.289c0.077,0,0.16-0.012,0.239-0.022c0.377-0.028,0.666-0.228,0.865-0.599l0.166-0.306
			l2.876-5.18c0.302-0.5,0.232-0.977-0.188-1.427c-0.149-0.149-0.338-0.328-0.564-0.527c-0.185-0.161-0.585-0.456-1.117-0.832
			c-0.122-0.089-0.205-0.157-0.351-0.256c-0.749-0.521-1.543-0.994-2.376-1.41c-0.838-0.411-1.931-0.833-3.27-1.255
			c-1.339-0.422-2.721-0.711-4.148-0.866v-6.604c0-0.353-0.111-0.639-0.339-0.863c-0.222-0.226-0.51-0.339-0.865-0.339h-5.064
			c-0.332,0-0.61,0.12-0.849,0.355c-0.238,0.242-0.356,0.522-0.356,0.847v6.759c-3.93,0.744-7.122,2.421-9.572,5.031
			c-2.458,2.598-3.681,5.63-3.681,9.083c0,1.027,0.105,2,0.323,2.932c0.061,0.267,0.155,0.466,0.227,0.711
			c0.173,0.622,0.333,1.255,0.561,1.783c0.31,0.738,0.755,1.46,1.326,2.176c0.578,0.716,1.122,1.327,1.638,1.843
			c0.162,0.162,0.439,0.339,0.634,0.506c0.416,0.355,0.81,0.71,1.371,1.088c0.827,0.551,1.537,0.999,2.121,1.333
			c0.595,0.339,1.371,0.727,2.349,1.166c0.977,0.434,1.742,0.767,2.31,0.994c0.566,0.222,1.333,0.539,2.309,0.938
			c1.355,0.522,2.354,0.933,3.01,1.221c0.645,0.29,1.472,0.69,2.471,1.2c0.999,0.511,1.738,0.982,2.198,1.41
			c0.461,0.422,0.884,0.949,1.261,1.576c0.377,0.623,0.561,1.289,0.561,1.988c0,1.977-0.766,3.504-2.304,4.575
			c-1.544,1.077-3.326,1.621-5.358,1.621c-0.921,0-1.85-0.101-2.771-0.3c-3.259-0.654-6.296-2.221-9.127-4.697l-0.073-0.071
			c-0.194-0.234-0.433-0.351-0.728-0.351c-0.055,0-0.11,0-0.171,0.012c-0.406,0.05-0.689,0.2-0.871,0.455l-3.866,5.063
			c-0.371,0.5-0.351,1.01,0.072,1.543c0.128,0.146,0.35,0.367,0.66,0.667c0.312,0.306,0.895,0.777,1.743,1.409
			c0.855,0.646,1.778,1.244,2.782,1.812c1.005,0.56,2.271,1.116,3.815,1.664c1.537,0.55,3.131,0.934,4.786,1.166v6.568
			c0,0.328,0.116,0.606,0.35,0.85c0.245,0.233,0.522,0.355,0.849,0.355h5.064c0.355,0,0.644-0.115,0.871-0.345
			c0.222-0.221,0.333-0.51,0.333-0.86v-6.568c3.976-0.655,7.218-2.364,9.706-5.125c2.492-2.77,3.736-6.067,3.736-9.894
			c0-0.399-0.123-0.743-0.154-1.127C66.858,59.081,66.82,58.248,66.598,57.499z"/>
	</g>
</g>
</svg>
