<?xml version="1.0" encoding="utf-8"?>
<!-- Generator: Adobe Illustrator 16.0.0, SVG Export Plug-In . SVG Version: 6.00 Build 0)  -->
<!DOCTYPE svg PUBLIC "-//W3C//DTD SVG 1.1//EN" "http://www.w3.org/Graphics/SVG/1.1/DTD/svg11.dtd">
<svg version="1.1" xmlns="http://www.w3.org/2000/svg" xmlns:xlink="http://www.w3.org/1999/xlink" x="0px" y="0px" width="100px"
	 height="100px" viewBox="0 0 100 100" enable-background="new 0 0 100 100" xml:space="preserve">
<g id="Capa_1" display="none">
	<g display="inline">
		<g>
			<g>
				<path fill="#3D8AFF" d="M50.001,50.35c5.904,0,10.949-2.087,15.125-6.269c4.183-4.174,6.272-9.22,6.272-15.128
					c0-5.906-2.09-10.953-6.272-15.131c-4.182-4.177-9.222-6.268-15.125-6.268c-5.906,0-10.956,2.091-15.129,6.268
					c-4.181,4.178-6.27,9.225-6.27,15.131c0,5.909,2.088,10.954,6.27,15.128C39.048,48.262,44.095,50.35,50.001,50.35z"/>
				<path fill="#3D8AFF" d="M89.033,72.945c-0.125-1.873-0.388-3.901-0.777-6.069c-0.392-2.175-0.878-4.193-1.477-6.048
					c-0.597-1.854-1.393-3.667-2.397-5.434c-1.003-1.763-2.15-3.266-3.456-4.515c-1.3-1.244-2.887-2.237-4.763-2.979
					c-1.877-0.744-3.95-1.112-6.215-1.112c-0.337,0-1.111,0.394-2.336,1.193c-1.233,0.803-2.611,1.69-4.152,2.675
					c-1.546,0.986-3.557,1.879-6.025,2.674c-2.465,0.797-4.948,1.202-7.436,1.202c-2.489,0-4.968-0.405-7.439-1.202
					c-2.473-0.795-4.476-1.688-6.018-2.674c-1.546-0.985-2.927-1.873-4.153-2.675c-1.223-0.799-2.007-1.193-2.339-1.193
					c-2.267,0-4.336,0.368-6.212,1.112c-1.876,0.742-3.469,1.735-4.767,2.979c-1.3,1.249-2.452,2.752-3.456,4.515
					c-1,1.767-1.799,3.579-2.394,5.434c-0.592,1.854-1.087,3.873-1.479,6.048c-0.39,2.168-0.649,4.196-0.78,6.069
					c-0.128,1.88-0.194,3.804-0.194,5.772c0,4.454,1.355,7.977,4.066,10.564c2.712,2.574,6.317,3.868,10.814,3.868h48.708
					c4.491,0,8.099-1.294,10.811-3.868c2.715-2.588,4.067-6.11,4.067-10.564C89.232,76.749,89.164,74.825,89.033,72.945z"/>
			</g>
		</g>
	</g>
</g>
<g id="Capa_2" display="none">
	<g display="inline">
		<path fill="#E1852C" d="M71.807,59.5c-0.416-1.398-0.919-2.62-1.513-3.656c-0.458-0.807-1.206-1.597-1.982-2.375
			c-0.211-0.219-0.305-0.442-0.545-0.656c-1.1-0.988-2.082-1.786-2.956-2.385c-0.878-0.601-2.078-1.278-3.609-2.028
			c-1.525-0.748-2.734-1.312-3.629-1.672c-0.89-0.369-2.175-0.87-3.87-1.505c-1.489-0.572-2.604-1.009-3.333-1.312
			c-0.734-0.303-1.701-0.736-2.896-1.284c-1.193-0.567-2.083-1.06-2.676-1.484c-0.586-0.431-1.208-0.96-1.878-1.576
			c-0.671-0.621-1.146-1.285-1.413-1.984c-0.267-0.697-0.402-1.468-0.402-2.288c0-2.167,0.953-3.933,2.866-5.309
			c1.899-1.363,4.37-2.048,7.395-2.048c1.339,0,2.704,0.184,4.079,0.551c1.391,0.367,2.578,0.777,3.561,1.243
			c0.988,0.466,1.921,0.974,2.794,1.524c0.877,0.558,1.498,0.981,1.857,1.272c0.368,0.282,0.606,0.473,0.692,0.564
			c0.325,0.248,0.651,0.367,0.99,0.367c0.099,0,0.204-0.007,0.303-0.028c0.479-0.028,0.847-0.283,1.102-0.763l0.212-0.382
			l3.656-6.593c0.381-0.636,0.296-1.244-0.239-1.808c-0.19-0.197-0.432-0.424-0.72-0.678c-0.234-0.197-0.742-0.579-1.421-1.059
			c-0.154-0.114-0.26-0.199-0.444-0.326c-0.954-0.664-1.964-1.255-3.021-1.786c-1.066-0.523-2.458-1.06-4.158-1.603
			c-1.704-0.537-3.461-0.905-5.275-1.095V8.936c0-0.445-0.143-0.812-0.431-1.094c-0.281-0.29-0.649-0.438-1.104-0.438h-6.437
			c-0.423,0-0.778,0.157-1.081,0.452c-0.305,0.311-0.453,0.665-0.453,1.081v8.593c-4.999,0.954-9.058,3.086-12.173,6.398
			c-3.128,3.311-4.681,7.16-4.681,11.551c0,1.313,0.135,2.549,0.411,3.729c0.077,0.338,0.196,0.592,0.289,0.91
			c0.22,0.79,0.424,1.589,0.712,2.266c0.395,0.933,0.962,1.856,1.688,2.769c0.733,0.903,1.427,1.68,2.082,2.345
			c0.207,0.196,0.559,0.424,0.805,0.634c0.53,0.453,1.031,0.904,1.746,1.384c1.051,0.706,1.956,1.272,2.697,1.696
			c0.754,0.438,1.744,0.931,2.985,1.482c1.243,0.557,2.218,0.981,2.938,1.271c0.72,0.282,1.695,0.677,2.938,1.187
			c1.723,0.67,2.993,1.186,3.826,1.553c0.817,0.367,1.873,0.876,3.142,1.523c1.272,0.651,2.211,1.259,2.797,1.796
			c0.586,0.535,1.124,1.214,1.603,2.006c0.48,0.789,0.713,1.637,0.713,2.526c0,2.514-0.975,4.461-2.93,5.827
			c-1.964,1.368-4.231,2.053-6.814,2.053c-1.173,0-2.352-0.128-3.523-0.381c-4.145-0.832-8.009-2.817-11.609-5.968l-0.092-0.093
			c-0.246-0.293-0.549-0.449-0.925-0.449c-0.069,0-0.141,0.007-0.218,0.012c-0.517,0.073-0.876,0.255-1.109,0.581l-4.915,6.44
			c-0.471,0.634-0.444,1.291,0.093,1.963c0.162,0.183,0.445,0.471,0.839,0.853c0.396,0.39,1.137,0.979,2.218,1.795
			c1.086,0.812,2.259,1.572,3.537,2.294c1.279,0.72,2.888,1.427,4.85,2.126c1.958,0.696,3.984,1.185,6.088,1.477v8.357
			c0,0.411,0.149,0.764,0.445,1.073c0.311,0.297,0.662,0.453,1.081,0.453h6.437c0.454,0,0.822-0.14,1.111-0.433
			c0.28-0.288,0.423-0.647,0.423-1.094v-8.357c5.056-0.827,9.181-3.002,12.344-6.512c3.168-3.523,4.75-7.717,4.75-12.582
			c0-0.508-0.153-0.948-0.196-1.44C72.138,61.504,72.089,60.447,71.807,59.5z"/>
	</g>
</g>
<g id="Capa_2_copia">
	<g>
		<path opacity="0.7" fill="#FFFFFF" d="M21.561,49.077c2.719,0,5.046-0.963,6.97-2.89c1.928-1.924,2.891-4.249,2.891-6.972
			s-0.963-5.048-2.891-6.973c-1.927-1.925-4.25-2.89-6.97-2.89c-2.723,0-5.05,0.965-6.973,2.89c-1.926,1.925-2.889,4.25-2.889,6.973
			s0.963,5.048,2.889,6.972C16.513,48.114,18.838,49.077,21.561,49.077z"/>
		<path opacity="0.7" fill="#FFFFFF" d="M21.233,64.984c0.093-1.332,0.278-2.766,0.547-4.258c0.275-1.527,0.628-2.967,1.048-4.28
			c0.434-1.354,1.023-2.695,1.755-3.986c0.243-0.426,0.504-0.827,0.773-1.217c-0.125,0.043-0.241,0.088-0.371,0.129
			c-1.136,0.366-2.28,0.555-3.428,0.555c-1.146,0-2.29-0.188-3.427-0.555c-1.14-0.367-2.063-0.777-2.774-1.233
			c-0.711-0.453-1.348-0.861-1.913-1.231c-0.564-0.369-0.926-0.551-1.079-0.551c-1.044,0-1.998,0.17-2.862,0.513
			c-0.865,0.341-1.6,0.8-2.196,1.373c-0.599,0.575-1.13,1.269-1.594,2.08c-0.46,0.814-0.829,1.648-1.102,2.504
			c-0.274,0.855-0.501,1.785-0.682,2.787c-0.18,1.001-0.3,1.935-0.36,2.798c-0.059,0.865-0.089,1.752-0.089,2.66
			c0,2.053,0.625,3.675,1.874,4.867c1.25,1.188,2.912,1.783,4.984,1.783H21.13c-0.012-0.248-0.031-0.49-0.031-0.745
			C21.099,67.623,21.144,66.281,21.233,64.984z"/>
		<path opacity="0.7" fill="#FFFFFF" d="M79.276,49.076c2.719,0,5.045-0.962,6.97-2.889c1.928-1.924,2.891-4.249,2.891-6.972
			s-0.963-5.048-2.891-6.973c-1.927-1.925-4.251-2.89-6.97-2.89c-2.723,0-5.05,0.965-6.973,2.89c-1.927,1.925-2.89,4.25-2.89,6.973
			s0.963,5.048,2.89,6.972C74.229,48.114,76.554,49.076,79.276,49.076z"/>
		<path opacity="0.7" fill="#FFFFFF" d="M97.264,60.411c-0.058-0.863-0.179-1.797-0.359-2.798c-0.181-1.002-0.404-1.932-0.68-2.787
			c-0.274-0.855-0.641-1.689-1.104-2.504c-0.464-0.812-0.992-1.506-1.594-2.08c-0.599-0.573-1.33-1.031-2.194-1.373
			c-0.865-0.343-1.821-0.513-2.864-0.513c-0.155,0-0.512,0.182-1.076,0.551c-0.569,0.37-1.204,0.778-1.914,1.232
			c-0.712,0.455-1.639,0.865-2.776,1.232c-1.136,0.366-2.28,0.555-3.428,0.555c-1.146,0-2.29-0.188-3.427-0.555
			c-0.438-0.142-0.835-0.291-1.21-0.444c0.351,0.482,0.688,0.989,0.998,1.533c0.726,1.274,1.315,2.614,1.755,3.98
			c0.415,1.285,0.768,2.728,1.049,4.285c0.274,1.527,0.458,2.963,0.544,4.26c0.092,1.314,0.138,2.657,0.138,3.99
			c0,0.255-0.019,0.497-0.03,0.745h11.408c2.069,0,3.732-0.596,4.982-1.783c1.251-1.192,1.874-2.814,1.874-4.867
			C97.354,62.163,97.323,61.276,97.264,60.411z"/>
		<path fill="#FFFFFF" d="M50.111,49.999c3.948,0,7.324-1.397,10.118-4.195c2.798-2.792,4.196-6.168,4.196-10.119
			s-1.398-7.328-4.196-10.123c-2.798-2.793-6.17-4.193-10.118-4.193c-3.951,0-7.329,1.4-10.122,4.193
			c-2.796,2.795-4.194,6.172-4.194,10.123s1.397,7.327,4.194,10.119C42.784,48.602,46.16,49.999,50.111,49.999z"/>
		<path fill="#FFFFFF" d="M76.355,68.977c0-1.317-0.046-2.605-0.133-3.862c-0.084-1.253-0.26-2.61-0.521-4.061
			c-0.262-1.454-0.588-2.806-0.988-4.046c-0.398-1.24-0.931-2.454-1.603-3.635c-0.672-1.18-1.438-2.186-2.312-3.021
			c-0.869-0.833-1.932-1.497-3.186-1.992c-1.257-0.499-2.644-0.745-4.158-0.745c-0.225,0-0.743,0.265-1.563,0.799
			c-0.825,0.537-1.746,1.131-2.777,1.789c-1.034,0.66-2.379,1.257-4.031,1.79c-1.648,0.532-3.31,0.805-4.975,0.805
			c-1.664,0-3.323-0.272-4.976-0.805c-1.655-0.533-2.994-1.13-4.027-1.79c-1.032-0.658-1.958-1.252-2.776-1.789
			c-0.82-0.534-1.343-0.799-1.566-0.799c-1.516,0-2.9,0.246-4.157,0.745c-1.254,0.495-2.321,1.159-3.188,1.992
			c-0.87,0.835-1.641,1.841-2.313,3.021c-0.669,1.181-1.204,2.395-1.601,3.635c-0.397,1.24-0.727,2.592-0.989,4.046
			c-0.262,1.45-0.435,2.808-0.523,4.061c-0.086,1.257-0.129,2.545-0.129,3.862c0,2.979,0.906,5.335,2.721,7.066
			c1.814,1.722,4.226,2.588,7.233,2.588h32.584c3.005,0,5.418-0.866,7.231-2.588C75.451,74.312,76.355,71.955,76.355,68.977z"/>
		<path opacity="0.7" fill="#FFFFFF" d="M66.402,78.631H33.818c-3.008,0-5.419-0.866-7.233-2.588
			c-1.814-1.731-2.721-4.088-2.721-7.066c0-1.317,0.043-2.605,0.129-3.862c0.088-1.253,0.261-2.61,0.523-4.061
			c0.262-1.454,0.592-2.806,0.989-4.046c0.396-1.24,0.931-2.454,1.601-3.635c0.672-1.18,1.443-2.186,2.313-3.021
			c0.867-0.833,1.933-1.497,3.188-1.992c1.256-0.499,2.641-0.745,4.157-0.745c0.223,0,0.746,0.265,1.566,0.799
			c0.819,0.537,1.744,1.131,2.776,1.789c1.033,0.66,2.372,1.257,4.027,1.79c1.652,0.532,3.312,0.805,4.976,0.805
			c1.665,0,3.326-0.272,4.975-0.805c1.652-0.533,2.997-1.13,4.031-1.79c1.031-0.658,1.952-1.252,2.777-1.789
			c0.82-0.534,1.339-0.799,1.563-0.799c1.515,0,2.901,0.246,4.158,0.745c1.254,0.495,2.316,1.159,3.186,1.992
			c0.874,0.835,1.641,1.841,2.312,3.021c0.672,1.181,1.204,2.395,1.603,3.635c0.4,1.24,0.727,2.592,0.988,4.046
			c0.261,1.45,0.437,2.808,0.521,4.061c0.087,1.257,0.133,2.545,0.133,3.862c0,2.979-0.904,5.335-2.722,7.066
			C71.82,77.765,69.407,78.631,66.402,78.631z"/>
	</g>
</g>
<g id="Capa_2_copia_2" display="none">
	<g display="inline">
		<path opacity="0.7" fill="#FFFFFF" d="M37.314,53.629c-0.249-0.161-0.422-0.255-0.7-0.438c-0.654-0.439-1.143-0.855-1.804-1.416
			c-0.312-0.234-0.61-0.478-0.833-0.7c-0.611-0.611-1.261-1.332-1.95-2.187c-0.821-1.028-1.47-2.099-1.915-3.154
			c-0.271-0.633-0.488-1.366-0.76-2.338c-0.1-0.283-0.194-0.572-0.267-0.882c-0.199-0.844-0.233-1.76-0.293-2.666
			c-0.523-0.21-1.189-0.466-2.083-0.805c-0.889-0.339-1.549-0.6-1.982-0.783c-0.438-0.178-1.016-0.433-1.727-0.766
			c-0.711-0.334-1.239-0.622-1.588-0.877c-0.349-0.256-0.721-0.572-1.122-0.938c-0.4-0.372-0.677-0.767-0.838-1.183
			c-0.162-0.411-0.239-0.872-0.239-1.366c0-1.288,0.566-2.331,1.705-3.153c1.133-0.811,2.599-1.222,4.398-1.222
			c0.799,0,1.61,0.111,2.432,0.333c0.827,0.217,1.532,0.456,2.115,0.733c0.338,0.167,0.644,0.35,0.96,0.527
			c0.728-1.31,1.572-2.576,2.671-3.736c0.51-0.544,1.138-0.933,1.698-1.417c-0.05-0.033-0.05-0.039-0.1-0.072
			c-0.566-0.4-1.171-0.755-1.799-1.066c-0.633-0.311-1.465-0.633-2.477-0.955c-1.01-0.322-2.059-0.534-3.137-0.656v-4.997
			c0-0.266-0.083-0.483-0.256-0.655c-0.171-0.169-0.388-0.255-0.66-0.255h-3.832c-0.25,0-0.46,0.092-0.644,0.269
			c-0.178,0.184-0.266,0.394-0.266,0.642v5.119c-2.977,0.561-5.392,1.833-7.246,3.798c-1.86,1.977-2.782,4.264-2.782,6.88
			c0,0.776,0.079,1.515,0.238,2.215c0.156,0.7,0.362,1.333,0.601,1.888c0.233,0.561,0.571,1.11,1.004,1.649
			c0.432,0.544,0.849,1.005,1.238,1.394c0.389,0.388,0.895,0.794,1.516,1.21c0.627,0.411,1.165,0.755,1.604,1.011
			c0.449,0.256,1.038,0.544,1.777,0.877c0.745,0.333,1.321,0.583,1.749,0.755c0.433,0.166,1.012,0.405,1.75,0.71
			c1.027,0.395,1.782,0.705,2.276,0.922c0.489,0.216,1.116,0.521,1.871,0.911c0.754,0.382,1.315,0.743,1.666,1.065
			c0.351,0.323,0.666,0.723,0.955,1.188c0.283,0.478,0.422,0.978,0.422,1.51c0,1.494-0.577,2.654-1.743,3.465
			c-1.166,0.811-2.516,1.221-4.053,1.221c-0.701,0-1.399-0.077-2.099-0.227c-2.466-0.494-4.764-1.677-6.908-3.548l-0.055-0.057
			c-0.171-0.21-0.398-0.299-0.683-0.26c-0.304,0.038-0.517,0.149-0.655,0.344l-2.926,3.836c-0.284,0.379-0.268,0.767,0.055,1.166
			c0.094,0.111,0.261,0.278,0.5,0.506c0.234,0.229,0.677,0.583,1.316,1.072c0.649,0.478,1.349,0.932,2.104,1.365
			c0.76,0.422,1.721,0.844,2.887,1.261c1.166,0.416,2.371,0.705,3.625,0.882v4.97c0,0.245,0.089,0.462,0.261,0.639
			c0.19,0.178,0.4,0.271,0.644,0.271h3.832c0.272,0,0.489-0.083,0.66-0.261c0.173-0.166,0.256-0.383,0.256-0.649v-4.97
			c3.01-0.498,5.464-1.787,7.346-3.881C36.121,56.482,36.86,55.117,37.314,53.629z"/>
		<path opacity="0.7" fill="#FFFFFF" d="M87.828,47.538c-0.244-0.833-0.543-1.56-0.897-2.171c-0.345-0.616-0.846-1.221-1.5-1.81
			c-0.661-0.583-1.244-1.055-1.766-1.416c-0.516-0.361-1.233-0.761-2.144-1.205c-0.909-0.45-1.627-0.777-2.159-1
			c-0.533-0.216-1.295-0.51-2.305-0.894c-0.888-0.339-1.549-0.6-1.983-0.783c-0.438-0.178-1.015-0.433-1.727-0.766
			c-0.71-0.334-1.236-0.622-1.587-0.877c-0.35-0.256-0.722-0.572-1.122-0.938c-0.399-0.372-0.677-0.767-0.838-1.183
			c-0.16-0.411-0.238-0.872-0.238-1.366c0-0.411,0.145-0.766,0.277-1.131l0.41-0.906c0.273-0.4,0.566-0.788,1.017-1.116
			c1.133-0.811,2.6-1.222,4.398-1.222c0.798,0,1.608,0.111,2.431,0.333c0.828,0.217,1.532,0.456,2.116,0.733
			c0.588,0.278,1.142,0.583,1.664,0.911c0.522,0.333,0.891,0.589,1.106,0.755c0.216,0.167,0.36,0.284,0.411,0.344
			c0.255,0.189,0.505,0.256,0.771,0.201c0.284-0.022,0.5-0.178,0.656-0.456l2.298-4.153c0.227-0.378,0.178-0.738-0.139-1.078
			c-0.115-0.116-0.255-0.249-0.429-0.399c-0.17-0.15-0.537-0.428-1.109-0.822c-0.566-0.4-1.171-0.755-1.799-1.066
			c-0.632-0.311-1.466-0.633-2.477-0.955c-1.01-0.322-2.061-0.534-3.137-0.656v-4.997c0-0.266-0.083-0.483-0.255-0.655
			c-0.173-0.169-0.39-0.255-0.661-0.255h-3.832c-0.248,0-0.46,0.092-0.644,0.269c-0.178,0.184-0.266,0.394-0.266,0.642v5.119
			c-2.182,0.411-3.958,1.333-5.542,2.51l-0.521,0.633c0,0,4.414,2.721,2.726,6.334l-3.081,6.847
			c-0.295,0.371-0.577,0.755-0.927,1.055c0.133,0.139,0.272,0.322,0.398,0.444c0.39,0.388,0.895,0.794,1.517,1.21
			c0.628,0.411,1.166,0.755,1.605,1.011c0.448,0.256,1.037,0.544,1.776,0.877c0.743,0.333,1.321,0.583,1.749,0.755
			c0.433,0.166,1.01,0.405,1.748,0.71c1.027,0.395,1.782,0.705,2.277,0.922c0.487,0.216,1.116,0.521,1.87,0.911
			c0.755,0.382,1.315,0.743,1.666,1.065c0.349,0.323,0.666,0.723,0.955,1.188c0.284,0.478,0.423,0.978,0.423,1.51
			c0,1.494-0.577,2.654-1.743,3.465c-1.166,0.811-2.516,1.221-4.055,1.221c-0.699,0-1.399-0.077-2.1-0.227
			c-1.198-0.239-2.353-0.661-3.474-1.222c0.372,0.794,0.454,1.571,0.733,2.515c0.314,1.056,0.397,2.066,0.466,2.888l0.039,0.388
			c0.094,0.479,0.16,0.95,0.16,1.467c0,0.101-0.021,0.188-0.021,0.288c0.354,0.067,0.993,0.189,1.359,0.244v4.97
			c0,0.245,0.089,0.462,0.261,0.639c0.189,0.178,0.4,0.271,0.644,0.271h3.832c0.271,0,0.488-0.083,0.661-0.261
			c0.172-0.166,0.255-0.383,0.255-0.649v-4.97c3.009-0.498,5.463-1.787,7.346-3.881c1.882-2.093,2.825-4.591,2.825-7.489
			C88.2,49.264,88.079,48.376,87.828,47.538z"/>
		<path fill="#FFFFFF" d="M66.598,57.499c-0.327-1.1-0.722-2.061-1.188-2.87c-0.362-0.639-0.951-1.255-1.562-1.871
			c-0.166-0.173-0.238-0.351-0.427-0.518c-0.866-0.776-1.639-1.398-2.327-1.876c-0.687-0.472-1.632-1.005-2.837-1.594
			c-1.198-0.589-2.149-1.027-2.854-1.315c-0.698-0.289-1.709-0.678-3.042-1.178c-1.171-0.455-2.049-0.799-2.621-1.033
			c-0.577-0.244-1.338-0.577-2.277-1.016c-0.938-0.438-1.638-0.827-2.104-1.166c-0.46-0.338-0.949-0.749-1.477-1.238
			s-0.899-1.011-1.111-1.554c-0.21-0.556-0.316-1.155-0.316-1.805c0-1.705,0.749-3.093,2.253-4.17
			c1.494-1.076,3.438-1.61,5.813-1.61c1.056,0,2.127,0.145,3.21,0.433c1.093,0.289,2.026,0.611,2.799,0.978
			c0.776,0.361,1.509,0.761,2.197,1.2c0.689,0.432,1.178,0.766,1.46,0.994c0.289,0.227,0.479,0.372,0.545,0.449
			c0.255,0.188,0.511,0.289,0.777,0.289c0.077,0,0.16-0.012,0.239-0.022c0.377-0.028,0.666-0.228,0.865-0.599l0.166-0.306
			l2.876-5.18c0.302-0.5,0.232-0.977-0.188-1.427c-0.149-0.149-0.338-0.328-0.564-0.527c-0.185-0.161-0.585-0.456-1.117-0.832
			c-0.122-0.089-0.205-0.157-0.351-0.256c-0.749-0.521-1.543-0.994-2.376-1.41c-0.838-0.411-1.931-0.833-3.27-1.255
			c-1.339-0.422-2.721-0.711-4.148-0.866v-6.604c0-0.353-0.111-0.639-0.339-0.863c-0.222-0.226-0.51-0.339-0.865-0.339h-5.064
			c-0.332,0-0.61,0.12-0.849,0.355c-0.238,0.242-0.356,0.522-0.356,0.847v6.759c-3.93,0.744-7.122,2.421-9.572,5.031
			c-2.458,2.598-3.681,5.63-3.681,9.083c0,1.027,0.105,2,0.323,2.932c0.061,0.267,0.155,0.466,0.227,0.711
			c0.173,0.622,0.333,1.255,0.561,1.783c0.31,0.738,0.755,1.46,1.326,2.176c0.578,0.716,1.122,1.327,1.638,1.843
			c0.162,0.162,0.439,0.339,0.634,0.506c0.416,0.355,0.81,0.71,1.371,1.088c0.827,0.551,1.537,0.999,2.121,1.333
			c0.595,0.339,1.371,0.727,2.349,1.166c0.977,0.434,1.742,0.767,2.31,0.994c0.566,0.222,1.333,0.539,2.309,0.938
			c1.355,0.522,2.354,0.933,3.01,1.221c0.645,0.29,1.472,0.69,2.471,1.2c0.999,0.511,1.738,0.982,2.198,1.41
			c0.461,0.422,0.884,0.949,1.261,1.576c0.377,0.623,0.561,1.289,0.561,1.988c0,1.977-0.766,3.504-2.304,4.575
			c-1.544,1.077-3.326,1.621-5.358,1.621c-0.921,0-1.85-0.101-2.771-0.3c-3.259-0.654-6.296-2.221-9.127-4.697l-0.073-0.071
			c-0.194-0.234-0.433-0.351-0.728-0.351c-0.055,0-0.11,0-0.171,0.012c-0.406,0.05-0.689,0.2-0.871,0.455l-3.866,5.063
			c-0.371,0.5-0.351,1.01,0.072,1.543c0.128,0.146,0.35,0.367,0.66,0.667c0.312,0.306,0.895,0.777,1.743,1.409
			c0.855,0.646,1.778,1.244,2.782,1.812c1.005,0.56,2.271,1.116,3.815,1.664c1.537,0.55,3.131,0.934,4.786,1.166v6.568
			c0,0.328,0.116,0.606,0.35,0.85c0.245,0.233,0.522,0.355,0.849,0.355h5.064c0.355,0,0.644-0.115,0.871-0.345
			c0.222-0.221,0.333-0.51,0.333-0.86v-6.568c3.976-0.655,7.218-2.364,9.706-5.125c2.492-2.77,3.736-6.067,3.736-9.894
			c0-0.399-0.123-0.743-0.154-1.127C66.858,59.081,66.82,58.248,66.598,57.499z"/>
	</g>
</g>
</svg>
