<?xml version="1.0" encoding="utf-8"?>
<!-- Generator: Adobe Illustrator 16.0.0, SVG Export Plug-In . SVG Version: 6.00 Build 0)  -->
<!DOCTYPE svg PUBLIC "-//W3C//DTD SVG 1.1//EN" "http://www.w3.org/Graphics/SVG/1.1/DTD/svg11.dtd">
<svg version="1.1" id="Capa_1" xmlns="http://www.w3.org/2000/svg" xmlns:xlink="http://www.w3.org/1999/xlink" x="0px" y="0px"
	 width="328px" height="65.159px" viewBox="0 0 328 65.159" enable-background="new 0 0 328 65.159" xml:space="preserve">
<g>
	<path fill="#FFFFFF" d="M104.959,21.986c1.423,0,2.649,0.208,3.675,0.622c1.028,0.414,1.872,0.994,2.534,1.738
		c0.661,0.746,1.159,1.632,1.49,2.656c0.331,1.028,0.497,2.138,0.497,3.33c0,1.391-0.166,2.766-0.497,4.123l-3.377,14.107h-7.401
		l3.279-13.809c0.131-0.563,0.255-1.159,0.372-1.789c0.115-0.628,0.175-1.224,0.175-1.787c0-0.862-0.224-1.598-0.671-2.211
		c-0.448-0.611-1.301-0.919-2.559-0.919c-0.529,0-1.035,0.033-1.515,0.1c-0.48,0.067-0.953,0.149-1.415,0.248l-4.818,20.167h-7.402
		l8.941-37.354l7.7-1.192l-3.031,12.468c0.663-0.132,1.333-0.248,2.013-0.348C103.626,22.035,104.296,21.986,104.959,21.986"/>
	<path fill="#FFFFFF" d="M139.877,37.286c-0.463,1.886-0.596,3.783-0.397,5.688c0.199,1.904,0.58,3.601,1.143,5.09l-6.606,0.944
		c-0.199-0.396-0.381-0.776-0.547-1.142c-0.166-0.365-0.331-0.777-0.497-1.241c-0.927,0.761-1.955,1.391-3.08,1.887
		c-1.126,0.496-2.383,0.744-3.774,0.744c-1.656,0-3.072-0.29-4.247-0.869c-1.176-0.578-2.137-1.357-2.882-2.333
		c-0.745-0.978-1.283-2.119-1.613-3.428c-0.332-1.308-0.497-2.708-0.497-4.197c0-2.286,0.404-4.437,1.216-6.458
		c0.812-2.019,1.938-3.782,3.378-5.288c1.44-1.507,3.137-2.691,5.091-3.552c1.954-0.862,4.074-1.292,6.357-1.292
		c0.299,0,0.821,0.017,1.566,0.049c0.745,0.034,1.597,0.108,2.558,0.224c0.96,0.117,1.971,0.306,3.031,0.572
		c1.059,0.267,2.069,0.629,3.029,1.092L139.877,37.286z M134.711,28.146c-0.431-0.066-0.819-0.116-1.167-0.149
		c-0.348-0.033-0.771-0.05-1.268-0.05c-1.125,0-2.177,0.282-3.154,0.845c-0.978,0.563-1.83,1.301-2.559,2.21
		c-0.728,0.912-1.3,1.962-1.713,3.154c-0.414,1.193-0.621,2.434-0.621,3.726c0,1.59,0.265,2.849,0.795,3.776
		c0.529,0.926,1.507,1.39,2.931,1.39c0.761,0,1.449-0.148,2.061-0.446c0.612-0.299,1.267-0.794,1.963-1.492
		c0.065-0.826,0.173-1.694,0.322-2.607c0.149-0.91,0.306-1.746,0.472-2.509L134.711,28.146z"/>
	<path fill="#FFFFFF" d="M164.563,28.792c-0.662-0.166-1.315-0.324-1.962-0.473c-0.645-0.149-1.598-0.223-2.855-0.223
		c-0.464,0-0.978,0.042-1.54,0.123c-0.563,0.083-1.027,0.174-1.391,0.274l-4.818,20.067h-7.401l5.96-24.736
		c1.424-0.464,3.022-0.902,4.794-1.316c1.771-0.415,3.766-0.622,5.985-0.622c0.828,0,1.746,0.074,2.757,0.223
		c1.01,0.149,1.896,0.391,2.657,0.722L164.563,28.792z"/>
	<path fill="#FFFFFF" d="M173.206,48.561c-0.861-3.31-1.64-7.178-2.334-11.598c-0.695-4.422-1.176-9.264-1.441-14.53h7.649
		c0.034,1.291,0.083,2.708,0.15,4.248c0.065,1.539,0.148,3.087,0.247,4.643c0.1,1.559,0.216,3.072,0.349,4.546
		c0.132,1.474,0.282,2.806,0.447,3.998c0.727-0.993,1.548-2.218,2.458-3.676c0.91-1.456,1.796-2.981,2.658-4.57
		s1.655-3.185,2.385-4.792c0.728-1.606,1.292-3.072,1.688-4.397h7.849c-0.86,2.353-1.93,4.768-3.204,7.252
		c-1.275,2.485-2.642,4.885-4.098,7.203c-1.457,2.317-2.938,4.487-4.445,6.508c-1.507,2.019-2.906,3.742-4.198,5.165H173.206z"/>
	<path fill="#FFFFFF" d="M195.31,38.328c0-2.119,0.373-4.173,1.119-6.159c0.743-1.987,1.795-3.75,3.152-5.29
		c1.357-1.541,3.005-2.782,4.943-3.725c1.938-0.944,4.08-1.417,6.433-1.417c1.159,0,2.235,0.166,3.229,0.497
		c0.993,0.331,1.862,0.813,2.608,1.44c0.745,0.629,1.324,1.399,1.739,2.31c0.413,0.912,0.62,1.946,0.62,3.104
		c0,1.855-0.415,3.428-1.241,4.719c-0.828,1.292-1.979,2.343-3.452,3.154c-1.475,0.812-3.221,1.4-5.241,1.764
		c-2.021,0.364-4.223,0.544-6.607,0.544c0.232,1.392,0.738,2.377,1.515,2.958c0.779,0.579,2.013,0.868,3.701,0.868
		c1.059,0,2.137-0.091,3.229-0.273c1.093-0.182,2.119-0.455,3.08-0.819l0.546,5.812c-0.926,0.364-2.111,0.694-3.551,0.993
		c-1.44,0.299-3.005,0.447-4.694,0.447c-2.053,0-3.783-0.291-5.191-0.869c-1.407-0.579-2.549-1.367-3.427-2.359
		c-0.877-0.994-1.515-2.154-1.912-3.479C195.507,41.226,195.31,39.819,195.31,38.328 M209.764,27.599
		c-1.689,0-3.172,0.605-4.446,1.813c-1.275,1.208-2.111,2.806-2.508,4.793c2.053-0.065,3.709-0.24,4.966-0.522
		c1.26-0.281,2.236-0.622,2.931-1.017c0.696-0.398,1.16-0.829,1.392-1.293c0.232-0.461,0.347-0.925,0.347-1.39
		C212.446,28.393,211.553,27.599,209.764,27.599"/>
	<path fill="#FFFFFF" d="M228.641,43.295c1.688,0,2.847-0.24,3.477-0.72c0.628-0.479,0.943-1,0.943-1.564
		c0-0.365-0.058-0.678-0.174-0.944c-0.115-0.265-0.305-0.513-0.571-0.746c-0.265-0.23-0.628-0.471-1.092-0.72
		c-0.465-0.248-1.06-0.536-1.789-0.869c-0.827-0.364-1.605-0.752-2.333-1.167c-0.728-0.414-1.366-0.911-1.913-1.49
		c-0.547-0.579-0.977-1.243-1.292-1.987c-0.315-0.745-0.473-1.632-0.473-2.658c0-2.683,0.986-4.801,2.957-6.358
		c1.968-1.556,4.843-2.334,8.618-2.334c1.79,0,3.378,0.198,4.77,0.596c1.389,0.398,2.516,0.829,3.376,1.291l-2.533,5.514
		c-0.695-0.364-1.59-0.711-2.683-1.043c-1.092-0.33-2.169-0.497-3.228-0.497c-0.465,0-0.92,0.024-1.367,0.074
		c-0.448,0.05-0.86,0.158-1.242,0.323c-0.381,0.167-0.688,0.397-0.919,0.696c-0.232,0.297-0.348,0.694-0.348,1.192
		c0,0.664,0.257,1.158,0.77,1.489c0.513,0.332,1.233,0.731,2.161,1.193c1.292,0.629,2.367,1.21,3.229,1.738
		c0.86,0.531,1.546,1.093,2.061,1.688c0.514,0.597,0.886,1.276,1.119,2.038c0.231,0.761,0.346,1.657,0.346,2.682
		c0,1.06-0.223,2.103-0.67,3.129c-0.446,1.027-1.151,1.938-2.111,2.731c-0.961,0.795-2.186,1.442-3.677,1.938
		c-1.491,0.498-3.278,0.746-5.363,0.746c-1.293,0-2.459-0.083-3.503-0.248c-1.042-0.167-1.963-0.373-2.757-0.621
		c-0.794-0.25-1.465-0.505-2.011-0.771c-0.547-0.264-0.97-0.479-1.268-0.646l2.534-5.662c0.564,0.331,1.44,0.745,2.633,1.241
		C225.51,43.048,226.95,43.295,228.641,43.295"/>
	<path fill="#FFFFFF" d="M251.241,15.926l7.698-1.193l-1.887,7.701h6.315l-1.49,6.06h-6.265l-2.186,9.14
		c-0.199,0.762-0.323,1.474-0.372,2.135c-0.049,0.663,0.033,1.234,0.248,1.713c0.215,0.481,0.588,0.854,1.118,1.119
		c0.53,0.265,1.259,0.396,2.186,0.396c0.795,0,1.565-0.073,2.31-0.222s1.497-0.356,2.259-0.621l0.547,5.661
		c-0.993,0.365-2.07,0.679-3.228,0.944c-1.161,0.265-2.535,0.396-4.123,0.396c-2.287,0-4.057-0.338-5.315-1.017
		c-1.259-0.679-2.153-1.606-2.683-2.783c-0.529-1.175-0.761-2.522-0.696-4.047c0.067-1.523,0.299-3.129,0.696-4.818L251.241,15.926z
		"/>
	<path fill="#FFFFFF" d="M279.329,10.016c1.491,0,2.789,0.158,3.899,0.473c1.109,0.315,1.945,0.605,2.508,0.869l-2.484,5.812
		c-0.596-0.299-1.284-0.522-2.061-0.671c-0.779-0.149-1.5-0.224-2.161-0.224c-1.821,0-3.171,0.464-4.048,1.39
		c-0.879,0.928-1.483,2.085-1.814,3.477l-0.297,1.292h8.742l-1.49,6.06h-8.691l-3.03,12.667c-1.127,4.736-2.352,8.421-3.675,11.052
		c-1.326,2.633-2.782,4.545-4.372,5.736l-6.606-0.942c0.859-0.796,1.656-1.772,2.383-2.931c0.729-1.161,1.383-2.384,1.963-3.675
		c0.579-1.291,1.076-2.609,1.489-3.948c0.415-1.341,0.754-2.593,1.019-3.751l5.167-21.657c0.826-3.509,2.318-6.226,4.47-8.146
		C272.392,10.977,275.421,10.016,279.329,10.016"/>
	<path fill="#FFFFFF" d="M308.138,22.434l-3.525,14.851c-0.464,1.889-0.598,3.785-0.398,5.689c0.2,1.904,0.581,3.601,1.142,5.091
		l-6.605,0.945c-0.365-0.729-0.712-1.54-1.044-2.435c-0.927,0.728-1.971,1.341-3.128,1.838c-1.16,0.497-2.451,0.746-3.874,0.746
		c-1.955,0-3.537-0.357-4.745-1.068c-1.209-0.713-2.11-1.655-2.707-2.831c-0.597-1.176-0.92-2.524-0.97-4.048
		c-0.048-1.522,0.125-3.08,0.521-4.669l3.379-14.107h7.4l-3.328,14.008c-0.167,0.729-0.308,1.473-0.422,2.233
		c-0.118,0.764-0.125,1.467-0.026,2.112c0.1,0.647,0.356,1.176,0.77,1.588c0.415,0.416,1.069,0.623,1.963,0.623
		c0.761,0,1.465-0.141,2.11-0.423c0.645-0.281,1.333-0.771,2.062-1.465c0.065-0.829,0.172-1.698,0.322-2.607
		c0.149-0.912,0.306-1.747,0.473-2.508l3.228-13.562H308.138z"/>
	<path fill="#FFFFFF" d="M320.457,49.058c-2.352,0-4.198-0.308-5.539-0.919c-1.34-0.613-2.3-1.448-2.88-2.508
		c-0.579-1.06-0.861-2.276-0.844-3.651c0.016-1.374,0.206-2.838,0.572-4.396l6.308-26.376l7.698-1.193l-6.903,28.612
		c-0.134,0.597-0.208,1.142-0.224,1.64c-0.019,0.496,0.074,0.935,0.274,1.315c0.197,0.381,0.537,0.689,1.018,0.92
		c0.479,0.232,1.15,0.381,2.012,0.446L320.457,49.058z"/>
	<path fill="#FFFFFF" d="M32.165,28.039c-3.021,8.469-8.714,17.271-15.973,22.657c-2.383,1.77-5.543,4.04-8.257,1.8
		c-2.218-1.828-3.139-5.361-3.851-8.009c-1.242-4.623-1.865-9.544-1.854-14.319C2.24,24.49,3.637,5.574,13.191,9.708
		C20.911,13.051,27.294,21.413,32.165,28.039"/>
	<path fill="#FFFFFF" d="M33.477,33.662c-0.324,1.097,10.401,20.071,18.553,26.122c2.677,1.986,6.225,4.536,9.273,2.021
		c2.491-2.054,5.078-12.294,5.517-15.343c1.407-9.8,1.33-11.852,1.33-17.215c0-7.955-0.376-31.942-11.105-27.297
		C48.374,5.702,36.844,22.234,33.477,33.662"/>
</g>
</svg>
