<?xml version="1.0" encoding="utf-8"?>
<!-- Generator: Adobe Illustrator 16.0.0, SVG Export Plug-In . SVG Version: 6.00 Build 0)  -->
<!DOCTYPE svg PUBLIC "-//W3C//DTD SVG 1.1//EN" "http://www.w3.org/Graphics/SVG/1.1/DTD/svg11.dtd">
<svg version="1.1" id="Layer_1" xmlns="http://www.w3.org/2000/svg" xmlns:xlink="http://www.w3.org/1999/xlink" x="0px" y="0px"
	 width="215.992px" height="33px" viewBox="0 0 215.992 33" enable-background="new 0 0 215.992 33" xml:space="preserve">
<g>
	<g>
		<g>
			<path fill="#FFFFFF" d="M20.396,22.316c-0.081,0.22-0.081,0.22-0.112,0.369c-0.017-0.133-0.021-0.139-0.091-0.22
				c0.184-0.332,0.056-0.769-0.078-0.753c-0.127,0.015-0.156,0.279-0.173,0.438c-0.03-0.091-0.102-0.307-0.257-0.25
				c-0.206,0.114-0.342,0.591-0.026,0.802c-0.113,0.149-0.113,0.149-0.2,0.322c-0.079-0.137-0.079-0.137-0.217-0.2
				c0.388-0.32,0.191-0.739-0.015-0.763c-0.273-0.033-0.465,0.42-0.286,0.673c0.062,0.087,0.146,0.105,0.208,0.119
				c-0.174,0.107-0.243,0.199-0.309,0.415c-0.154-0.519-0.572-0.184-0.657-0.041c-0.168,0.282,0.023,0.572,0.319,0.487
				c0.213-0.063,0.289-0.262,0.331-0.367c0.019,0.168,0.059,0.232,0.183,0.282c-0.133,0.088-0.195,0.155-0.281,0.305
				c-0.13-0.381-0.549-0.111-0.653,0.061c-0.15,0.246-0.004,0.464,0.264,0.398c0.171-0.042,0.274-0.178,0.343-0.271
				c0.011,0.112,0.037,0.154,0.119,0.19c-0.144,0.113-0.144,0.113-0.271,0.25c-0.123-0.351-0.557-0.027-0.638,0.121
				c-0.106,0.191,0.02,0.331,0.241,0.268c0.171-0.051,0.277-0.174,0.329-0.232c-0.01,0.107,0.009,0.143,0.09,0.167
				c-0.382,0.206-0.449,0.42-0.356,0.442c0.008,0.002,0.019,0.002,0.026,0.003c-0.102,0.047-0.362,0.169-0.438,0.29
				c-0.006,0.009,0,0.021,0.013,0.023c0.123,0.006,0.455-0.181,0.528-0.287c0.004-0.006,0.005-0.015,0.002-0.021
				c-0.004-0.009-0.012-0.016-0.022-0.019c-0.003-0.001-0.008-0.003-0.01-0.003c0.115-0.047,0.193-0.097,0.322-0.201
				c-0.025,0.039-0.035,0.054-0.04,0.069c-0.006,0.017-0.003,0.035,0.007,0.05c-0.128,0.077-0.386,0.23-0.477,0.317
				c-0.005,0.006-0.001,0.016,0.006,0.014c0.008-0.002,0.016-0.004,0.024-0.006c0.11-0.051,0.219-0.107,0.323-0.169
				c0.13-0.091,0.29-0.219,0.497-0.384c-0.056,0.063-0.096,0.11-0.162,0.164c0.433-0.316,0.799-0.719,1.071-1.182
				c0.005-0.02,0.008-0.039,0.012-0.061c0.046-0.066,0.083-0.123,0.123-0.188c0.083-0.167,0.154-0.342,0.213-0.522
				c-0.025,0.051-0.048,0.099-0.068,0.145c-0.003-0.054-0.008-0.097-0.019-0.152c0.057-0.11,0.067-0.131,0.116-0.279
				c-0.001,0.074,0.001,0.124,0.013,0.152c0.08-0.281,0.131-0.576,0.146-0.879c0.012-0.227,0.003-0.449-0.022-0.668
				c-0.01-0.007-0.019-0.009-0.026-0.011C20.259,21.607,20.253,22.24,20.396,22.316z M18.953,24.801
				c-0.085,0.061-0.159,0.129-0.221,0.188c0.039-0.079,0.034-0.117-0.019-0.132c0.085-0.062,0.153-0.113,0.232-0.175
				c0.012,0.04,0.018,0.071,0.022,0.108C18.963,24.795,18.958,24.798,18.953,24.801z M19.042,24.263
				c0.066-0.061,0.121-0.113,0.188-0.18c0.019,0.041,0.032,0.075,0.046,0.117c-0.003,0.002-0.006,0.006-0.01,0.01
				c-0.071,0.078-0.129,0.137-0.153,0.161C19.093,24.335,19.072,24.303,19.042,24.263z M19.337,24.639
				c-0.003,0.004-0.009,0.009-0.012,0.013c-0.089,0.084-0.16,0.146-0.191,0.174c0.035-0.063,0.035-0.065,0.034-0.107
				c0.066-0.057,0.12-0.105,0.182-0.164C19.348,24.584,19.344,24.608,19.337,24.639z M19.505,23.503
				c-0.064,0.075-0.064,0.075-0.163,0.211c-0.045-0.08-0.045-0.08-0.129-0.134c0.099-0.075,0.159-0.151,0.207-0.267
				c0.037,0.064,0.063,0.116,0.094,0.18C19.511,23.495,19.507,23.499,19.505,23.503z M19.682,24.05
				c-0.054,0.065-0.096,0.113-0.114,0.135c0-0.03-0.003-0.055-0.006-0.085c0.042-0.048,0.076-0.089,0.116-0.14
				c0.006,0.029,0.009,0.054,0.011,0.083C19.686,24.045,19.684,24.048,19.682,24.05z M19.95,23.329
				c-0.055,0.09-0.099,0.151-0.118,0.179c-0.018-0.038-0.035-0.07-0.058-0.111c0.049-0.079,0.086-0.146,0.131-0.228
				c0.021,0.053,0.036,0.098,0.051,0.149C19.955,23.321,19.952,23.326,19.95,23.329z M20.086,22.538
				c-0.062,0.112-0.062,0.112-0.143,0.306c-0.024-0.115-0.065-0.166-0.147-0.183c0.098-0.109,0.142-0.219,0.156-0.391
				c0.038,0.158,0.076,0.226,0.144,0.249C20.093,22.525,20.089,22.532,20.086,22.538z"/>
		</g>
		<g>
			<path fill="#FFFFFF" d="M17.714,25.175c-0.11,0.124-0.096,0.248,0.087,0.228c0,0,0.001,0,0.001,0l0,0h0h0h0h0
				c0.175-0.032,0.327-0.15,0.388-0.222c0.079-0.096,0.097-0.225-0.116-0.202c0,0.001,0,0.001,0,0.001l0,0c0,0,0,0,0,0h0
				C17.865,25.017,17.738,25.149,17.714,25.175z"/>
		</g>
		<g>
			<path fill="#FFFFFF" d="M17.679,23.853c-0.329,0.04-0.454,0.314-0.376,0.475c0.122,0.244,0.578,0.143,0.678-0.148
				C18.046,23.991,17.902,23.836,17.679,23.853z"/>
		</g>
		<g>
			<path fill="#FFFFFF" d="M18.486,22.205L18.486,22.205L18.486,22.205c-0.045,0.01-0.148,0.03-0.238,0.143
				c-0.194,0.243-0.074,0.632,0.264,0.602c0,0,0,0,0,0c0.001,0,0.001,0,0.001,0c0,0,0,0,0,0s0,0,0.001-0.001h0.001h0
				c0.237-0.052,0.312-0.266,0.317-0.386C18.842,22.412,18.754,22.181,18.486,22.205z"/>
		</g>
		<g>
			<path fill="#FFFFFF" d="M19.505,21.152c-0.219,0.099-0.16,0.569,0.036,0.691c0.171,0.109,0.323-0.102,0.271-0.376
				C19.781,21.311,19.667,21.109,19.505,21.152z"/>
		</g>
		<g>
			<path fill="#FFFFFF" d="M17.831,24.771c0.06-0.131-0.019-0.271-0.251-0.263c-0.273,0.024-0.449,0.255-0.376,0.404
				C17.298,25.11,17.721,25.015,17.831,24.771z"/>
		</g>
		<g>
			<path fill="#FFFFFF" d="M19.884,20.985c-0.015,0.01-0.039,0.027-0.056,0.079c-0.07,0.204,0.065,0.704,0.252,0.621l0,0h0
				c0-0.001,0-0.001,0-0.001c0.107-0.078,0.085-0.302,0.06-0.408C20.102,21.126,19.999,20.936,19.884,20.985z"/>
		</g>
		<g>
			<path fill="#FFFFFF" d="M17.787,25.423L17.787,25.423c-0.177,0.031-0.329,0.135-0.38,0.2c-0.014,0.018-0.078,0.104,0.067,0.087h0
				h0c0,0,0,0,0,0s0,0,0,0c0.131-0.022,0.271-0.092,0.346-0.149c0.035-0.025,0.053-0.046,0.063-0.059
				C17.897,25.485,17.951,25.402,17.787,25.423z"/>
		</g>
		<g>
			<path fill="#FFFFFF" d="M18.099,25.58c-0.11,0.041-0.218,0.088-0.328,0.131c0.117-0.04,0.23-0.084,0.342-0.135
				C18.11,25.577,18.106,25.578,18.099,25.58L18.099,25.58z"/>
		</g>
		<g>
			<path fill="#FFFFFF" d="M19.001,21.303L19.001,21.303C19.001,21.304,19.001,21.304,19.001,21.303L19.001,21.303
				c-0.27,0.082-0.263,0.514-0.049,0.667c0.205,0.148,0.434-0.057,0.389-0.349C19.318,21.471,19.197,21.271,19.001,21.303z"/>
		</g>
		<g>
			<path fill="#FFFFFF" d="M17.727,23.103C17.727,23.103,17.727,23.103,17.727,23.103c-0.001,0-0.001,0-0.001,0
				c-0.001,0-0.001,0.001-0.001,0.001l0,0c0,0,0,0-0.001,0s-0.001,0-0.001,0c-0.047,0.006-0.158,0.021-0.261,0.123
				c-0.219,0.219-0.129,0.575,0.223,0.564c0,0,0,0,0,0l0,0h0.001c0.264-0.033,0.368-0.231,0.386-0.334
				C18.101,23.281,17.979,23.096,17.727,23.103z"/>
		</g>
		<g>
			<path fill="#FFFFFF" d="M20.132,20.809L20.132,20.809c-0.009,0.011-0.022,0.028-0.025,0.08c-0.019,0.202,0.125,0.683,0.229,0.596
				c0.019-0.025,0.027-0.063,0.029-0.108c-0.026-0.16-0.061-0.316-0.106-0.469C20.219,20.829,20.171,20.774,20.132,20.809z"/>
		</g>
		<g>
			<path fill="#FFFFFF" d="M17.067,25.361c0.047,0.163,0.419,0.097,0.547-0.097c0.07-0.107,0.021-0.211-0.182-0.203
				C17.179,25.091,17.039,25.262,17.067,25.361z"/>
		</g>
		<g>
			<path fill="#FFFFFF" d="M17.843,25.663c-0.006-0.004-0.015-0.003-0.042,0.003c-0.105,0.026-0.327,0.117-0.425,0.159
				c0.125-0.029,0.249-0.064,0.37-0.104C17.796,25.698,17.843,25.676,17.843,25.663z"/>
		</g>
		<g>
			<path fill="#FFFFFF" d="M17.719,22.312L17.719,22.312h-0.001l0,0c0,0,0,0-0.001,0h0c0,0-0.001,0-0.001,0
				c-0.049,0.005-0.152,0.02-0.242,0.116c-0.187,0.199-0.118,0.596,0.25,0.59l0,0c0,0,0,0,0,0c0,0,0,0,0.001,0c0,0,0,0,0.001,0
				c0,0,0,0,0,0h0l0,0c0,0,0.001,0,0.001-0.002c0.257-0.032,0.34-0.244,0.349-0.35C18.088,22.515,17.985,22.305,17.719,22.312z"/>
		</g>
		<g>
			<path fill="#FFFFFF" d="M18.241,22.052c0.221,0.184,0.521,0.006,0.495-0.291c-0.012-0.139-0.12-0.348-0.357-0.329h0h-0.001
				C18.078,21.493,18.033,21.881,18.241,22.052z"/>
		</g>
		<g>
			<path fill="#FFFFFF" d="M17.242,25.492c-0.201,0.021-0.319,0.129-0.324,0.193c-0.009,0.125,0.304,0.065,0.435-0.057
				c0.004-0.004,0.009-0.01,0.013-0.014C17.417,25.56,17.412,25.483,17.242,25.492z"/>
		</g>
		<g>
			<path fill="#FFFFFF" d="M17.498,25.754c0.009-0.012,0.005-0.025-0.06-0.017c-0.133,0.02-0.359,0.118-0.375,0.148
				c0.081-0.014,0.161-0.028,0.24-0.045c0.031-0.01,0.062-0.02,0.091-0.03C17.449,25.79,17.487,25.769,17.498,25.754z"/>
		</g>
		<g>
			<path fill="#FFFFFF" d="M19.538,20.715c-0.052-0.134-0.187-0.304-0.324-0.269c0,0,0,0,0,0c-0.177,0.074-0.063,0.521,0.156,0.615
				C19.537,21.134,19.627,20.946,19.538,20.715z"/>
		</g>
		<g>
			<path fill="#FFFFFF" d="M16.834,24.479L16.834,24.479C16.835,24.479,16.835,24.479,16.834,24.479h0.001h0
				c0.235-0.015,0.333-0.164,0.354-0.251c0.04-0.17-0.106-0.315-0.313-0.312c-0.045,0.003-0.151,0.01-0.248,0.091
				C16.427,24.176,16.51,24.472,16.834,24.479z"/>
		</g>
		<g>
			<path fill="#FFFFFF" d="M19.556,20.295c-0.01,0.007-0.02,0.015-0.028,0.034c-0.073,0.155,0.151,0.644,0.324,0.571l0,0
				c0.09-0.063,0.041-0.247-0.003-0.346C19.789,20.423,19.66,20.255,19.556,20.295z"/>
		</g>
		<g>
			<path fill="#FFFFFF" d="M16.519,24.918c0.111,0.191,0.503,0.135,0.582-0.084c0.051-0.142-0.079-0.269-0.272-0.265
				C16.541,24.586,16.443,24.788,16.519,24.918z"/>
		</g>
		<g>
			<path fill="#FFFFFF" d="M17.238,23.518c0.022-0.139-0.067-0.338-0.331-0.346c0,0,0,0-0.001,0h0c0,0,0,0,0,0h0c0,0,0,0,0,0h0
				c-0.344,0.023-0.432,0.354-0.287,0.526C16.801,23.912,17.195,23.798,17.238,23.518z"/>
		</g>
		<g>
			<path fill="#FFFFFF" d="M18.756,20.582c-0.209,0.066-0.168,0.468,0.062,0.598c0.192,0.108,0.354-0.059,0.287-0.299
				C19.054,20.692,18.891,20.553,18.756,20.582z"/>
		</g>
		<g>
			<path fill="#FFFFFF" d="M16.983,25.311c0.04-0.095-0.035-0.195-0.222-0.198c-0.188,0.005-0.334,0.128-0.291,0.246
				C16.537,25.529,16.905,25.494,16.983,25.311z"/>
		</g>
		<g>
			<path fill="#FFFFFF" d="M20.091,20.712L20.091,20.712c0.048-0.068-0.024-0.254-0.068-0.34c-0.074-0.146-0.188-0.28-0.241-0.238
				l0,0c-0.005,0.008-0.011,0.015-0.013,0.035C19.75,20.322,19.992,20.79,20.091,20.712z"/>
		</g>
		<g>
			<path fill="#FFFFFF" d="M17.705,22.188L17.705,22.188L17.705,22.188c0.001,0,0.002,0,0.002,0c0,0,0,0,0,0h0h0
				c0.238-0.031,0.299-0.227,0.296-0.326c-0.001-0.139-0.111-0.336-0.35-0.331c0,0,0,0,0,0s-0.001,0-0.001,0s0,0-0.001,0
				c0,0,0,0,0,0s0,0,0,0c0,0,0,0,0,0c-0.039,0.005-0.118,0.016-0.191,0.09C17.281,21.8,17.357,22.195,17.705,22.188z"/>
		</g>
		<g>
			<path fill="#FFFFFF" d="M17.095,25.831c0.018-0.018,0.024-0.049-0.081-0.043c-0.117,0.01-0.255,0.07-0.272,0.11
				c-0.004,0.01,0.003,0.016,0.016,0.019c0.047-0.004,0.093-0.007,0.139-0.012c0.058-0.012,0.117-0.029,0.155-0.048
				C17.072,25.849,17.086,25.84,17.095,25.831z"/>
		</g>
		<g>
			<path fill="#FFFFFF" d="M16.907,22.376L16.907,22.376L16.907,22.376L16.907,22.376c-0.001,0.001-0.001,0.001-0.001,0.001
				c-0.308,0.022-0.419,0.346-0.257,0.538c0.185,0.223,0.568,0.099,0.593-0.192C17.255,22.559,17.143,22.382,16.907,22.376z"/>
		</g>
		<g>
			<path fill="#FFFFFF" d="M18.353,21.312L18.353,21.312h0.001h0c0.191-0.041,0.208-0.219,0.188-0.319
				c-0.026-0.13-0.15-0.308-0.344-0.293h-0.001l0,0c0,0.001-0.001,0.001-0.001,0.001l0,0h0h0c-0.032,0.006-0.081,0.017-0.128,0.069
				C17.904,20.953,18.058,21.337,18.353,21.312z"/>
		</g>
		<g>
			<path fill="#FFFFFF" d="M16.598,25.768L16.598,25.768H16.6l0,0c0,0,0,0,0,0l0,0h0.001c0.137-0.006,0.214-0.067,0.237-0.102
				c0.052-0.071-0.027-0.139-0.161-0.137c-0.121,0.006-0.182,0.049-0.208,0.073C16.398,25.667,16.422,25.766,16.598,25.768z"/>
		</g>
		<g>
			<path fill="#FFFFFF" d="M19.909,20.079c0.035,0.088,0.094,0.2,0.149,0.29C20.012,20.27,19.962,20.174,19.909,20.079z"/>
		</g>
		<g>
			<path fill="#FFFFFF" d="M19.125,19.681c-0.012,0.007-0.015,0.015-0.017,0.019c-0.056,0.104,0.231,0.541,0.38,0.483
				c0.068-0.053,0-0.206-0.062-0.294C19.339,19.765,19.199,19.65,19.125,19.681z"/>
		</g>
		<g>
			<path fill="#FFFFFF" d="M19.151,20.038c-0.065-0.111-0.208-0.254-0.32-0.227c0,0,0,0,0,0h0h0
				c-0.003,0.002-0.009,0.005-0.013,0.006c-0.127,0.079,0.067,0.455,0.263,0.513C19.22,20.37,19.258,20.219,19.151,20.038z"/>
		</g>
		<g>
			<path fill="#FFFFFF" d="M16.084,24.586c-0.242,0.002-0.338,0.179-0.234,0.315c0.135,0.176,0.478,0.138,0.516-0.059
				C16.391,24.712,16.261,24.593,16.084,24.586z"/>
		</g>
		<g>
			<path fill="#FFFFFF" d="M16.08,23.939L16.08,23.939L16.08,23.939h-0.002l0,0c0,0,0,0,0,0s0,0-0.001,0
				c-0.276,0.005-0.376,0.236-0.244,0.397c0.162,0.2,0.524,0.131,0.552-0.104C16.398,24.128,16.326,23.957,16.08,23.939z"/>
		</g>
		<g>
			<path fill="#FFFFFF" d="M17.631,21.377L17.631,21.377L17.631,21.377c0.202-0.028,0.243-0.2,0.237-0.287
				c-0.009-0.127-0.117-0.304-0.328-0.3c-0.032,0.004-0.1,0.013-0.158,0.076C17.233,21.027,17.323,21.385,17.631,21.377z"/>
		</g>
		<g>
			<path fill="#FFFFFF" d="M16.905,22.207C16.905,22.207,16.905,22.207,16.905,22.207c0.226-0.017,0.293-0.189,0.297-0.29
				c0.006-0.131-0.087-0.318-0.312-0.326c-0.09,0.003-0.154,0.043-0.192,0.077C16.497,21.845,16.586,22.198,16.905,22.207z"/>
		</g>
		<g>
			<path fill="#FFFFFF" d="M18.438,19.928C18.438,19.928,18.438,19.928,18.438,19.928L18.438,19.928
				c-0.005,0.002-0.013,0.003-0.018,0.006c-0.162,0.065-0.038,0.423,0.176,0.51c0.166,0.066,0.258-0.081,0.17-0.271
				C18.717,20.062,18.578,19.908,18.438,19.928z"/>
		</g>
		<g>
			<path fill="#FFFFFF" d="M16.087,23.194L16.087,23.194L16.087,23.194L16.087,23.194L16.087,23.194h-0.001
				c-0.038,0.001-0.119,0.002-0.201,0.065c-0.206,0.156-0.125,0.491,0.192,0.519h0h0.001c0,0,0,0,0,0h0.001h0.001
				c0.224-0.003,0.303-0.155,0.315-0.246C16.413,23.404,16.329,23.214,16.087,23.194z"/>
		</g>
		<g>
			<path fill="#FFFFFF" d="M16.101,25.127L16.101,25.127C16.1,25.127,16.1,25.127,16.101,25.127L16.101,25.127L16.101,25.127
				c-0.001,0-0.001,0-0.001,0c-0.201,0.001-0.28,0.125-0.204,0.226c0.113,0.15,0.419,0.128,0.449-0.031
				C16.358,25.247,16.292,25.14,16.101,25.127z"/>
		</g>
		<g>
			<path fill="#FFFFFF" d="M19.7,20.015L19.7,20.015v-0.002c0,0,0,0,0,0c0.035-0.054-0.051-0.199-0.117-0.281
				c-0.091-0.118-0.219-0.224-0.264-0.19l0,0c-0.003,0.004-0.006,0.012-0.007,0.017C19.298,19.661,19.608,20.078,19.7,20.015z"/>
		</g>
		<g>
			<path fill="#FFFFFF" d="M16.683,25.881c0.026-0.026,0.011-0.063-0.104-0.063h-0.001c-0.114,0.005-0.159,0.04-0.17,0.051
				c-0.02,0.02-0.022,0.047,0.027,0.058c0.042,0.001,0.083,0.001,0.125,0c0.058-0.009,0.098-0.025,0.116-0.038
				C16.678,25.885,16.681,25.883,16.683,25.881z"/>
		</g>
		<g>
			<path fill="#FFFFFF" d="M16.105,22.399L16.105,22.399L16.105,22.399h-0.002l0,0h-0.001c-0.037,0-0.114,0.001-0.192,0.062
				c-0.208,0.157-0.136,0.513,0.176,0.54h0h0c0,0,0.001,0,0.001,0l0,0c0.219-0.004,0.298-0.166,0.311-0.262
				C16.42,22.59,16.313,22.418,16.105,22.399z"/>
		</g>
		<g>
			<path fill="#FFFFFF" d="M17.954,20.027L17.954,20.027L17.954,20.027h-0.001c0,0,0,0,0,0l0,0
				c-0.021,0.004-0.054,0.012-0.083,0.045c-0.119,0.132,0.01,0.496,0.279,0.475h0l0,0l0,0h0.001
				c0.158-0.035,0.149-0.193,0.122-0.273C18.234,20.168,18.108,20.015,17.954,20.027z"/>
		</g>
		<g>
			<path fill="#FFFFFF" d="M19.407,19.396c0,0.01,0,0.017,0.012,0.039c0.048,0.102,0.268,0.368,0.341,0.4
				c-0.104-0.157-0.22-0.306-0.345-0.445C19.411,19.392,19.409,19.394,19.407,19.396z"/>
		</g>
		<g>
			<path fill="#FFFFFF" d="M16.123,25.54C16.123,25.54,16.123,25.54,16.123,25.54L16.123,25.54
				c-0.167-0.001-0.208,0.083-0.163,0.141c0.079,0.107,0.335,0.101,0.358-0.009C16.33,25.623,16.277,25.549,16.123,25.54z"/>
		</g>
		<g>
			<path fill="#FFFFFF" d="M17.128,21.139c0.002-0.118-0.082-0.286-0.275-0.295h0l0,0c-0.001,0-0.001,0-0.001,0s0,0,0,0c0,0,0,0,0,0
				h0c-0.244,0.018-0.315,0.313-0.166,0.467C16.846,21.479,17.125,21.37,17.128,21.139z"/>
		</g>
		<g>
			<path fill="#FFFFFF" d="M16.127,21.617c-0.261-0.005-0.362,0.306-0.211,0.473c0.157,0.174,0.448,0.079,0.479-0.157
				C16.41,21.812,16.337,21.634,16.127,21.617z"/>
		</g>
		<g>
			<path fill="#FFFFFF" d="M17.344,20.555c0.156,0.113,0.368,0.02,0.329-0.195c-0.026-0.146-0.159-0.265-0.286-0.256
				C17.19,20.132,17.162,20.423,17.344,20.555z"/>
		</g>
		<g>
			<path fill="#FFFFFF" d="M15.295,23.921c-0.03-0.001-0.101-0.003-0.167,0.043c-0.163,0.116-0.068,0.39,0.205,0.423l0,0h0
				c0,0,0,0,0.001,0c0.225,0.009,0.242-0.161,0.242-0.181C15.586,24.065,15.457,23.936,15.295,23.921z"/>
		</g>
		<g>
			<path fill="#FFFFFF" d="M18.355,19.246C18.355,19.246,18.355,19.246,18.355,19.246L18.355,19.246
				c-0.006,0.003-0.014,0.007-0.018,0.012c-0.064,0.077,0.214,0.431,0.373,0.395h0.001c0.072-0.036,0.008-0.155-0.051-0.227
				C18.586,19.338,18.438,19.226,18.355,19.246z"/>
		</g>
		<g>
			<path fill="#FFFFFF" d="M15.356,24.57C15.356,24.57,15.356,24.57,15.356,24.57L15.356,24.57h-0.001
				c-0.029-0.001-0.095-0.004-0.151,0.032c-0.139,0.092-0.033,0.324,0.213,0.356c0.001,0,0.001,0,0.001,0s0,0,0.001,0
				c0.163,0.007,0.208-0.092,0.209-0.15C15.629,24.729,15.557,24.596,15.356,24.57z"/>
		</g>
		<g>
			<path fill="#FFFFFF" d="M18.971,19.532c0.065-0.002,0.042-0.104-0.086-0.231c-0.084-0.082-0.231-0.184-0.292-0.159
				c-0.002,0.001-0.005,0.002-0.006,0.004C18.533,19.214,18.854,19.535,18.971,19.532z"/>
		</g>
		<g>
			<path fill="#FFFFFF" d="M16.296,25.892c0.01-0.025-0.035-0.064-0.142-0.07h0h-0.001c-0.103,0-0.13,0.033-0.115,0.058
				c0.006,0.01,0.017,0.019,0.03,0.024c0.062,0.008,0.125,0.013,0.188,0.017C16.276,25.914,16.292,25.904,16.296,25.892z"/>
		</g>
		<g>
			<path fill="#FFFFFF" d="M18.043,19.338L18.043,19.338h-0.001l0,0c-0.006,0.002-0.017,0.005-0.023,0.01
				c-0.088,0.065,0.078,0.368,0.26,0.405c0.109,0.022,0.157-0.075,0.058-0.222C18.279,19.446,18.146,19.325,18.043,19.338z"/>
		</g>
		<g>
			<path fill="#FFFFFF" d="M15.091,23.612c0.16,0.168,0.441,0.097,0.461-0.117c0.011-0.111-0.066-0.284-0.271-0.313c0,0,0,0,0,0
				s0,0-0.001,0h0C15.019,23.174,14.937,23.448,15.091,23.612z"/>
		</g>
		<g>
			<path fill="#FFFFFF" d="M15.703,25.294c-0.006-0.065-0.088-0.164-0.251-0.184c-0.012-0.001-0.028-0.002-0.047-0.001
				c-0.14,0.011-0.166,0.128-0.048,0.223C15.509,25.458,15.714,25.413,15.703,25.294z"/>
		</g>
		<g>
			<path fill="#FFFFFF" d="M19.152,19.39c0.047-0.007,0-0.104-0.131-0.217c-0.101-0.088-0.237-0.17-0.272-0.146
				C18.711,19.083,19.065,19.401,19.152,19.39z"/>
		</g>
		<g>
			<path fill="#FFFFFF" d="M17.654,19.42c-0.021,0.003-0.038,0.011-0.05,0.023c-0.088,0.094,0.052,0.408,0.264,0.39l0,0
				c0.118-0.027,0.089-0.154,0.057-0.218C17.882,19.528,17.768,19.41,17.654,19.42z"/>
		</g>
		<g>
			<path fill="#FFFFFF" d="M15.305,22.386c-0.254-0.009-0.35,0.276-0.206,0.443c0.152,0.179,0.429,0.097,0.454-0.132
				C15.568,22.564,15.487,22.41,15.305,22.386z"/>
		</g>
		<g>
			<path fill="#FFFFFF" d="M15.583,25.521L15.583,25.521L15.583,25.521c-0.001,0-0.001,0-0.001,0
				c-0.022-0.001-0.073-0.003-0.105,0.022c-0.06,0.052,0.048,0.159,0.208,0.179c0,0,0,0,0,0h0h0l0,0
				c0.123,0.006,0.114-0.059,0.112-0.071C15.786,25.607,15.712,25.537,15.583,25.521z"/>
		</g>
		<g>
			<path fill="#FFFFFF" d="M18.843,18.898c0,0.002,0,0.004,0,0.006c0.007,0.033,0.125,0.139,0.233,0.223
				c0.049,0.038,0.163,0.123,0.178,0.095l-0.001-0.002c-0.109-0.109-0.227-0.213-0.349-0.309
				C18.872,18.896,18.849,18.889,18.843,18.898z"/>
		</g>
		<g>
			<path fill="#FFFFFF" d="M16.794,20.151C16.794,20.151,16.794,20.151,16.794,20.151c-0.207,0.018-0.246,0.294-0.102,0.415
				c0.143,0.121,0.345,0.016,0.333-0.173C17.02,20.299,16.942,20.157,16.794,20.151L16.794,20.151z"/>
		</g>
		<g>
			<path fill="#FFFFFF" d="M15.972,21.284c0.136,0.159,0.395,0.066,0.413-0.146c0.009-0.104-0.055-0.26-0.225-0.273
				C15.933,20.87,15.845,21.138,15.972,21.284z"/>
		</g>
		<g>
			<path fill="#FFFFFF" d="M17.171,19.486c-0.12,0.045-0.098,0.296,0.068,0.377c0.131,0.061,0.238-0.039,0.195-0.184
				c-0.025-0.084-0.121-0.2-0.233-0.199C17.191,19.481,17.179,19.483,17.171,19.486z"/>
		</g>
		<g>
			<path fill="#FFFFFF" d="M15.583,21.894c0.018-0.105-0.038-0.267-0.212-0.291c-0.229-0.008-0.332,0.263-0.209,0.415
				C15.293,22.18,15.55,22.104,15.583,21.894z"/>
		</g>
		<g>
			<path fill="#FFFFFF" d="M15.744,25.807L15.744,25.807C15.744,25.807,15.744,25.807,15.744,25.807l-0.001-0.001l0,0
				c-0.015-0.001-0.054-0.003-0.069,0.012c-0.007,0.006-0.007,0.014-0.001,0.022c0.081,0.018,0.163,0.032,0.245,0.045
				c-0.001-0.003-0.002-0.006-0.004-0.009C15.899,25.854,15.839,25.816,15.744,25.807z"/>
		</g>
		<g>
			<path fill="#FFFFFF" d="M14.556,23.87c-0.026-0.003-0.07-0.008-0.114,0.019c-0.145,0.081-0.059,0.344,0.172,0.39h0h0h0
				c0,0,0,0,0,0s0,0,0,0h0c0,0,0,0,0,0c0.183,0.019,0.188-0.129,0.188-0.146C14.805,24.015,14.687,23.89,14.556,23.87z"/>
		</g>
		<g>
			<path fill="#FFFFFF" d="M17.799,18.78c-0.019,0.041,0.254,0.31,0.367,0.282l0,0h0.001c0.046-0.026-0.03-0.11-0.093-0.162
				c-0.084-0.069-0.217-0.139-0.266-0.129C17.803,18.774,17.8,18.778,17.799,18.78z"/>
		</g>
		<g>
			<path fill="#FFFFFF" d="M14.92,24.741c-0.008-0.072-0.091-0.19-0.25-0.221c-0.016-0.001-0.037-0.004-0.059-0.001
				c-0.129,0.019-0.123,0.171,0.01,0.276C14.777,24.918,14.934,24.868,14.92,24.741z"/>
		</g>
		<g>
			<path fill="#FFFFFF" d="M18.372,18.97c0.043-0.009-0.011-0.081-0.119-0.154c-0.096-0.067-0.234-0.131-0.272-0.118h-0.001
				c0,0-0.001,0.002-0.002,0.002C17.949,18.747,18.295,18.985,18.372,18.97z"/>
		</g>
		<g>
			<path fill="#FFFFFF" d="M17.584,18.84c-0.003,0.002-0.009,0.005-0.012,0.008c-0.047,0.046,0.155,0.285,0.284,0.296
				c0.068,0.006,0.074-0.062-0.02-0.161C17.764,18.908,17.638,18.831,17.584,18.84z"/>
		</g>
		<g>
			<path fill="#FFFFFF" d="M14.532,23.59L14.532,23.59L14.532,23.59C14.533,23.59,14.533,23.591,14.532,23.59L14.532,23.59
				c0.156,0.013,0.205-0.103,0.21-0.171c0.007-0.1-0.06-0.253-0.227-0.286c-0.03-0.003-0.075-0.008-0.124,0.022
				C14.229,23.25,14.292,23.544,14.532,23.59z"/>
		</g>
		<g>
			<path fill="#FFFFFF" d="M18.515,18.861L18.515,18.861c0.011-0.026-0.074-0.095-0.163-0.146c-0.101-0.058-0.23-0.112-0.255-0.097
				c0,0.001-0.001,0.002-0.002,0.003C18.094,18.652,18.461,18.896,18.515,18.861z"/>
		</g>
		<g>
			<path fill="#FFFFFF" d="M15.084,25.234c-0.018-0.054-0.097-0.147-0.236-0.173c-0.046-0.006-0.074,0.004-0.088,0.011
				c-0.087,0.053,0.039,0.224,0.22,0.256c0,0,0,0,0,0c0,0,0,0,0,0c0,0,0,0,0,0l0,0C15.116,25.341,15.087,25.245,15.084,25.234z"/>
		</g>
		<g>
			<path fill="#FFFFFF" d="M16.37,20.399c0.006-0.085-0.034-0.213-0.173-0.225h0h0l0,0c-0.001,0-0.001,0-0.001,0l0,0
				c-0.185,0.007-0.252,0.247-0.141,0.364C16.167,20.657,16.356,20.573,16.37,20.399z"/>
		</g>
		<g>
			<path fill="#FFFFFF" d="M14.741,22.621c0.014-0.098-0.036-0.248-0.191-0.281h-0.001l0,0c0,0,0,0,0,0h0l0,0h-0.001h0
				c-0.208-0.018-0.288,0.218-0.174,0.372C14.489,22.869,14.713,22.814,14.741,22.621z"/>
		</g>
		<g>
			<path fill="#FFFFFF" d="M15.471,20.856c-0.192-0.007-0.291,0.223-0.2,0.356c0.102,0.147,0.325,0.083,0.365-0.103
				C15.663,20.984,15.585,20.865,15.471,20.856z"/>
		</g>
		<g>
			<path fill="#FFFFFF" d="M16.722,19.521c-0.019,0.002-0.046,0.005-0.075,0.033c-0.097,0.089-0.061,0.326,0.117,0.337h0.001l0,0
				h0.001h0h0.001c0.116-0.01,0.137-0.119,0.131-0.175C16.889,19.611,16.807,19.521,16.722,19.521z"/>
		</g>
		<g>
			<path fill="#FFFFFF" d="M17.307,18.9c-0.004,0.001-0.012,0.003-0.016,0.004c-0.065,0.042,0.057,0.263,0.191,0.295
				c0.081,0.019,0.117-0.048,0.043-0.154C17.466,18.962,17.362,18.892,17.307,18.9z"/>
		</g>
		<g>
			<path fill="#FFFFFF" d="M15.08,25.481c-0.017-0.002-0.042-0.004-0.062,0.006c-0.053,0.028,0.046,0.126,0.17,0.163
				c0.088,0.026,0.136,0.007,0.107-0.043C15.266,25.555,15.16,25.492,15.08,25.481z"/>
		</g>
		<g>
			<path fill="#FFFFFF" d="M18.415,18.685c0.104,0.053,0.156,0.072,0.164,0.06c0-0.001,0-0.001,0-0.001
				c-0.005-0.025-0.097-0.086-0.18-0.128c-0.105-0.057-0.219-0.096-0.229-0.082l0,0c0,0.001,0,0.003,0,0.003
				C18.183,18.56,18.336,18.645,18.415,18.685z"/>
		</g>
		<g>
			<path fill="#FFFFFF" d="M16.982,18.948c-0.011,0.002-0.02,0.003-0.031,0.012c-0.061,0.06,0.018,0.278,0.158,0.277c0,0,0,0,0,0
				l0,0c0.074-0.014,0.067-0.094,0.045-0.145C17.129,19.031,17.054,18.947,16.982,18.948z"/>
		</g>
		<g>
			<path fill="#FFFFFF" d="M14.649,21.56c-0.169-0.023-0.289,0.196-0.19,0.343c0.097,0.144,0.304,0.089,0.341-0.087
				C14.82,21.726,14.785,21.587,14.649,21.56z"/>
		</g>
		<g>
			<path fill="#FFFFFF" d="M16.358,19.726c0.013-0.094-0.043-0.181-0.119-0.184c-0.128,0.004-0.184,0.188-0.111,0.278
				C16.203,19.914,16.341,19.857,16.358,19.726z"/>
		</g>
		<g>
			<path fill="#FFFFFF" d="M15.711,20.383c0.031-0.106-0.021-0.206-0.113-0.214c-0.144-0.005-0.234,0.178-0.176,0.287
				C15.489,20.58,15.667,20.536,15.711,20.383z"/>
		</g>
		<g>
			<path fill="#FFFFFF" d="M14.259,24.633c-0.017-0.062-0.094-0.162-0.208-0.191l0,0h0H14.05c-0.017-0.003-0.047-0.008-0.07,0.007
				c-0.079,0.053,0.027,0.238,0.186,0.28h0.001h0C14.289,24.748,14.263,24.646,14.259,24.633z"/>
		</g>
		<g>
			<path fill="#FFFFFF" d="M14.082,24.018c-0.005-0.072-0.07-0.19-0.193-0.225l0-0.001h0h0h0h0c-0.013-0.002-0.03-0.005-0.046-0.002
				c-0.115,0.014-0.102,0.188,0.021,0.29C13.972,24.172,14.092,24.138,14.082,24.018z"/>
		</g>
		<g>
			<path fill="#FFFFFF" d="M17.534,18.59c0.02-0.008-0.016-0.045-0.107-0.095c-0.075-0.042-0.189-0.088-0.217-0.084
				c0,0.001-0.001,0.002-0.001,0.002C17.203,18.445,17.496,18.604,17.534,18.59z"/>
		</g>
		<g>
			<path fill="#FFFFFF" d="M17.672,18.528c0.014-0.008-0.038-0.046-0.136-0.09c-0.091-0.04-0.208-0.075-0.229-0.069
				c0,0,0,0-0.001,0.001C17.315,18.399,17.646,18.543,17.672,18.528z"/>
		</g>
		<g>
			<path fill="#FFFFFF" d="M13.989,23.286c0-0.104-0.083-0.215-0.174-0.235c-0.008-0.001-0.021-0.003-0.03-0.003
				c-0.135,0.005-0.162,0.205-0.044,0.323C13.848,23.48,13.99,23.432,13.989,23.286z"/>
		</g>
		<g>
			<path fill="#FFFFFF" d="M17.348,18.641L17.348,18.641L17.348,18.641c0.028-0.012-0.016-0.059-0.072-0.099
				c-0.062-0.043-0.162-0.094-0.195-0.092c-0.001,0.001-0.001,0.001-0.003,0.001C17.058,18.469,17.272,18.647,17.348,18.641z"/>
		</g>
		<g>
			<path fill="#FFFFFF" d="M14.307,24.993c-0.013-0.003-0.035-0.007-0.05,0c-0.068,0.028,0.047,0.17,0.176,0.216
				c0.083,0.029,0.106-0.01,0.081-0.061C14.48,25.082,14.383,25.01,14.307,24.993z"/>
		</g>
		<g>
			<path fill="#FFFFFF" d="M17.755,18.459c0.004-0.014-0.075-0.051-0.151-0.078c-0.096-0.034-0.21-0.063-0.228-0.059l0,0
				C17.375,18.342,17.729,18.47,17.755,18.459z"/>
		</g>
		<g>
			<path fill="#FFFFFF" d="M16.636,18.978L16.636,18.978C16.636,18.978,16.636,18.978,16.636,18.978
				c-0.009,0.001-0.023,0.003-0.038,0.017c-0.062,0.058-0.035,0.24,0.082,0.248h0h0h0c0.075-0.008,0.081-0.087,0.074-0.127
				C16.747,19.062,16.702,18.98,16.636,18.978z"/>
		</g>
		<g>
			<path fill="#FFFFFF" d="M14.723,21.181L14.723,21.181L14.723,21.181c0.001,0,0.001,0,0.001,0h0c0,0,0,0,0,0.001
				c0.114,0.007,0.174-0.087,0.192-0.145c0.023-0.077,0.006-0.195-0.107-0.219c-0.034-0.004-0.066,0.002-0.097,0.021
				C14.574,20.918,14.555,21.146,14.723,21.181z"/>
		</g>
		<g>
			<path fill="#FFFFFF" d="M13.985,22.5c0.017-0.108-0.044-0.22-0.135-0.24c-0.004,0-0.009-0.002-0.014-0.002
				c-0.13-0.011-0.216,0.187-0.102,0.321C13.821,22.686,13.963,22.641,13.985,22.5z"/>
		</g>
		<g>
			<path fill="#FFFFFF" d="M17.112,18.677c0.038,0.002,0.023-0.045-0.033-0.098c-0.04-0.039-0.118-0.093-0.154-0.092
				c-0.002,0.001-0.005,0.002-0.007,0.004C16.895,18.516,17.041,18.676,17.112,18.677z"/>
		</g>
		<g>
			<path fill="#FFFFFF" d="M14.822,25.526c-0.03-0.03-0.107-0.085-0.185-0.104c-0.016-0.004-0.034-0.006-0.042,0.002
				c-0.002,0.003-0.002,0.007-0.002,0.011c0.083,0.045,0.167,0.088,0.252,0.128C14.846,25.555,14.837,25.542,14.822,25.526z"/>
		</g>
		<g>
			<path fill="#FFFFFF" d="M16.741,18.517c-0.002,0.002-0.005,0.002-0.007,0.004c-0.034,0.021,0.038,0.158,0.105,0.174
				c0.035,0.009,0.049-0.027,0.013-0.085C16.824,18.565,16.771,18.517,16.741,18.517z"/>
		</g>
		<g>
			<path fill="#FFFFFF" d="M15.82,19.689c0.015-0.053,0.01-0.136-0.068-0.147h0c0,0,0,0,0,0l0,0
				c-0.101-0.001-0.183,0.141-0.131,0.227C15.668,19.848,15.787,19.802,15.82,19.689z"/>
		</g>
		<g>
			<path fill="#FFFFFF" d="M14.073,21.704c0.03-0.099-0.012-0.196-0.092-0.212c-0.14-0.022-0.215,0.154-0.146,0.269
				C13.903,21.873,14.037,21.821,14.073,21.704z"/>
		</g>
		<g>
			<path fill="#FFFFFF" d="M17.808,18.358C17.808,18.358,17.808,18.357,17.808,18.358c-0.01-0.011-0.075-0.034-0.149-0.052
				c-0.072-0.02-0.164-0.036-0.172-0.029C17.514,18.298,17.771,18.369,17.808,18.358z"/>
		</g>
		<g>
			<path fill="#FFFFFF" d="M15.08,20.312c0.03-0.076,0.016-0.159-0.061-0.171c-0.118-0.01-0.206,0.145-0.159,0.233
				C14.906,20.461,15.035,20.425,15.08,20.312z"/>
		</g>
		<g>
			<path fill="#FFFFFF" d="M16.352,19.118c0.005-0.046-0.009-0.114-0.066-0.12h-0.001l0,0c-0.077,0.004-0.12,0.138-0.063,0.199
				C16.269,19.249,16.343,19.203,16.352,19.118z"/>
		</g>
		<g>
			<path fill="#FFFFFF" d="M16.877,18.23C16.877,18.23,16.877,18.23,16.877,18.23c-0.008-0.007-0.061-0.021-0.124-0.034
				c-0.067-0.014-0.146-0.028-0.161-0.028C16.594,18.169,16.862,18.232,16.877,18.23L16.877,18.23z"/>
		</g>
		<g>
			<path fill="#FFFFFF" d="M13.307,23.688c-0.011-0.004-0.02-0.006-0.034-0.002c-0.072,0.019-0.026,0.173,0.07,0.235
				c0.062,0.041,0.109,0.011,0.097-0.062S13.367,23.708,13.307,23.688z"/>
		</g>
		<g>
			<path fill="#FFFFFF" d="M16.827,18.253c-0.007-0.007-0.05-0.022-0.104-0.039c-0.065-0.019-0.141-0.036-0.149-0.037
				C16.573,18.179,16.814,18.258,16.827,18.253z"/>
		</g>
		<g>
			<path fill="#FFFFFF" d="M13.525,24.344c-0.009-0.002-0.025-0.006-0.037,0c-0.048,0.026,0.038,0.175,0.141,0.213c0,0,0,0,0,0h0
				c0,0,0,0,0,0.001c0.071,0.019,0.045-0.056,0.042-0.063C13.654,24.446,13.597,24.371,13.525,24.344z"/>
		</g>
		<g>
			<path fill="#FFFFFF" d="M13.316,23.135c0.001-0.058-0.029-0.153-0.105-0.184c0,0,0,0,0,0l0,0h0h0
				c-0.011-0.003-0.021-0.007-0.037-0.002c-0.083,0.027-0.061,0.221,0.055,0.269h0h0h0c0,0,0,0,0,0
				C13.311,23.238,13.315,23.146,13.316,23.135z"/>
		</g>
		<g>
			<path fill="#FFFFFF" d="M14.251,20.919c0.02-0.052,0.016-0.137-0.057-0.157c-0.095-0.02-0.188,0.124-0.141,0.217
				C14.098,21.064,14.213,21.016,14.251,20.919z"/>
		</g>
		<g>
			<path fill="#FFFFFF" d="M16.541,18.541c-0.001,0-0.002,0-0.003,0.001c-0.035,0.009-0.028,0.115,0.021,0.145
				c0.032,0.019,0.059-0.01,0.045-0.063C16.592,18.579,16.562,18.541,16.541,18.541z"/>
		</g>
		<g>
			<path fill="#FFFFFF" d="M16.755,18.271c-0.002-0.005-0.038-0.024-0.084-0.043c-0.05-0.02-0.115-0.041-0.122-0.041
				C16.549,18.188,16.747,18.277,16.755,18.271z"/>
		</g>
		<g>
			<path fill="#FFFFFF" d="M16.903,18.204c-0.011-0.006-0.065-0.016-0.125-0.025c-0.072-0.012-0.15-0.02-0.163-0.021
				C16.618,18.159,16.897,18.208,16.903,18.204z"/>
		</g>
		<g>
			<path fill="#FFFFFF" d="M16.662,18.28c0.001-0.004-0.021-0.021-0.055-0.041c-0.032-0.019-0.078-0.041-0.085-0.042
				c0,0,0,0,0,0.001C16.528,18.207,16.652,18.288,16.662,18.28z"/>
		</g>
		<g>
			<path fill="#FFFFFF" d="M13.215,22.419C13.216,22.419,13.216,22.419,13.215,22.419c0,0,0,0,0.001,0
				c0.062,0.013,0.088-0.05,0.094-0.089c0.007-0.051-0.005-0.137-0.073-0.162h0c0,0,0,0-0.001,0l0,0c0,0,0,0,0,0
				c-0.009-0.002-0.024-0.007-0.042,0.002C13.118,22.205,13.118,22.38,13.215,22.419z"/>
		</g>
		<g>
			<path fill="#FFFFFF" d="M16.901,18.176c-0.012-0.005-0.064-0.012-0.119-0.017c-0.062-0.007-0.131-0.013-0.143-0.012
				C16.641,18.148,16.887,18.179,16.901,18.176z"/>
		</g>
		<g>
			<path fill="#FFFFFF" d="M15.947,19.099c0.019-0.047,0.007-0.091-0.024-0.094c-0.056,0-0.104,0.091-0.086,0.137
				C15.855,19.188,15.921,19.162,15.947,19.099z"/>
		</g>
		<g>
			<path fill="#FFFFFF" d="M15.189,19.711L15.189,19.711h0.001h0c0.063,0.005,0.101-0.064,0.105-0.073
				c0.027-0.053,0.018-0.105-0.022-0.111c-0.009,0-0.022-0.001-0.044,0.01C15.155,19.577,15.117,19.691,15.189,19.711z"/>
		</g>
		<g>
			<path fill="#FFFFFF" d="M16.355,18.619c0.002-0.021-0.001-0.057-0.023-0.061h-0.001c-0.03,0.002-0.051,0.077-0.028,0.104
				C16.319,18.682,16.35,18.668,16.355,18.619z"/>
		</g>
		<g>
			<path fill="#FFFFFF" d="M14.39,20.274L14.39,20.274L14.39,20.274c0.048,0.006,0.09-0.04,0.107-0.069
				c0.019-0.036,0.024-0.094-0.023-0.107c-0.01-0.002-0.027-0.002-0.048,0.009C14.357,20.143,14.323,20.254,14.39,20.274z"/>
		</g>
		<g>
			<path fill="#FFFFFF" d="M13.427,21.528c0.016-0.055-0.002-0.11-0.04-0.122c-0.002,0-0.004-0.002-0.006-0.002
				c-0.062-0.009-0.12,0.1-0.075,0.171C13.34,21.626,13.408,21.602,13.427,21.528z"/>
		</g>
		<g>
			<path fill="#FFFFFF" d="M16.557,18.283c0.005,0,0-0.013-0.021-0.033c-0.015-0.017-0.043-0.038-0.05-0.039h0
				C16.484,18.218,16.542,18.281,16.557,18.283z"/>
		</g>
		<g>
			<path fill="#FFFFFF" d="M16.865,18.146c-0.008-0.003-0.049-0.006-0.095-0.009c-0.045-0.002-0.102-0.003-0.109-0.002
				C16.663,18.136,16.859,18.148,16.865,18.146z"/>
		</g>
		<g>
			<path fill="#FFFFFF" d="M13.651,20.77c0.01-0.021,0.021-0.064-0.012-0.077l0,0c-0.046-0.011-0.087,0.06-0.07,0.103
				C13.585,20.833,13.629,20.812,13.651,20.77z"/>
		</g>
		<g>
			<path fill="#FFFFFF" d="M16.458,18.274c0.004,0.002,0.004-0.008-0.002-0.023c-0.003-0.008-0.012-0.025-0.016-0.025c0,0,0,0,0,0
				C16.434,18.229,16.45,18.272,16.458,18.274z"/>
		</g>
		<g>
			<path fill="#FFFFFF" d="M15.555,19.057c0.005-0.007,0.009-0.015,0.01-0.021c0.001-0.006,0.001-0.013,0.001-0.02
				c0-0.006-0.007-0.011-0.014-0.009c-0.034,0.009-0.058,0.05-0.053,0.067C15.503,19.093,15.537,19.085,15.555,19.057z"/>
		</g>
		<g>
			<path fill="#FFFFFF" d="M16.829,18.121c-0.027-0.001-0.056-0.002-0.083-0.002c-0.02,0-0.053,0.001-0.058,0.002
				C16.689,18.121,16.689,18.121,16.829,18.121z"/>
		</g>
		<path fill="#FFFFFF" d="M11.005,16c-0.109-0.049-0.182,0.057-0.158,0.127c0.035,0.102,0.159,0.077,0.214,0.032
			c0.105-0.089,0.059-0.205,0.089-0.294C11.182,15.777,11.088,16.038,11.005,16z"/>
		<path fill="#FFFFFF" d="M22.391,8.175c0.006,0.031,0.013,0.063,0.019,0.093c0.154,1.067,0.148,1.615,0.065,2.094
			c-0.109,0.636-0.306,1.239-0.721,1.913c-0.335,0.53-0.829,1.051-1.433,1.666l-0.001,0.001c-0.038,0.039-0.079,0.084-0.121,0.13
			c-0.003,0.002-0.004,0.004-0.005,0.006c-0.041,0.046-0.083,0.097-0.124,0.148c-0.006,0.009-0.014,0.018-0.02,0.027
			c-0.055,0.071-0.106,0.146-0.149,0.222c-0.005,0.009-0.01,0.019-0.017,0.029c-0.01,0.019-0.02,0.039-0.029,0.057
			c-0.004,0.01-0.009,0.019-0.013,0.029c-0.009,0.018-0.017,0.038-0.024,0.058c-0.019,0.047-0.033,0.094-0.042,0.141
			c-0.08,0.411,0.072,1.025,0.802,1.023c0.02,0,0.04-0.001,0.059-0.001c0.019-0.001,0.038-0.002,0.057-0.004
			c0.482-0.042,1.188-0.331,2.192-1.054l0.813-0.568c0.016-0.011,0.042-0.017,0.065-0.016c0.031,0,0.057,0.01,0.054,0.028
			c0,0.002-0.001,0.005-0.002,0.008c-0.684,1.147-0.929,1.769-1.029,2.168c-0.004,0.014-0.007,0.029-0.011,0.043
			c-0.009,0.042-0.018,0.081-0.025,0.119c-0.002,0.012-0.004,0.024-0.007,0.037c-0.002,0.012-0.004,0.023-0.006,0.035
			c0,0.006-0.001,0.012-0.003,0.018c-0.001,0.011-0.003,0.022-0.004,0.033c-0.003,0.021-0.006,0.042-0.008,0.063
			c-0.001,0.011-0.003,0.021-0.003,0.03c-0.001,0.01-0.003,0.02-0.004,0.03c-0.002,0.02-0.005,0.038-0.006,0.057
			c-0.001,0.009-0.002,0.018-0.003,0.027c-0.001,0.009-0.003,0.019-0.003,0.027c-0.001,0.009-0.002,0.018-0.003,0.027
			c-0.002,0.013-0.004,0.026-0.005,0.039c-0.001,0.006-0.002,0.011-0.003,0.014c-0.026,0.157-0.074,0.307-0.227,0.535
			c-0.362,0.539-0.776,0.934-1.166,1.224c-0.019,0.014-0.038,0.028-0.057,0.043c-0.062,0.043-0.122,0.085-0.18,0.123
			c-0.022,0.014-0.042,0.026-0.062,0.04c-0.021,0.013-0.041,0.025-0.062,0.037c-0.013,0.008-0.025,0.016-0.037,0.023
			c-0.02,0.012-0.038,0.022-0.056,0.032c-0.016,0.01-0.033,0.02-0.049,0.028c-0.009,0.006-0.019,0.011-0.028,0.016
			c-0.029,0.018-0.059,0.034-0.087,0.049c-0.01,0.005-0.02,0.01-0.029,0.016c-0.084,0.044-0.164,0.082-0.237,0.116
			c-0.009,0.003-0.016,0.007-0.024,0.011c-0.012,0.005-0.022,0.01-0.034,0.015c-0.013,0.005-0.025,0.01-0.037,0.016
			c-0.264-0.375-0.582-0.708-0.942-0.989c-0.101-0.078-0.205-0.155-0.312-0.225c-0.018-0.012-0.036-0.023-0.053-0.034
			c-0.059-0.037-0.117-0.072-0.177-0.107c-0.021-0.013-0.045-0.025-0.067-0.039c-0.101-0.055-0.204-0.108-0.308-0.157
			c-0.02-0.009-0.039-0.018-0.058-0.025c-0.075-0.034-0.152-0.065-0.229-0.095c-0.11-0.043-0.224-0.081-0.338-0.116
			c-0.039-0.012-0.077-0.022-0.115-0.033c-0.028-0.007-0.055-0.015-0.083-0.021c-0.092-0.023-0.185-0.043-0.278-0.062
			c-0.053-0.009-0.106-0.019-0.16-0.026c-0.231-0.034-0.468-0.052-0.709-0.052c-0.864,0-1.673,0.232-2.368,0.64
			c-0.182,0.106-0.384,0.156-0.585,0.154c0,0,0,0,0,0c-0.014,0-0.028,0-0.042-0.001c-0.001,0-0.001,0-0.001,0
			c-0.014-0.001-0.028-0.002-0.041-0.003c-0.023-0.002-0.045-0.005-0.068-0.007c-0.026-0.005-0.052-0.01-0.078-0.015
			c-0.007-0.002-0.016-0.003-0.025-0.006c-0.008-0.002-0.017-0.005-0.026-0.007c-0.012-0.003-0.024-0.006-0.036-0.01
			c-0.021-0.007-0.041-0.013-0.062-0.021c-0.037-0.014-0.074-0.029-0.109-0.047c-0.005-0.003-0.011-0.005-0.017-0.008
			c-0.021-0.011-0.042-0.022-0.063-0.034c-0.011-0.007-0.02-0.013-0.031-0.02c-0.015-0.009-0.031-0.02-0.045-0.029
			c-0.004-0.003-0.008-0.006-0.012-0.009c-0.022-0.017-0.044-0.032-0.064-0.051c-0.076-0.062-0.148-0.124-0.218-0.183
			c-0.002-0.002-0.005-0.005-0.008-0.006c-0.032-0.028-0.065-0.056-0.096-0.083c-0.059-0.05-0.116-0.098-0.171-0.144
			c-0.01-0.009-0.019-0.016-0.029-0.023c-0.002-0.002-0.005-0.005-0.008-0.007c-0.01-0.008-0.02-0.018-0.03-0.024
			c-0.002-0.004-0.006-0.004-0.008-0.008c-0.023-0.018-0.045-0.035-0.066-0.053c-0.036-0.027-0.07-0.054-0.104-0.079
			c-0.008-0.008-0.016-0.014-0.024-0.019c-0.004-0.004-0.009-0.008-0.013-0.011c-0.008-0.006-0.015-0.011-0.023-0.017
			c-0.194-0.14-0.38-0.245-0.577-0.296c-0.002,0-0.005-0.001-0.008-0.002c-0.14-0.036-0.285-0.045-0.443-0.021
			c-0.008,0-0.016,0.002-0.023,0.004c-0.224,0.038-0.474,0.14-0.769,0.32c0.001-0.002,0.006-0.005,0.012-0.009c0,0,0,0,0-0.001
			c0,0,0.002-0.002,0.003-0.002c0-0.001,0.001-0.002,0.001-0.002c0.001-0.001,0.001-0.001,0.002-0.001
			c0.001-0.002,0.002-0.003,0.003-0.003c0,0,0,0,0,0c0.003-0.004,0.008-0.009,0.012-0.013c0.003-0.003,0.007-0.006,0.01-0.009
			c0-0.001,0-0.001,0-0.001c0.013-0.014,0.027-0.029,0.042-0.051c0.001-0.003,0.001-0.005,0.003-0.006
			c0.01-0.015,0.02-0.032,0.03-0.05c0.003-0.005,0.005-0.01,0.008-0.015c0.003-0.008,0.007-0.015,0.01-0.021
			c0.007-0.015,0.012-0.03,0.019-0.045c0.001-0.004,0.002-0.006,0.003-0.009c0.005-0.012,0.009-0.024,0.013-0.038
			c0.001-0.004,0.002-0.009,0.004-0.014c0.004-0.013,0.007-0.028,0.012-0.043c0.014-0.054,0.024-0.116,0.031-0.188
			c0-0.002,0-0.003,0-0.005c0.001-0.023,0.003-0.046,0.004-0.071c0,0,0-0.002,0-0.002c0.001-0.017,0.001-0.035,0.001-0.053
			c0-0.01,0-0.019,0-0.029c0-0.028-0.001-0.058-0.002-0.089c0-0.01-0.001-0.021-0.002-0.031c-0.003-0.053-0.008-0.107-0.015-0.167
			c-0.167-1.338,0.939-1.692,2.567-1.09c0.042,0.016,0.084,0.027,0.133,0.045c0.096,0.034,0.367,0.133,0.726,0.146
			c0.255,0.007,1.038-0.122,0.746-0.212c-4.037-1.234-3.327-3.291-2.492-5.514c0.643-1.708,0.381-2.09,0.263-2.425
			c-3.108,1.384-5.395,4.276-5.932,7.746c-0.064,0.469-0.1,0.947-0.106,1.434c-0.054,4.135,2.368,7.731,5.877,9.387
			c1.308,0.61,2.767,0.95,4.306,0.95c5.632,0,10.198-4.564,10.198-10.198C26.689,13.059,24.992,10.023,22.391,8.175z M12.569,21.796
			c0.103-2.005,1.71-3.612,3.716-3.716c0.988-0.051,1.903,0.269,2.62,0.831c0.123,0.096,0.24,0.199,0.349,0.309
			c0.056,0.057,0.109,0.111,0.162,0.171c0.125,0.14,0.241,0.288,0.345,0.445c0.053,0.078,0.102,0.159,0.149,0.243
			c0.053,0.095,0.103,0.19,0.149,0.29c0.08,0.174,0.147,0.353,0.201,0.538c0.045,0.152,0.08,0.309,0.106,0.469
			c0.008,0.055,0.016,0.107,0.022,0.161c0.025,0.219,0.034,0.441,0.022,0.668c-0.016,0.303-0.066,0.598-0.146,0.879
			c-0.013,0.046-0.027,0.091-0.042,0.135c-0.059,0.181-0.13,0.355-0.213,0.522c-0.042,0.084-0.087,0.167-0.135,0.248
			c-0.272,0.463-0.639,0.865-1.071,1.182c-0.107,0.078-0.219,0.153-0.334,0.22c-0.104,0.062-0.213,0.118-0.323,0.169
			c-0.011,0.006-0.021,0.012-0.031,0.017c-0.111,0.051-0.225,0.095-0.342,0.135c-0.008,0.003-0.017,0.005-0.025,0.01
			c-0.122,0.04-0.245,0.075-0.37,0.104c-0.024,0.005-0.049,0.011-0.073,0.016c-0.08,0.017-0.16,0.031-0.24,0.045
			c-0.055,0.008-0.109,0.015-0.165,0.02c-0.046,0.005-0.092,0.008-0.139,0.012c-0.021,0.001-0.043,0.004-0.065,0.004
			c-0.044,0.003-0.089,0.004-0.134,0.005c-0.042,0.001-0.083,0.001-0.125,0c-0.061-0.001-0.12-0.003-0.18-0.006
			c-0.063-0.004-0.126-0.009-0.188-0.017c-0.05-0.005-0.1-0.011-0.149-0.019c-0.083-0.013-0.165-0.027-0.245-0.045
			c-0.289-0.062-0.564-0.155-0.826-0.276c-0.086-0.04-0.17-0.083-0.252-0.128C13.33,24.732,12.489,23.354,12.569,21.796z"/>
		<path fill="#FFFFFF" d="M16.19,11.893c-1.179,2.574,1.222,2.894,1.223,2.894c-1.014-0.475-0.872-1.442-0.872-1.442
			c0.039-0.313,0.131-0.617,0.267-0.902c1.135-2.369,1.446-4.188,0.902-5.412c-0.206-0.463-0.667-0.764-1.174-0.764
			c-0.004,0-0.006,0-0.008,0c-0.581,0-1.15,0.048-1.703,0.142C17.241,7.397,17.205,9.678,16.19,11.893z"/>
		<path fill="#FFFFFF" d="M16.489,0C7.383,0,0,7.382,0,16.489c0,9.107,7.383,16.489,16.489,16.489s16.489-7.382,16.489-16.489
			C32.978,7.382,25.596,0,16.489,0z M16.489,27.456c-6.056,0-10.966-4.911-10.966-10.967c0-6.057,4.911-10.966,10.966-10.966
			c6.056,0,10.966,4.91,10.966,10.966C27.455,22.545,22.545,27.456,16.489,27.456z"/>
	</g>
	<g>
		<path fill="#FFFFFF" d="M47.931,16.525c0,0.849-0.141,1.627-0.424,2.336c-0.283,0.71-0.68,1.32-1.192,1.832
			c-0.512,0.513-1.128,0.909-1.848,1.192c-0.72,0.282-1.518,0.424-2.392,0.424h-4.416V10.741h4.416c0.875,0,1.672,0.144,2.392,0.429
			c0.72,0.285,1.336,0.683,1.848,1.191c0.512,0.51,0.909,1.119,1.192,1.828C47.79,14.899,47.931,15.678,47.931,16.525z
			 M45.731,16.525c0-0.635-0.085-1.204-0.256-1.708c-0.17-0.504-0.413-0.931-0.728-1.28c-0.314-0.349-0.697-0.617-1.148-0.804
			s-0.958-0.28-1.524-0.28h-2.248v8.145h2.248c0.565,0,1.073-0.094,1.524-0.28s0.833-0.454,1.148-0.804
			c0.315-0.35,0.558-0.776,0.728-1.28C45.646,17.729,45.731,17.16,45.731,16.525z"/>
		<path fill="#FFFFFF" d="M60.715,16.525c0,0.849-0.142,1.634-0.424,2.356s-0.68,1.348-1.192,1.876
			c-0.512,0.527-1.128,0.939-1.848,1.235c-0.72,0.297-1.517,0.444-2.392,0.444c-0.875,0-1.673-0.147-2.396-0.444
			c-0.723-0.296-1.342-0.708-1.856-1.235c-0.515-0.528-0.913-1.153-1.196-1.876s-0.424-1.508-0.424-2.356
			c0-0.848,0.141-1.633,0.424-2.355s0.681-1.349,1.196-1.876c0.515-0.528,1.133-0.94,1.856-1.236
			c0.723-0.296,1.521-0.444,2.396-0.444c0.875,0,1.672,0.149,2.392,0.448c0.72,0.299,1.336,0.711,1.848,1.236
			c0.512,0.525,0.909,1.149,1.192,1.872S60.715,15.678,60.715,16.525z M58.507,16.525c0-0.635-0.084-1.204-0.252-1.708
			s-0.41-0.932-0.724-1.284c-0.315-0.352-0.697-0.621-1.148-0.808s-0.959-0.28-1.524-0.28c-0.565,0-1.075,0.094-1.528,0.28
			s-0.839,0.456-1.156,0.808c-0.317,0.353-0.562,0.78-0.732,1.284c-0.171,0.504-0.256,1.073-0.256,1.708s0.085,1.204,0.256,1.708
			c0.17,0.504,0.415,0.931,0.732,1.28c0.317,0.35,0.703,0.617,1.156,0.804s0.963,0.28,1.528,0.28c0.565,0,1.073-0.094,1.524-0.28
			s0.833-0.454,1.148-0.804c0.314-0.35,0.556-0.776,0.724-1.28S58.507,17.16,58.507,16.525z"/>
		<path fill="#FFFFFF" d="M63.779,10.754c0.064,0.008,0.121,0.023,0.172,0.048c0.051,0.023,0.1,0.059,0.148,0.104
			c0.048,0.046,0.101,0.105,0.16,0.181l6.072,7.735c-0.021-0.187-0.036-0.369-0.044-0.548s-0.012-0.345-0.012-0.5v-7.032h1.896
			V22.31h-1.112c-0.171,0-0.312-0.026-0.424-0.08c-0.112-0.053-0.222-0.149-0.328-0.288l-6.048-7.704
			c0.016,0.171,0.028,0.34,0.036,0.508c0.008,0.168,0.012,0.322,0.012,0.461v7.104h-1.896V10.741h1.128
			C63.635,10.741,63.715,10.745,63.779,10.754z"/>
		<path fill="#FFFFFF" d="M84.674,22.31H83.01c-0.187,0-0.34-0.047-0.46-0.14c-0.12-0.094-0.207-0.21-0.26-0.349l-0.864-2.359
			h-4.792l-0.864,2.359c-0.043,0.123-0.127,0.235-0.252,0.336c-0.125,0.102-0.279,0.152-0.46,0.152h-1.672l4.544-11.568h2.2
			L84.674,22.31z M77.187,17.941h3.688l-1.408-3.848c-0.064-0.171-0.135-0.372-0.212-0.604c-0.077-0.231-0.153-0.483-0.228-0.756
			c-0.075,0.272-0.148,0.525-0.22,0.76c-0.072,0.235-0.143,0.44-0.212,0.616L77.187,17.941z"/>
		<path fill="#FFFFFF" d="M93.411,19.582c0.117,0,0.219,0.045,0.304,0.136l0.849,0.92c-0.47,0.581-1.047,1.026-1.732,1.336
			s-1.508,0.464-2.468,0.464c-0.859,0-1.631-0.146-2.316-0.439c-0.685-0.294-1.271-0.702-1.756-1.225s-0.857-1.146-1.116-1.872
			c-0.258-0.725-0.388-1.517-0.388-2.376c0-0.869,0.144-1.665,0.432-2.388c0.288-0.723,0.693-1.346,1.216-1.868
			c0.522-0.522,1.148-0.93,1.876-1.22c0.728-0.291,1.532-0.437,2.412-0.437c0.859,0,1.609,0.138,2.252,0.412
			c0.643,0.275,1.193,0.639,1.652,1.092l-0.72,1c-0.043,0.064-0.098,0.12-0.164,0.168c-0.067,0.049-0.159,0.072-0.276,0.072
			c-0.122,0-0.248-0.048-0.376-0.144c-0.128-0.097-0.291-0.2-0.488-0.312c-0.197-0.111-0.446-0.216-0.747-0.312
			c-0.302-0.097-0.685-0.145-1.148-0.145c-0.544,0-1.044,0.095-1.5,0.284s-0.848,0.46-1.176,0.812
			c-0.328,0.352-0.584,0.779-0.768,1.283c-0.184,0.504-0.276,1.071-0.276,1.7c0,0.651,0.092,1.229,0.276,1.736
			c0.184,0.507,0.433,0.934,0.748,1.28c0.314,0.347,0.685,0.611,1.112,0.796c0.427,0.184,0.886,0.275,1.376,0.275
			c0.293,0,0.559-0.016,0.796-0.048s0.456-0.082,0.656-0.152c0.2-0.068,0.389-0.158,0.567-0.268s0.356-0.244,0.532-0.404
			c0.054-0.048,0.109-0.086,0.168-0.115S93.341,19.582,93.411,19.582z"/>
		<path fill="#FFFFFF" d="M98.61,22.31h-2.16V10.741h2.16V22.31z"/>
		<path fill="#FFFFFF" d="M112.305,16.525c0,0.849-0.141,1.634-0.424,2.356c-0.281,0.723-0.68,1.348-1.191,1.876
			c-0.513,0.527-1.129,0.939-1.849,1.235c-0.72,0.297-1.518,0.444-2.392,0.444c-0.875,0-1.674-0.147-2.396-0.444
			c-0.723-0.296-1.341-0.708-1.855-1.235c-0.515-0.528-0.914-1.153-1.196-1.876s-0.424-1.508-0.424-2.356
			c0-0.848,0.142-1.633,0.424-2.355s0.682-1.349,1.196-1.876c0.515-0.528,1.133-0.94,1.855-1.236s1.521-0.444,2.396-0.444
			c0.874,0,1.672,0.149,2.392,0.448s1.336,0.711,1.849,1.236c0.511,0.525,0.91,1.149,1.191,1.872
			C112.164,14.893,112.305,15.678,112.305,16.525z M110.097,16.525c0-0.635-0.084-1.204-0.252-1.708s-0.409-0.932-0.724-1.284
			c-0.314-0.352-0.697-0.621-1.148-0.808c-0.45-0.187-0.958-0.28-1.523-0.28s-1.075,0.094-1.528,0.28s-0.839,0.456-1.156,0.808
			c-0.317,0.353-0.561,0.78-0.731,1.284s-0.256,1.073-0.256,1.708s0.085,1.204,0.256,1.708s0.414,0.931,0.731,1.28
			s0.703,0.617,1.156,0.804s0.963,0.28,1.528,0.28s1.073-0.094,1.523-0.28c0.451-0.187,0.834-0.454,1.148-0.804
			s0.556-0.776,0.724-1.28S110.097,17.16,110.097,16.525z"/>
		<path fill="#FFFFFF" d="M115.369,10.754c0.064,0.008,0.121,0.023,0.172,0.048c0.051,0.023,0.1,0.059,0.148,0.104
			c0.049,0.046,0.102,0.105,0.16,0.181l6.072,7.735c-0.021-0.187-0.037-0.369-0.045-0.548s-0.012-0.345-0.012-0.5v-7.032h1.896
			V22.31h-1.111c-0.172,0-0.312-0.026-0.426-0.08c-0.111-0.053-0.221-0.149-0.326-0.288l-6.049-7.704
			c0.016,0.171,0.027,0.34,0.035,0.508s0.014,0.322,0.014,0.461v7.104h-1.896V10.741h1.127
			C115.225,10.741,115.305,10.745,115.369,10.754z"/>
		<path fill="#FFFFFF" d="M133.393,10.741v1.712h-5.127v3.208h4.039v1.656h-4.039v3.272h5.127v1.72h-7.295V10.741H133.393z"/>
		<path fill="#FFFFFF" d="M141.457,12.846c-0.059,0.117-0.127,0.2-0.203,0.248c-0.078,0.048-0.17,0.072-0.277,0.072
			c-0.105,0-0.227-0.042-0.359-0.124c-0.133-0.083-0.291-0.175-0.473-0.276c-0.18-0.102-0.393-0.193-0.635-0.276
			c-0.242-0.082-0.529-0.124-0.861-0.124c-0.297,0-0.559,0.036-0.779,0.108s-0.408,0.172-0.561,0.3
			c-0.15,0.128-0.264,0.281-0.34,0.46c-0.074,0.179-0.111,0.375-0.111,0.588c0,0.272,0.076,0.499,0.229,0.681
			c0.152,0.181,0.354,0.336,0.604,0.464s0.535,0.242,0.855,0.344s0.646,0.209,0.98,0.324c0.334,0.114,0.66,0.248,0.98,0.399
			c0.32,0.152,0.605,0.345,0.855,0.576c0.25,0.232,0.451,0.517,0.604,0.853s0.229,0.744,0.229,1.224c0,0.522-0.09,1.012-0.268,1.468
			c-0.18,0.456-0.439,0.854-0.785,1.192c-0.344,0.339-0.764,0.605-1.26,0.8s-1.064,0.292-1.703,0.292
			c-0.369,0-0.73-0.036-1.088-0.108c-0.357-0.071-0.701-0.174-1.029-0.308c-0.328-0.133-0.635-0.293-0.92-0.479
			c-0.285-0.188-0.539-0.396-0.764-0.624l0.625-1.032c0.059-0.075,0.129-0.138,0.211-0.188c0.084-0.051,0.176-0.076,0.277-0.076
			c0.133,0,0.277,0.056,0.432,0.164c0.154,0.109,0.336,0.231,0.547,0.364c0.211,0.134,0.459,0.255,0.744,0.364
			s0.629,0.164,1.029,0.164c0.613,0,1.088-0.146,1.424-0.437c0.336-0.29,0.504-0.708,0.504-1.252c0-0.304-0.076-0.552-0.229-0.744
			c-0.152-0.191-0.354-0.353-0.604-0.483c-0.252-0.131-0.537-0.241-0.857-0.332c-0.318-0.091-0.645-0.189-0.975-0.296
			c-0.332-0.106-0.656-0.234-0.977-0.384s-0.605-0.345-0.855-0.584c-0.252-0.24-0.453-0.54-0.604-0.9
			c-0.152-0.36-0.229-0.804-0.229-1.332c0-0.421,0.084-0.832,0.252-1.232c0.168-0.399,0.412-0.754,0.736-1.063
			c0.322-0.31,0.719-0.558,1.188-0.744s1.006-0.28,1.607-0.28c0.684,0,1.312,0.107,1.889,0.32s1.066,0.512,1.473,0.896
			L141.457,12.846z"/>
		<path fill="#FFFFFF" d="M154.225,10.741v1.712h-5.127v3.208h4.039v1.656h-4.039v3.272h5.127v1.72h-7.295V10.741H154.225z"/>
		<path fill="#FFFFFF" d="M157.457,10.754c0.064,0.008,0.121,0.023,0.172,0.048c0.051,0.023,0.1,0.059,0.148,0.104
			c0.049,0.046,0.102,0.105,0.16,0.181l6.072,7.735c-0.021-0.187-0.037-0.369-0.045-0.548s-0.012-0.345-0.012-0.5v-7.032h1.896
			V22.31h-1.111c-0.172,0-0.312-0.026-0.426-0.08c-0.111-0.053-0.221-0.149-0.326-0.288l-6.049-7.704
			c0.016,0.171,0.027,0.34,0.035,0.508s0.014,0.322,0.014,0.461v7.104h-1.896V10.741h1.127
			C157.312,10.741,157.393,10.745,157.457,10.754z"/>
		<path fill="#FFFFFF" d="M173.426,20.533h4.631v1.776h-6.783V10.741h2.152V20.533z"/>
		<path fill="#FFFFFF" d="M184.002,7.981l-2.369,1.729c-0.059,0.042-0.113,0.077-0.164,0.104s-0.102,0.048-0.15,0.064
			c-0.051,0.016-0.105,0.026-0.16,0.031c-0.057,0.006-0.123,0.009-0.197,0.009h-1.551l1.566-1.616
			c0.064-0.064,0.125-0.117,0.182-0.16c0.055-0.043,0.113-0.076,0.172-0.1c0.059-0.024,0.125-0.04,0.199-0.049
			c0.074-0.008,0.166-0.012,0.271-0.012H184.002z M181.969,22.31h-2.16V10.741h2.16V22.31z"/>
		<path fill="#FFFFFF" d="M185.938,10.754c0.062,0.008,0.121,0.023,0.172,0.048c0.051,0.023,0.1,0.059,0.148,0.104
			c0.047,0.046,0.1,0.105,0.158,0.181l6.072,7.735c-0.021-0.187-0.035-0.369-0.043-0.548s-0.012-0.345-0.012-0.5v-7.032h1.895V22.31
			h-1.111c-0.17,0-0.312-0.026-0.424-0.08c-0.111-0.053-0.221-0.149-0.328-0.288l-6.049-7.704c0.018,0.171,0.029,0.34,0.037,0.508
			s0.012,0.322,0.012,0.461v7.104h-1.896V10.741h1.129C185.793,10.741,185.873,10.745,185.938,10.754z"/>
		<path fill="#FFFFFF" d="M203.961,10.741v1.712h-5.129v3.208h4.041v1.656h-4.041v3.272h5.129v1.72h-7.297V10.741H203.961z"/>
		<path fill="#FFFFFF" d="M215.992,22.31h-1.664c-0.186,0-0.34-0.047-0.459-0.14c-0.121-0.094-0.207-0.21-0.26-0.349l-0.865-2.359
			h-4.791l-0.865,2.359c-0.041,0.123-0.125,0.235-0.252,0.336c-0.125,0.102-0.277,0.152-0.459,0.152h-1.672l4.543-11.568h2.201
			L215.992,22.31z M208.504,17.941h3.689l-1.408-3.848c-0.064-0.171-0.135-0.372-0.213-0.604c-0.076-0.231-0.152-0.483-0.227-0.756
			c-0.076,0.272-0.148,0.525-0.221,0.76c-0.072,0.235-0.143,0.44-0.213,0.616L208.504,17.941z"/>
	</g>
</g>
</svg>
