<?xml version="1.0" standalone="no"?>
<!DOCTYPE svg PUBLIC "-//W3C//DTD SVG 20010904//EN"
 "http://www.w3.org/TR/2001/REC-SVG-20010904/DTD/svg10.dtd">
<svg version="1.0" xmlns="http://www.w3.org/2000/svg"
 width="512.000000pt" height="512.000000pt" viewBox="0 0 512.000000 512.000000"
 preserveAspectRatio="xMidYMid meet">

<g transform="translate(0.000000,512.000000) scale(0.100000,-0.100000)"
fill="#000000" stroke="none">
<path d="M2370 5114 c-19 -2 -78 -9 -130 -15 -791 -90 -1522 -586 -1924 -1305
-146 -262 -252 -588 -297 -914 -18 -125 -18 -515 0 -640 105 -762 511 -1409
1146 -1826 609 -400 1377 -517 2090 -317 929 260 1646 1043 1819 1987 156 845
-103 1682 -705 2285 -399 398 -879 639 -1449 726 -100 15 -472 28 -550 19z
m395 -304 c498 -46 977 -263 1348 -610 303 -284 542 -695 640 -1101 49 -201
61 -309 61 -539 0 -230 -12 -338 -61 -539 -78 -325 -246 -653 -471 -921 -296
-354 -732 -624 -1183 -733 -201 -49 -309 -61 -539 -61 -231 0 -338 12 -540 61
-396 96 -810 334 -1087 626 -456 480 -682 1125 -623 1772 54 583 345 1143 790
1518 464 390 1069 582 1665 527z"/>
<path d="M1696 4008 c-104 -14 -171 -54 -301 -179 -64 -62 -137 -140 -162
-173 -182 -241 -191 -553 -22 -803 18 -27 183 -200 368 -386 l336 -337 -336
-338 c-185 -185 -344 -348 -353 -362 -22 -34 -21 -117 3 -154 10 -15 32 -37
47 -47 37 -24 120 -25 154 -3 14 9 177 168 362 353 l338 336 337 -336 c186
-185 359 -350 386 -368 249 -168 569 -159 805 22 104 81 276 268 311 338 58
119 58 259 0 378 -23 46 -63 96 -143 179 -137 142 -208 196 -293 222 -95 29
-166 26 -341 -17 l-152 -37 -133 132 -132 132 551 553 c303 303 559 563 568
577 22 34 21 117 -3 154 -10 15 -32 37 -47 47 -37 24 -120 25 -154 3 -14 -9
-274 -265 -577 -568 l-553 -551 -132 132 -132 133 37 152 c23 94 37 177 37
214 0 86 -32 181 -84 251 -57 77 -238 252 -301 292 -83 53 -184 73 -289 59z
m110 -302 c11 -3 75 -62 142 -129 147 -149 143 -129 77 -380 -47 -180 -52
-224 -34 -260 6 -12 89 -101 185 -197 l174 -175 -110 -110 -110 -110 -335 335
c-397 396 -400 400 -400 560 0 138 22 180 178 337 137 139 157 150 233 129z
m1131 -1715 c37 -19 81 -13 258 34 94 25 190 45 214 45 43 0 47 -3 168 -122
184 -182 184 -194 0 -376 -157 -155 -199 -177 -337 -177 -160 0 -164 3 -560
400 l-335 335 110 110 110 110 175 -174 c96 -96 185 -179 197 -185z"/>
</g>
</svg>
