<?xml version="1.0" standalone="no"?>
<!DOCTYPE svg PUBLIC "-//W3C//DTD SVG 20010904//EN"
 "http://www.w3.org/TR/2001/REC-SVG-20010904/DTD/svg10.dtd">
<svg version="1.0" xmlns="http://www.w3.org/2000/svg"
 width="102.000000pt" height="102.000000pt" viewBox="0 0 102.000000 102.000000"
 preserveAspectRatio="xMidYMid meet">

<g transform="translate(0.000000,102.000000) scale(0.100000,-0.100000)"
fill="#000000" stroke="none">
<path d="M418 1005 c-210 -42 -364 -200 -404 -415 -14 -71 -14 -89 0 -160 41
-221 195 -375 416 -416 71 -14 89 -14 160 0 219 41 375 197 416 416 14 71 14
89 0 160 -41 219 -195 374 -411 415 -89 17 -89 17 -177 0z m284 -97 c92 -46
167 -122 211 -215 30 -64 32 -74 32 -183 0 -109 -2 -119 -32 -183 -44 -93
-119 -169 -212 -215 -73 -36 -77 -37 -191 -37 -114 0 -118 1 -191 37 -93 46
-168 122 -212 215 -30 64 -32 74 -32 183 0 109 2 119 32 182 54 114 146 197
268 241 38 13 74 17 151 15 93 -3 106 -6 176 -40z"/>
<path d="M466 799 c-35 -28 -36 -80 -1 -107 14 -11 25 -29 25 -41 0 -14 6 -21
20 -21 13 0 20 7 20 18 0 10 11 29 25 42 33 31 33 79 2 108 -29 28 -57 28 -91
1z m67 -43 c8 -20 -20 -43 -35 -28 -14 14 -3 42 16 42 7 0 16 -6 19 -14z"/>
<path d="M302 750 c-54 -33 -62 -67 -62 -265 0 -279 5 -285 270 -285 265 0
270 6 270 285 0 198 -8 232 -62 265 -36 22 -73 26 -83 10 -9 -15 14 -40 35
-40 10 0 28 -12 39 -26 20 -25 21 -40 21 -209 0 -169 -1 -184 -21 -209 l-20
-26 -179 0 -179 0 -20 26 c-20 25 -21 40 -21 209 0 168 2 184 20 208 11 14 33
27 48 29 19 2 27 9 27 23 0 28 -42 31 -83 5z"/>
<path d="M393 564 c-10 -26 17 -34 117 -34 100 0 127 8 117 34 -9 24 -225 24
-234 0z"/>
<path d="M401 481 c-8 -5 -11 -16 -8 -25 5 -13 25 -16 122 -16 106 0 115 1
115 19 0 10 -7 22 -16 25 -24 9 -197 7 -213 -3z"/>
<path d="M393 375 c-11 -30 12 -36 123 -33 101 3 109 4 109 23 0 19 -8 20
-113 23 -95 2 -113 0 -119 -13z"/>
</g>
</svg>
