<?xml version="1.0" encoding="utf-8"?>
<!-- Generator: Adobe Illustrator 16.0.0, SVG Export Plug-In . SVG Version: 6.00 Build 0)  -->
<!DOCTYPE svg PUBLIC "-//W3C//DTD SVG 1.1//EN" "http://www.w3.org/Graphics/SVG/1.1/DTD/svg11.dtd">
<svg version="1.1" id="Capa_1" xmlns="http://www.w3.org/2000/svg" xmlns:xlink="http://www.w3.org/1999/xlink" x="0px" y="0px"
	 width="50px" height="50px" viewBox="281 281 50 50" enable-background="new 281 281 50 50" xml:space="preserve">
<g>
	<g>
		<path fill="#FFFFFF" d="M306,323.069c-5.892,0-11.087-2.986-14.155-7.527h-4.403c3.466,6.723,10.476,11.32,18.558,11.32
			c10.883,0,19.818-8.333,20.777-18.966h3.878l-5.689-7.586l-5.689,7.586h3.688C322.021,316.432,314.788,323.069,306,323.069z"/>
		<path fill="#FFFFFF" d="M306,285.138c-10.226,0-18.733,7.359-20.519,17.069h-4.136l5.689,7.587l5.69-7.587h-3.37
			c1.725-7.601,8.523-13.275,16.646-13.275c5.136,0,9.736,2.266,12.867,5.853l0.73-0.188h3.874
			C319.747,288.901,313.313,285.138,306,285.138z"/>
	</g>
</g>
</svg>
